<svg width="313" height="202" viewBox="0 0 313 202" fill="none" xmlns="http://www.w3.org/2000/svg">
<path d="M114.767 164.887C114.579 164.532 114.315 164.203 114.075 163.942C113.152 162.936 111.838 162.261 110.569 161.805C109.402 161.385 108.621 160.307 108.706 159.057C108.739 158.597 108.69 158.145 108.596 157.616C108.389 156.459 106.579 156.757 106.583 157.888C106.583 158.409 106.628 158.914 106.701 159.407C106.071 158.784 103.984 155.91 102.918 156.443C102.251 156.777 102.682 157.611 102.943 158.08C103.732 159.488 105.046 160.811 106.282 161.841C106.123 161.711 104.736 161.992 104.468 161.996C103.797 162.008 103.126 161.976 102.459 161.906C101.808 161.837 99.7865 161.109 99.3065 161.699C99.0909 161.963 99.156 162.415 99.4407 162.607C99.6278 162.733 99.8719 162.749 100.075 162.851C100.279 162.953 100.441 163.226 100.299 163.401C100.246 163.466 100.161 163.502 100.083 163.531C99.6807 163.682 99.2658 163.8 98.8835 163.991C98.5012 164.182 98.1432 164.467 97.9602 164.854C97.7772 165.245 97.8138 165.75 98.1188 166.051C98.5337 166.458 100.01 165.986 100.531 165.835C102.666 165.212 104.769 164.317 106.99 164.28C109.658 164.235 111.326 165.705 113.611 166.694C114.417 167.044 115.076 166.45 115.023 165.68C115.007 165.412 114.909 165.139 114.775 164.882L114.767 164.887Z" fill="#713D11"/>
<path d="M131.101 161.507C130.027 160.311 128.161 159.867 126.664 160.433C124.581 161.222 126.363 163.905 127.27 164.781C128.051 165.538 129.726 167.073 130.821 166.063C132.073 164.903 132.228 162.761 131.101 161.507Z" fill="#713D11"/>
<path d="M115.377 171.433C115.32 171.009 115.084 170.602 114.616 170.374C114.36 170.248 114.063 170.187 113.782 170.252C112.456 170.553 112.611 172.255 113.685 172.805C114.767 173.358 115.499 172.357 115.377 171.437V171.433Z" fill="#713D11"/>
<path d="M91.3508 163.095C84.8634 160.937 78.0424 159.313 71.9413 156.166C69.0535 154.68 66.5724 152.767 64.4492 150.304C62.3871 147.914 60.5567 145.451 58.2872 143.236C58.2221 143.175 58.1123 143.252 58.1611 143.334C59.7962 146.021 61.236 148.716 63.2209 151.171C65.3603 153.817 67.874 155.84 70.8879 157.412C77.2452 160.722 84.2329 162.252 91.2085 163.637C91.5623 163.706 91.7047 163.209 91.359 163.091L91.3508 163.095Z" fill="#713D11"/>
<path d="M246.928 139.637C244.471 141.795 242.458 144.376 240.086 146.636C237.613 148.989 234.905 151.098 232 152.885C226.107 156.516 219.363 158.951 212.807 161.076C199.173 165.485 185.128 167.777 170.815 167.924C167.097 167.96 163.388 168.025 159.674 168.107C156.006 168.188 152.17 168.237 148.562 167.48C148.107 167.382 147.924 168.037 148.371 168.18C154.574 170.179 161.497 169.186 167.911 169.149C175.313 169.104 182.614 168.872 189.94 167.753C197.188 166.645 204.363 165.033 211.375 162.887C218.037 160.848 224.838 158.446 230.951 155.063C234.209 153.263 237.194 151.036 240.001 148.602C242.848 146.135 245.777 143.493 247.623 140.179C247.875 139.727 247.302 139.312 246.928 139.641V139.637Z" fill="#713D11"/>
<path d="M259.337 133.693C259.284 133.486 259.15 133.282 258.91 133.087C258.707 132.924 258.451 132.843 258.198 132.79C257.784 132.704 257.348 132.684 256.966 132.505C256.547 132.309 256.23 131.939 255.823 131.719C255.327 131.45 254.709 131.422 254.192 131.65C254.058 131.707 253.92 131.784 253.773 131.776C253.074 131.735 252.687 130.941 251.813 131.169C251.072 131.361 250.739 132.155 251.097 132.826C251.459 133.506 252.598 134.194 251.955 134.968C251.744 135.224 251.447 135.395 251.166 135.578C250.381 136.091 249.637 136.702 249.161 137.52C248.717 138.282 249.214 139.324 250.076 139.369C251.072 139.422 251.825 138.672 252.431 138.017C252.862 137.549 253.464 137.178 254.033 136.902C254.4 136.722 255.294 136.209 255.697 136.311C256.71 136.564 256.677 138.192 256.791 138.97C256.909 139.784 256.82 141.18 257.869 141.339C259.744 141.62 259.203 138.766 258.87 137.793C258.646 137.138 258.211 136.462 258.402 135.745C258.593 135.033 259.545 134.52 259.333 133.702L259.337 133.693Z" fill="#713D11"/>
<path d="M262.01 122.262C261.973 122.095 261.843 121.879 261.717 121.765C261.664 121.716 261.546 121.627 261.489 121.59C260.643 121.049 259.484 122.246 259.569 123.08C259.74 124.794 262.274 123.426 262.01 122.266V122.262Z" fill="#713D11"/>
<path d="M230.939 141.237C230.63 140.065 229.54 139.019 228.344 139.788C227.441 140.37 227.083 142.052 227.726 143C228.641 144.348 231.049 143.338 231.024 141.844C231.024 141.644 230.992 141.437 230.939 141.233V141.237Z" fill="#713D11"/>
<path d="M218.517 149.88C217.431 146.408 211.725 150.027 215.459 152.242C216.069 152.604 216.833 152.604 217.443 152.25C217.826 152.03 218.143 151.659 218.334 151.264C218.464 151.057 218.538 150.837 218.546 150.597C218.599 150.357 218.586 150.12 218.513 149.88H218.517Z" fill="#713D11"/>
<path d="M225.623 166.495C225.623 166.495 225.611 166.486 225.603 166.486C224.793 166.079 223.837 166.515 222.995 166.474C221.962 166.425 221.059 165.778 219.986 165.916C219.054 166.039 218.338 166.812 219.196 167.634C219.51 167.932 219.929 168.09 220.343 168.209C221.421 168.514 222.617 168.616 223.727 168.498C224.338 168.437 226.66 167.838 225.855 166.694C225.794 166.609 225.708 166.548 225.619 166.499L225.623 166.495Z" fill="#713D11"/>
<path d="M129.633 172.817C129.104 172.467 128.413 172.373 127.807 172.565C126.009 173.139 128.872 175.435 129.844 174.462C130.332 173.973 130.194 173.183 129.633 172.817Z" fill="#713D11"/>
<path d="M141.823 166.092C141.306 164.781 138.727 164.467 138.138 166.275C137.89 167.032 138.101 167.639 138.63 168.196C139.691 169.324 141.107 168.55 141.713 167.354C141.953 166.873 141.965 166.446 141.827 166.092H141.823Z" fill="#713D11"/>
<path d="M64.1971 159.464C64.2011 159.342 64.1849 159.22 64.1238 159.114C63.8676 158.678 62.1959 158.682 61.72 158.621C60.4551 158.458 59.2308 158.377 57.9821 158.694C57.2174 158.89 57.1361 159.757 57.5591 160.298C58.3482 161.312 59.7596 161.87 61.0245 161.862C62.3057 161.854 64.0059 160.99 64.1849 159.582C64.1889 159.541 64.193 159.5 64.1971 159.46V159.464Z" fill="#713D11"/>
<path d="M74.2027 149.693C73.9831 149.551 73.7431 149.412 73.5397 149.241C73.1777 148.936 72.8849 148.447 72.5961 148.073C71.9575 147.242 71.3596 146.379 70.6966 145.569C69.993 144.706 68.6223 145.642 68.8948 146.619C69.0656 147.238 70.2655 148.826 70.0947 149.424C70.0784 149.481 70.0133 149.51 69.9564 149.526C69.5049 149.652 69.0209 149.538 68.5613 149.603C67.3085 149.783 67.093 151.553 68.4149 151.794C69.814 152.05 71.3108 152.356 72.7344 152.095C73.4177 151.969 74.1783 151.692 74.581 151.081C75.0691 150.34 74.6989 150.011 74.2068 149.693H74.2027Z" fill="#713D11"/>
<path d="M261.668 91.9766C258.174 84.4043 251.479 78.664 243.641 75.9852C243.194 75.8305 242.877 76.5552 243.316 76.7588C250.584 80.1134 256.982 85.0475 260.407 92.4611C263.832 99.8787 263.751 108.257 261.452 115.988C261.208 116.81 262.49 117.161 262.734 116.342C265.125 108.347 265.207 99.6548 261.664 91.9766H261.668Z" fill="#713D11"/>
<path d="M268.53 98.6492C267.362 94.802 265.735 91.024 263.392 87.7386C261.269 84.7585 258.365 81.6075 254.721 80.6548C254.489 80.5938 254.391 80.8909 254.566 81.0253C257.808 83.4354 260.704 85.6786 262.908 89.1472C264.967 92.3878 266.414 95.9989 267.419 99.6955C268.733 104.524 268.826 109.564 268.115 114.498C267.757 116.977 267.208 119.428 266.561 121.846C266.223 123.1 265.861 124.346 265.479 125.584C265.178 126.561 264.259 128.096 265.158 129.016C265.898 129.773 267.273 129.443 267.541 128.43C268.887 123.345 270.173 118.191 270.457 112.918C270.726 108.033 269.945 103.311 268.53 98.6492Z" fill="#713D11"/>
<path d="M55.4155 100.888C55.0617 100.953 54.7037 101.165 54.541 101.389C53.5974 102.696 52.7351 104.092 52.3081 105.66C52.1169 106.36 51.7874 107.915 52.4341 108.477C53.5933 109.487 54.0326 107.459 54.2807 106.8C54.7363 105.582 55.2813 104.398 55.9036 103.262C56.1883 102.741 56.4893 101.792 56.2209 101.21C56.0744 100.896 55.7491 100.827 55.4155 100.888Z" fill="#713D11"/>
<path d="M65.3521 89.3019C64.38 90.4907 62.7694 91.3171 61.6874 92.4489C61.2034 92.9537 58.5352 95.8157 60.0727 96.2717C60.9919 96.5445 62.8751 94.2402 63.4689 93.6621C64.5387 92.6199 65.6653 91.6673 66.6049 90.5029C67.3696 89.5584 66.0029 88.4999 65.3481 89.3019H65.3521Z" fill="#713D11"/>
<path d="M117.276 181.008C116.995 180.324 115.974 179.941 115.499 180.862C115.027 181.773 116.044 182.942 116.914 182.201C117.366 181.818 117.422 181.37 117.276 181.012V181.008Z" fill="#713D11"/>
<path d="M96.1016 176.44C94.7553 176.44 94.7512 178.537 96.1016 178.537C97.452 178.537 97.452 176.44 96.1016 176.44Z" fill="#713D11"/>
<path d="M178.6 177.743C178.177 176.823 178.584 176.062 178.453 175.097C178.352 174.348 177.953 173.037 176.932 173.448C176.021 173.814 176.908 176.208 175.415 175.423C174.87 175.133 174.569 174.523 174.02 174.189C173.882 174.108 173.735 174.03 173.577 174.026C173.174 174.026 172.918 174.523 173.015 174.918C173.247 175.878 174.988 176.693 174.35 177.824C173.963 178.513 173.239 178.496 173.288 179.518C173.325 180.292 173.979 181.012 174.801 180.841C175.871 180.621 175.505 179.172 176.644 178.993C177.351 178.883 177.64 179.559 178.319 179.196C179.019 178.826 178.848 178.297 178.632 177.808C178.624 177.788 178.612 177.763 178.604 177.743H178.6Z" fill="#713D11"/>
<path d="M199.738 174.034C199.315 172.955 196.997 172.214 196.688 173.586C196.464 174.564 198.294 175.895 199.124 175.361C199.779 174.938 199.905 174.462 199.738 174.034Z" fill="#713D11"/>
<path d="M213.583 171.775C213.364 171.47 213.026 171.237 212.705 171.237C212.197 171.237 211.444 171.82 211.692 172.398C211.932 172.955 213.148 173.387 213.628 172.894C213.929 172.589 213.84 172.129 213.583 171.775Z" fill="#713D11"/>
<path d="M309.976 88.3697C308.878 85.011 307.54 81.8803 305.718 78.8758C305.4 78.3506 305.075 77.8458 304.754 77.3572C303.387 75.3176 301.939 73.5385 300.288 71.6332C298.791 69.903 297.2 68.2501 295.541 66.6746C287.931 59.4199 278.824 54.0053 269.433 49.3845C259.272 44.3893 248.685 40.6845 237.797 37.6108C231.968 35.9661 226.139 34.244 220.274 32.754C214.6 31.3169 208.796 30.466 202.984 29.7943C190.473 28.3612 178.205 26.9608 165.678 29.0289C166.674 26.1588 167.329 23.541 167.553 20.5202C168.065 13.6482 165.889 7.40307 164.075 0.901483C163.795 -0.0918722 162.298 -0.368701 161.794 0.604299C158.849 6.24688 153.48 10.3302 149.787 15.4598C146.972 19.3681 145.085 24.4652 146.887 28.8376C146.285 28.6421 145.658 28.4874 145.008 28.3897C144.178 28.2676 143.352 28.2269 142.539 28.2472C142.567 28.1943 142.592 28.1373 142.6 28.0722C142.97 25.9755 139.207 22.678 137.849 21.2693C135.864 19.2175 133.615 17.4384 131.203 15.9117C127.07 13.3062 122.324 11.747 117.443 11.5108C109.394 11.12 100.262 13.6238 93.4983 17.9595C91.0416 19.531 84.5135 23.7853 86.173 27.2335C87.5193 30.0223 90.5169 32.4446 92.8719 34.415C71.0017 36.5157 49.8595 46.779 33.3297 60.9954C24.8736 68.2664 17.4222 76.771 11.4431 86.1997C5.22413 96.0111 0.953386 106.604 0.148046 118.276C-0.279028 124.448 0.148046 130.876 2.35256 136.706C8.356 152.579 18.4675 165.448 32.6342 174.775C45.6497 183.345 60.337 188.845 75.248 193.091C94.7755 198.648 114.99 201.282 135.287 201.343C145.089 201.376 154.842 200.684 164.608 200.02C173.365 199.426 182.122 198.832 190.859 198.017C208.707 196.348 226.697 193.8 243.739 188.019C259.646 182.62 274.179 174.063 286.162 162.236C297.44 151.11 306.6 137.309 311.05 122.005C314.145 111.359 313.389 98.8813 309.96 88.3697H309.976ZM166.813 33.9957C169.985 33.6822 173.194 33.8573 176.318 34.5086C182.334 35.7585 188.772 38.4983 192.543 43.5791C193.397 44.7353 194.003 45.9933 194.585 47.3001C195.748 49.9057 197.102 52.275 198.742 54.5834C200.23 56.6718 201.625 58.8621 202.565 61.26C202.829 61.9317 203.675 63.1612 202.593 63.1979C202.052 63.2182 201.333 62.7908 200.865 62.5383C200.206 62.1882 199.636 61.5613 199.075 61.0687C197.774 59.9165 196.505 58.7318 195.272 57.5105C193.568 55.8291 192.043 53.9931 190.151 52.5356C187.32 50.3453 184.168 48.6762 180.935 47.1658C179.3 46.4045 177.64 45.7205 175.993 44.9918C175.074 44.5847 174.122 44.031 173.137 43.6768C172.487 39.7523 168.452 36.9106 165.056 35.4369C164.441 35.1763 163.815 34.9402 163.172 34.7366C164.344 34.3946 165.548 34.1259 166.813 33.9997V33.9957ZM240.957 106.49C240.774 105.31 240.53 104.133 240.367 102.948C240.302 102.46 240.131 101.89 240.042 101.32C239.94 100.681 239.94 100.054 240.298 99.5571C241.209 100.457 242.079 101.422 242.677 102.566C243.767 104.658 244.085 107.085 244.02 109.421C243.869 114.97 240.676 119.534 236.837 123.288C228.987 130.954 219.335 136.572 209.109 140.407C198.693 144.311 187.739 146.55 176.753 148.113C164.966 149.795 153.045 151.016 141.172 151.863C133.847 152.384 126.505 152.47 119.184 151.863C115.259 151.537 111.358 151.016 107.462 150.458C109.581 150.503 111.7 150.471 113.819 150.393C119.684 150.177 125.549 149.962 131.41 149.779C135.526 149.652 139.488 148.863 143.385 147.755C143.393 147.755 143.401 147.763 143.413 147.767C150.169 150.703 157.982 148.313 164.889 146.982C173.601 145.312 182.204 143.261 190.696 140.68C198.424 138.326 206.055 135.644 213.474 132.456C220.339 129.5 227.596 126.313 233.562 121.753C236.373 119.616 239.216 117.006 240.587 113.672C241.526 111.376 241.339 108.888 240.953 106.494L240.957 106.49ZM83.8261 58.2514C81.8778 56.4154 80.3363 54.0338 79.7547 51.3998C80.3119 50.9275 80.9139 50.4919 81.5362 50.0929C81.9673 52.3809 84.1393 54.8968 85.5466 56.0408C88.3775 58.341 91.9771 59.5339 95.4995 60.2707C99.1357 61.032 102.874 61.3699 106.583 61.4391C111.81 61.5287 117.057 61.5409 122.275 61.3374C125.358 61.2152 128.372 61.5572 131.447 61.7445C134.054 61.9033 137.035 62.2249 139.232 60.6982C140.033 62.1312 140.965 63.5643 142.144 64.3744C136.588 64.2889 131.024 63.8167 125.529 63.3404C115.84 62.5098 106.237 61.8747 96.5 61.891C93.5715 61.891 90.6105 61.6508 87.7755 60.7185C86.2909 60.23 84.9528 59.3181 83.8261 58.2514ZM86.6814 62.2289C85.2985 62.3389 83.9156 62.4854 82.5449 62.6849C82.1504 62.746 81.7517 62.803 81.3613 62.8681C80.0679 61.7648 78.8598 60.7308 77.9325 59.2367C76.9278 57.6204 76.517 55.8128 77.4688 54.0989C77.7861 53.5289 78.1725 53.0038 78.6158 52.5152C79.2829 55.304 80.8569 57.8443 82.9882 59.77C83.8912 60.5883 85.2375 61.5694 86.6895 62.2249L86.6814 62.2289ZM86.1933 48.1347C86.4943 48.6762 87.0719 49.5555 87.1939 49.6899C87.7511 50.2965 88.227 50.9397 88.8575 51.4812C90.1265 52.5763 91.6273 53.3661 93.1892 53.9442C96.3414 55.1086 99.7539 55.4627 103.093 55.6419C107.209 55.8576 111.313 55.821 115.43 56.1385C118.077 56.338 120.721 56.5538 123.373 56.7207C124.638 56.798 125.899 56.9161 127.164 56.9609C128.295 57.0016 129.332 56.7207 130.361 57.2988C131.634 58.0194 132.891 58.797 134.201 59.4687C133.383 59.4931 132.557 59.5054 131.732 59.4484C129.234 59.2937 126.749 59.0168 124.256 58.8621C119.07 58.5323 113.868 58.6504 108.678 58.6056C102.174 58.5527 94.8324 58.6056 88.9185 55.536C87.4176 54.7544 86.0103 53.7406 84.9975 52.3687C84.4566 51.6481 84.0335 50.8257 83.7529 49.9708C83.639 49.6207 83.5617 49.2828 83.46 48.9571C83.8098 48.7739 84.1596 48.5907 84.5013 48.4197C84.8877 48.2283 85.6035 47.6787 86.0428 47.7072C85.9859 47.7072 86.0632 47.8782 86.2015 48.1266L86.1933 48.1347ZM132.435 50.6384C130.06 48.8634 127.412 47.3653 124.923 46.0788C122.975 45.0732 120.937 44.1898 118.85 43.5221C118.419 43.3837 117.964 43.2371 117.492 43.0946C117.984 43.1231 118.48 43.1557 118.976 43.2005C121.453 43.4244 123.524 43.7623 125.7 45.0732C128.189 46.5673 130.467 48.4197 132.431 50.557V50.61C132.431 50.61 132.431 50.6303 132.431 50.6425L132.435 50.6384ZM118.358 45.3826C121.254 46.5103 124.077 47.8171 126.753 49.3967C128.575 50.4715 130.292 51.7091 132.069 52.8613C134.27 54.2902 136.34 55.6093 137.703 57.8932C137.902 58.227 138.105 58.6016 138.317 58.9924C138.264 58.9395 138.211 58.8865 138.146 58.8336C134.981 56.2892 131.097 54.3513 127.481 52.5152C123.666 50.5774 119.729 48.8553 115.649 47.5362C111.44 46.1805 107.1 44.89 102.674 44.5155C101.609 44.4259 100.539 44.3404 99.4733 44.2509C99.7824 44.2753 100.445 44.031 100.816 43.9984C101.454 43.9414 102.093 43.8275 102.727 43.7582C104.008 43.6117 105.29 43.4895 106.575 43.3756C110.04 43.0662 113.054 43.5221 116.328 44.6376C117.008 44.8697 117.683 45.1139 118.354 45.3745L118.358 45.3826ZM134.632 45.0406C131.732 41.9669 126.741 37.4276 121.925 37.2322C123.308 36.9676 124.691 36.7193 126.086 36.5198C126.151 36.5076 126.224 36.4994 126.289 36.4913C127.51 37.2566 129.015 37.6271 130.284 38.3192C132 39.2597 133.623 40.3996 135.112 41.6738C136.466 42.83 137.723 44.0921 138.874 45.4518C139.822 46.5632 140.57 47.9026 141.53 49.0141C142.177 49.7591 142.657 54.7584 142.526 55.8861C139.655 52.4867 137.759 48.3464 134.632 45.0366V45.0406ZM125.541 41.2464C127.636 42.4351 129.539 43.9781 131.272 45.6635C131.223 45.7246 131.183 45.7816 131.138 45.8467C129.71 44.8574 127.884 43.917 127.274 43.5791C125.33 42.5165 123.377 41.4988 121.205 40.998C116.719 39.9639 111.997 40.367 107.458 40.7863C102.438 41.2504 97.2688 41.9018 92.3717 43.1435C88.9266 44.0147 85.5181 45.3867 82.4351 47.1658C79.7018 48.7413 76.7611 50.8746 75.5856 53.932C75.008 55.4383 74.9958 57.0627 75.5856 58.5649C75.911 59.4076 76.3503 60.1079 76.8831 60.7185C77.542 61.6956 78.3474 62.5872 79.173 63.2793C78.0708 63.5114 76.9726 63.8004 75.9029 64.1505C75.1748 62.9536 74.4956 61.72 74.04 60.3847C73.8041 59.7048 73.6211 59.0128 73.5763 58.2962C73.5357 57.8077 73.5316 57.3395 73.556 56.8795C73.7228 53.8098 75.2196 51.4201 77.5502 49.1606C80.2387 46.5551 83.5495 44.548 86.9621 43.0376C93.5024 40.1309 100.999 39.5406 108.06 39.2637C113.677 39.048 120.445 38.3477 125.533 41.2464H125.541ZM76.0371 66.414C79.3032 65.2212 82.8581 64.8263 86.3357 64.5169C91.9161 64.0202 97.5169 64.0895 103.114 64.122C118.077 64.2075 132.919 66.9514 147.863 66.6298C148.469 67.7657 149.087 68.8975 149.697 70.0252C147.969 70.0333 146.236 70.0129 144.515 70.0455C140.603 70.1188 136.686 70.2043 132.769 70.2246C125.114 70.2613 117.439 70.131 109.808 69.4063C102.341 68.702 94.8731 66.752 87.3322 67.1591C83.6309 67.3586 80.0475 68.2338 76.7204 69.8786C74.1539 71.1447 72.1324 73.2047 69.936 74.9919C69.4317 75.4072 68 77.1293 67.3817 76.0667C67.097 75.5782 67.4753 74.4749 67.6542 73.9864C67.9593 73.164 68.3945 72.3742 68.8663 71.6332C69.6432 70.4282 70.6804 69.4145 71.8477 68.588C73.1615 67.6598 74.5688 66.9555 76.0371 66.4181V66.414ZM152.357 60.747C152.581 61.2274 152.959 61.9765 153.606 61.8666C154.948 61.6346 153.939 59.8107 153.691 59.143C153.439 58.4631 153.187 57.7792 153.114 57.0627C152.963 55.5808 153.586 54.1763 153.675 52.7147C153.765 51.2369 153.878 49.7794 154.049 48.3016C154.224 46.7709 154.375 45.2401 154.35 43.7012C154.334 42.9237 154.281 42.1461 154.147 41.3807C154.025 40.6723 153.687 39.9151 153.793 39.1945C154.842 39.8092 155.892 40.424 156.941 41.0387C158.235 41.796 158.255 44.1246 158.536 45.4355C158.967 47.4345 159.292 49.4619 159.215 51.5137C159.146 53.4475 158.837 55.3894 158.235 57.2296C158.019 57.9013 157.86 58.6667 157.559 59.3018C157.181 60.1079 156.526 60.8488 156.071 61.6264C155.127 63.2345 154.322 64.9281 153.675 66.6787C153.35 67.554 153.065 68.4415 152.821 69.3412C152.736 69.6547 152.06 71.5437 152.264 71.7635C151.007 70.3956 150.214 68.2909 149.331 66.6665C148.705 65.5103 148.192 64.2686 147.659 63.0717C146.582 60.6616 145.614 58.1944 144.991 55.6256C144.247 52.5681 144.035 49.4375 144.605 46.3312C144.902 44.715 145.248 43.1272 145.841 41.5883C146.313 40.3711 146.972 39.1212 147.59 37.9691C147.611 37.9284 147.635 37.8918 147.659 37.8551C147.684 37.8185 147.716 37.79 147.749 37.7655C147.838 37.7085 147.948 37.7126 148.054 37.7167C148.88 37.7492 149.636 37.7737 150.462 37.8877C150.771 37.9284 151.113 37.9772 151.45 38.022C151.772 39.7807 152.349 41.4499 152.447 43.2738C152.565 45.4885 152.349 47.6828 152.105 49.8853C151.861 52.0878 151.426 54.278 151.442 56.5009C151.458 57.8769 151.776 59.4972 152.357 60.7389V60.747ZM156.449 95.0463C154.668 95.3557 152.858 95.4982 151.056 95.5267C147.293 95.5837 143.637 95.0381 139.931 94.4437C133.359 93.3893 126.582 93.601 120.168 91.6591C120.034 91.6184 119.908 91.6062 119.79 91.6103C119.769 91.5695 119.753 91.537 119.737 91.4963C121.453 91.0036 123.154 90.1406 124.911 89.8353C126.033 89.6439 127.441 89.7131 128.596 89.7253C130.141 89.7375 131.691 89.8597 133.228 89.9981C136.869 90.3279 140.493 90.9304 144.141 91.1909C147.594 91.4352 151.048 91.1217 154.48 90.7309C157.043 90.4296 159.67 90.3116 162.249 89.9981C161.537 91.5085 160.793 92.9904 159.959 94.4316C158.788 94.5659 157.649 94.8428 156.445 95.0463H156.449ZM158.227 97.1104C157.657 97.9449 157.079 98.7795 156.604 99.6548C154.977 99.5937 153.346 99.5082 151.727 99.4024C143.56 98.8528 135.685 97.7455 127.888 95.4331C132.094 95.9175 136.348 96.117 140.517 96.8376C144.101 97.4604 147.733 97.892 151.373 97.8106C153.512 97.7577 155.989 97.6844 158.227 97.1104ZM192.36 105.102C189.631 107.39 186.926 109.706 184.201 111.994C178.393 116.859 172.519 122.009 165.955 125.848C164.86 126.488 163.693 127.2 162.465 127.562C161.464 127.827 159.776 127.017 158.857 126.622C160.183 125.926 161.509 125.315 162.806 124.57C165.666 122.925 168.293 120.878 170.787 118.732C173.3 116.574 175.68 114.286 178.087 112.015C179.304 110.875 180.524 109.739 181.768 108.632C182.647 107.85 184.123 107.011 184.734 105.908C186.661 105.566 188.585 105.175 190.493 104.736C191.55 104.491 192.616 104.231 193.682 103.954C193.234 104.345 192.795 104.736 192.356 105.102H192.36ZM197.977 103.901C198.152 103.775 198.327 103.645 198.506 103.514C199.327 102.924 200.181 102.338 201.076 101.878C202.183 101.312 203.452 100.99 204.619 100.546C197.887 109.255 189.195 116.538 180.044 122.518C176.05 125.128 171.897 127.628 167.545 129.631C167.525 129.622 167.508 129.606 167.488 129.598C166.849 129.297 166.199 129.024 165.548 128.755C174.541 124.656 190.07 110.411 192.34 108.485C194.186 106.922 196.016 105.326 197.973 103.897L197.977 103.901ZM177.095 109.531C174.74 111.73 172.422 113.977 170.002 116.114C167.618 118.215 165.129 120.181 162.444 121.883C161.041 122.771 159.601 123.585 158.096 124.293C157.136 124.745 155.998 125.05 155.017 125.551C154.704 125.71 153.077 125.046 152.711 124.92C152.012 124.684 151.308 124.432 150.592 124.216C154.188 122.722 157.747 121.024 161.11 119.029C163.144 117.767 165.06 116.342 167.061 115.023C168.956 113.773 170.876 112.556 172.617 111.091C173.739 110.142 175.338 108.77 175.619 107.182C177.18 107.019 178.746 106.832 180.304 106.616C179.218 107.573 178.148 108.546 177.095 109.535V109.531ZM162.477 114.323C159.898 116.224 157.189 118.064 154.456 119.73C153.089 120.564 151.621 121.277 150.165 121.944C149.238 122.364 148.07 122.644 147.11 123.149C146.671 122.982 146.228 122.815 145.788 122.632C144.873 122.254 143.954 121.879 143.035 121.496C146.496 120.837 149.962 118.923 152.886 117.6C155.741 116.306 158.491 114.856 161.029 113.012C163.002 111.583 165.182 109.881 166.581 107.785C168.249 107.724 169.912 107.638 171.58 107.52C168.907 110.215 165.556 112.055 162.481 114.319L162.477 114.323ZM159.378 110.728C157.023 112.389 154.48 113.802 151.89 115.064C149.73 116.118 147.582 117.193 145.37 118.146C143.535 118.936 141.412 119.835 139.334 119.949C138.809 119.725 138.292 119.502 137.776 119.274C138.109 119.213 138.402 119.147 138.589 119.094C140.956 118.488 143.206 117.108 145.207 115.752C147.322 114.331 149.299 112.723 151.214 111.05C152.349 110.061 153.911 109.018 154.879 107.72C156.412 107.793 157.95 107.842 159.491 107.862C160.553 107.878 161.627 107.878 162.697 107.862C161.684 108.892 160.61 109.853 159.378 110.72V110.728ZM142.429 124.688C148.965 127.64 155.839 129.635 162.725 131.613C161.066 132.232 158.788 133.559 157.035 133.404C155.034 133.229 153.089 132.383 151.194 131.768C149.03 131.064 146.87 130.323 144.727 129.541C140.497 128.002 136.32 126.321 132.216 124.472C126.631 121.952 120.982 119.094 116.267 115.174C116.231 115.141 116.194 115.113 116.154 115.076C112.318 111.864 108.962 108.102 106.083 104.019C103.268 100.021 100.811 95.6163 98.8632 91.1299C97.9602 89.0495 97.0735 86.9325 96.7075 84.6771C96.5 83.3906 96.3496 81.2045 97.0491 80.0523C98.3019 78.0086 100.169 82.3607 100.6 83.2197C101.531 85.072 102.548 87.0384 103.264 88.9722C103.805 90.4256 104.269 92.1884 104.911 93.8087C106.327 97.3668 108.893 100.436 111.134 103.478C114.978 108.697 119.558 113.016 125.122 116.355C130.625 119.656 136.584 122.046 142.425 124.68L142.429 124.688ZM97.521 76.026C99.9777 76.8687 102.426 77.8051 104.993 78.2529C106.022 78.4361 107.275 78.6559 108.405 78.5419C107.165 78.9857 105.936 79.4742 104.732 80.0075C103.821 80.4147 102.776 80.8218 101.897 81.4039C101.637 80.9683 101.365 80.5327 101.084 80.1175C99.9532 78.4565 97.7813 76.2662 96.073 78.5664C95.8981 78.8025 94.7836 80.7526 95.0927 80.9765C94.1166 80.2844 92.9086 79.7511 91.9487 79.1852C90.4071 78.2733 88.8737 77.3491 87.3607 76.3761C86.3601 75.7369 85.3798 75.0652 84.4077 74.3812C82.9313 73.1192 81.5118 71.7717 80.0516 70.4974C81.2067 70.0944 82.3985 69.785 83.5983 69.5651C86.901 73.4775 92.9086 74.4464 97.5169 76.0341L97.521 76.026ZM85.4083 69.2883C85.9452 69.2272 86.474 69.1784 87.0109 69.1499C94.4501 68.7305 101.788 70.6317 109.146 71.4053C114.327 71.9508 119.53 72.2113 124.736 72.3335C123.662 72.7894 122.6 73.2821 121.563 73.6892C118.313 74.9472 114.815 76.0708 111.301 76.1644C109.064 76.2255 106.624 76.1196 104.431 75.6759C102.15 75.2118 99.941 74.4464 97.7121 73.7665C95.4873 73.0866 93.2095 72.594 90.9888 71.8938C88.9673 71.2628 87.1573 70.3834 85.4083 69.2883ZM98.249 98.6329C98.1514 100.783 98.1107 102.936 98.3629 105.078C98.8428 109.165 100.535 113.199 103.337 116.257C105.944 119.111 109.52 121.053 113.075 122.469C115.385 123.394 118.903 124.847 121.722 124.46C122.34 124.497 122.966 124.44 123.581 124.314C123.995 124.301 124.406 124.248 124.833 124.126C124.903 124.106 124.972 124.078 125.033 124.049C125.976 124.603 126.932 125.144 127.908 125.653C129.303 126.378 130.719 127.078 132.147 127.77C127.676 128.022 123.235 128.401 118.753 127.644C114.547 126.931 110.557 125.25 107.01 122.893C100.035 118.26 94.4704 110.667 93.4983 102.191C93.2339 99.9235 93.3112 97.5989 93.7668 95.3597C94.2671 92.8845 95.2514 90.5802 95.8289 88.1335C96.4634 90.4093 97.3257 92.6077 98.3304 94.7491C98.188 96.0803 98.3019 97.5704 98.2571 98.637L98.249 98.6329ZM100.323 98.6289C100.913 99.6955 101.527 100.746 102.158 101.784C107.104 109.918 113.807 116.725 121.669 121.948C120.994 121.806 120.302 121.716 119.534 121.578C117.728 121.252 115.95 120.735 114.234 120.096C110.931 118.858 107.547 117.071 105.111 114.478C102.357 111.551 100.897 107.561 100.486 103.616C100.315 101.959 100.303 100.29 100.319 98.6248L100.323 98.6289ZM83.7163 123.731C85.9778 128.438 90.277 130.559 95.2676 131.141C101.328 131.845 107.502 131.935 113.587 132.354C117.276 132.611 120.953 133.062 124.658 133.022C128.201 132.981 131.78 132.383 135.311 132.004C136.246 131.902 137.174 131.743 138.105 131.629C138.813 131.548 139.622 131.259 140.326 131.385C140.643 131.442 140.936 131.581 141.233 131.711C142.408 132.248 143.612 132.7 144.816 133.168C143.673 133.478 142.49 133.73 141.31 133.926C139.748 134.178 138.162 134.308 136.592 134.5C132.753 134.976 128.893 135.322 125.033 135.599C117.244 136.152 109.609 135.416 101.889 134.39C95.9916 133.608 89.3374 133.486 84.1637 130.188C78.811 126.777 78.0586 119.721 78.7907 113.936C79.23 110.411 80.5031 107.105 82.3619 104.092C84.2491 101.031 86.7953 98.6004 89.0771 95.8727C89.7563 96.0681 90.4437 96.2269 91.127 96.3491C90.9888 97.3994 90.9196 98.4416 90.9033 99.4472C87.3322 101.743 84.8511 106.344 83.4967 110.215C81.9673 114.571 81.6826 119.489 83.7204 123.736L83.7163 123.731ZM81.3369 74.8739C85.2619 78.1633 89.6669 80.9846 94.2142 83.3377C94.385 83.4232 94.5558 83.5169 94.6738 83.6553C94.8284 83.8385 94.8731 84.0827 94.9178 84.3148C95.1049 85.3244 95.2961 86.3341 95.4832 87.3437C92.5791 85.6135 89.13 84.8644 86.3357 82.9591C83.9847 81.4894 82.2602 79.3073 80.0923 77.6381C80.0109 77.5771 79.9214 77.512 79.8726 77.4224C79.8238 77.3328 79.8157 77.227 79.8116 77.1211C79.7587 76.0545 79.4049 75.0856 79.3276 74.0393C79.3073 73.7543 79.3073 73.4815 79.3276 73.2047C79.9702 73.8154 80.7146 74.3568 81.3409 74.8739H81.3369ZM84.0661 85.0761C86.8238 86.9814 90.0533 87.8526 93.0224 89.3427C93.1648 89.4078 93.3031 89.4566 93.4414 89.4851C92.6645 90.7024 92.0951 92.0785 91.6965 93.5115C87.9586 92.8398 84.1637 91.0118 81.345 88.4796C79.9296 87.2053 78.7175 85.6827 78.2619 83.7978C78.0382 82.8736 78.026 81.9128 78.2213 80.9846C78.2985 80.6345 78.4206 80.3047 78.5629 79.9831C80.1411 81.925 82.0487 83.6797 84.062 85.0761H84.0661ZM87.0678 95.1888C82.4066 99.3251 78.4246 104.866 77.2207 111.005C76.1144 116.656 76.1876 123.512 79.6571 128.381C83.4275 133.657 90.5047 134.768 96.496 135.521C104.232 136.494 112.029 138.123 119.851 138.151C124.573 138.164 129.328 137.699 134.013 137.223C136.381 136.983 138.744 136.694 141.095 136.352C143.645 135.981 146.098 135.835 148.408 134.589C148.449 134.589 149.661 135 149.831 135.033C150.413 135.155 150.978 135.334 151.556 135.517C149.299 136.246 147.037 136.926 144.768 137.549C131.597 141.164 117.825 140.655 104.334 139.739C94.2671 139.059 82.4676 138.64 76.1794 129.333C72.6368 124.086 72.588 117.58 74.2678 111.656C75.248 108.204 76.7855 104.976 78.567 101.87C80.1533 99.1052 82.3374 96.6707 83.6675 93.7761C83.9807 93.9023 86.779 95.4412 87.0678 95.1806V95.1888ZM104.313 84.9825C104.248 84.9173 104.025 84.6609 103.768 84.3474C103.264 83.7367 102.621 82.9103 102.719 82.8655C103.716 82.4421 104.684 81.868 105.664 81.4854C107.197 80.8951 108.767 80.4106 110.309 79.8569C113.428 78.7496 116.52 77.573 119.607 76.3843C122.486 75.2728 125.887 74.4057 128.392 72.5411C128.449 72.4963 128.498 72.4515 128.539 72.3986C129.613 72.4108 130.694 72.419 131.768 72.423C134.571 72.4352 137.393 72.4841 140.22 72.5248C140.163 72.5533 140.114 72.5777 140.058 72.6022C138.39 73.4612 136.661 74.198 134.912 74.8901C131.447 76.258 127.945 77.5323 124.488 78.9246C121.226 80.2437 117.789 81.0864 114.531 82.4095C111.875 83.4884 109.113 84.8603 107.441 87.2379C106.372 86.5743 105.212 85.8619 104.309 84.9743L104.313 84.9825ZM116.638 83.5087C119.985 82.4217 123.333 81.5261 126.582 80.1704C129.918 78.7821 133.35 77.6422 136.69 76.2621C139.012 75.3013 141.815 74.3528 143.706 72.5655C143.966 72.3172 145.744 72.5737 146.142 72.5737C147.07 72.5737 148.001 72.5737 148.928 72.5574C149.766 72.5452 150.828 72.2276 151.235 73.0012C151.568 73.6362 151.633 74.255 152.146 74.8657C152.252 74.9919 150.787 75.2606 150.69 75.2769C150.006 75.399 149.319 75.6067 148.648 75.7817C147.285 76.1359 145.935 76.5186 144.597 76.9542C141.929 77.8214 139.317 78.8798 136.857 80.2396C132.732 82.5235 128.828 85.1697 124.597 87.2663C122.56 88.2801 120.445 89.1798 118.22 89.6765C116.211 90.1284 114.498 89.9696 112.538 89.8841C111.183 89.2775 109.792 88.6017 108.462 87.8445C111 85.9799 113.559 84.5102 116.638 83.5047V83.5087ZM158.857 65.783C159.776 65.665 160.691 65.5388 161.606 65.4003C163.433 65.1276 165.259 64.8182 167.077 64.4762C168.956 64.1261 170.823 63.7353 172.686 63.3159C174.191 62.978 175.753 62.4203 177.274 62.2411H177.29C176.111 63.5643 174.333 64.179 172.69 64.7001C170.77 65.3067 168.895 66.068 167.008 66.7642C163.343 68.1199 159.581 69.4145 155.668 69.785C155.233 69.8297 154.798 69.8582 154.363 69.8908C154.842 68.6003 155.457 67.3504 156.116 66.1128C156.242 65.8767 158.523 65.8278 158.865 65.7871L158.857 65.783ZM157.629 63.3322C158.056 62.5628 158.483 61.7974 158.918 61.0361C158.946 60.9832 158.979 60.9302 159.028 60.8936C159.093 60.8488 159.186 60.8488 159.268 60.8488C160.561 60.857 161.887 60.6209 163.144 60.3277C164.153 60.0916 165.182 59.9328 166.174 59.6519C167.195 59.3669 168.004 59.0331 168.92 58.5324C169.164 58.398 172.247 56.5986 172.056 56.4276C173.162 57.3924 174.293 58.3329 175.452 59.2285C169.595 60.9425 163.656 62.3796 157.629 63.3282V63.3322ZM154.46 72.3986C160.667 72.0892 166.609 70.0211 172.515 68.1484C171.649 69.4674 170.852 70.8353 170.107 72.2399C167.187 72.1014 164.059 72.8261 161.192 73.2658C160.569 73.3594 153.455 74.2713 153.455 74.5034C153.455 74.3772 153.394 72.4393 153.618 72.4312C153.899 72.419 154.184 72.4108 154.464 72.3986H154.46ZM161.529 75.7736C163.868 75.4723 166.353 75.4275 168.716 75.0408C168.432 75.6351 168.159 76.2377 167.891 76.8484C167.598 77.516 166.247 82.0513 165.548 82.1368C162.977 82.4543 160.415 82.8655 157.828 83.122C154.948 83.4069 152.081 83.5576 149.189 83.4395C146.944 83.3499 144.702 83.1545 142.453 83.1423C140.155 83.1301 137.873 83.4192 135.579 83.5047C138.065 82.2141 140.525 80.9439 143.157 79.9668C145.841 78.9735 148.587 78.3302 151.34 77.5689C154.708 76.7873 158.113 76.2133 161.537 75.7695L161.529 75.7736ZM164.661 84.5387C164.238 85.5483 163.807 86.5499 163.368 87.5554C160.427 87.3885 157.38 87.987 154.489 88.333C150.954 88.7524 147.387 89.0821 143.824 88.8052C140.285 88.5243 136.783 87.8689 133.237 87.6857C131.711 87.6043 130.194 87.6287 128.669 87.5595C129.6 87.0343 130.536 86.5132 131.467 85.9962C131.667 85.8822 131.874 85.7682 132.085 85.6746C132.244 85.6054 132.403 85.5443 132.574 85.5036C132.997 85.4059 133.432 85.4384 133.867 85.4669C135.059 85.5484 136.311 85.7479 137.495 85.6257C138.76 85.4954 140.021 85.3367 141.306 85.3285C144.153 85.3285 146.98 85.589 149.823 85.6908C152.605 85.7885 155.379 85.5891 158.145 85.3082C160.272 85.0924 162.562 85.0761 164.665 84.5387H164.661ZM163.282 93.6133C165.035 90.4785 166.418 87.1646 167.789 83.8548C170.514 77.2921 173.223 70.3793 178.157 65.1194C178.946 64.2808 179.788 63.4828 180.678 62.7378C180.837 62.8274 180.992 62.921 181.15 63.0065C182.427 63.6986 183.745 64.3256 185.087 64.8833C179.613 69.3941 175.59 75.8916 172.792 82.267C171.45 85.3204 170.075 88.5732 168.968 91.7406C167.984 94.5537 166.849 97.55 164.649 99.6548C164.624 99.6711 164.612 99.6915 164.6 99.7118C162.782 99.7525 160.964 99.7647 159.15 99.7281C160.866 97.9816 162.172 95.6 163.282 93.6133ZM188.516 66.1006C189.797 66.4873 191.095 66.809 192.409 67.0451C194.292 67.383 196.578 67.7046 198.746 67.5173C197.208 68.7224 195.573 69.8012 193.914 70.8272C191.526 72.2968 189.159 73.3798 186.397 73.9701C184.213 74.4342 181.984 74.6499 179.763 74.8983C180.166 74.3039 180.569 73.7136 181.004 73.1355C182.956 70.534 185.567 68.0303 188.516 66.0965V66.1006ZM170.067 96.0926C172.137 96.6096 174.85 95.9338 176.749 95.6529C179.649 95.2214 182.525 94.5822 185.36 93.8087C190.31 92.4611 195.244 90.9467 200.133 89.3874C204.44 88.0195 208.747 86.4603 212.709 84.2578C214.389 83.3255 215.987 82.2467 217.472 81.0253C217.525 83.5413 214.202 85.1291 212.306 86.0939C209.662 87.4333 206.86 88.4348 204.204 89.7579C200.035 91.8261 196.029 94.0082 191.555 95.3923C187.292 96.7155 182.932 97.7454 178.523 98.466C174.858 99.0604 171.165 99.4187 167.464 99.606C168.586 98.6452 169.4 97.4279 170.067 96.0926ZM216.524 79.1526C214.877 80.606 212.986 81.7826 211.054 82.8126C207.206 84.8644 203.073 86.3097 198.925 87.6084C194.442 89.017 189.944 90.397 185.417 91.651C182.586 92.4408 179.735 93.1655 176.843 93.6703C175.265 93.9512 173.678 94.1425 172.084 94.289C171.653 94.3298 171.218 94.3664 170.795 94.4275C170.941 94.4071 171.995 91.484 172.092 91.252C172.145 91.1299 172.198 91.0037 172.3 90.9223C172.389 90.8571 172.503 90.8286 172.613 90.8001C174.76 90.3319 176.977 90.2953 179.153 89.9981C181.472 89.6846 183.717 88.964 185.938 88.2557C190.269 86.8633 194.499 85.1901 198.815 83.753C204.757 81.7744 211.969 79.4172 215.658 73.9782C216.378 75.3339 216.988 76.7466 217.484 78.1837C217.175 78.5175 216.862 78.8432 216.516 79.1485L216.524 79.1526ZM207.47 77.6789C204.326 79.344 200.938 80.4839 197.57 81.6034C193.645 82.9062 189.806 84.4329 185.885 85.7316C183.802 86.4155 181.695 87.0628 179.544 87.5025C178.454 87.7264 177.404 87.7753 176.314 87.8526C175.944 87.8811 173.292 88.2231 173.19 88.5325C173.658 87.0588 174.211 85.6338 174.838 84.2008C182.7 83.7489 190.798 82.2263 197.794 78.5216C200.844 76.9054 203.785 74.9227 206.307 72.5574C207.629 71.3198 209.699 69.3005 210.582 67.2201C211.989 68.5595 213.234 70.0781 214.312 71.7106C212.925 74.5522 210.199 76.2336 207.466 77.6789H207.47ZM207.596 67.7087C206.738 69.0807 205.632 70.2857 204.464 71.3971C202.077 73.6566 199.311 75.5049 196.411 77.0316C190.074 80.3617 182.728 81.9047 175.602 82.5032C176.391 80.8014 177.233 79.12 178.157 77.4997C181.236 77.1822 184.347 77.0763 187.394 76.4901C190.416 75.9038 193.047 74.5563 195.63 72.9401C197.916 71.5111 200.165 69.9641 202.174 68.1606C203.35 67.1062 205.115 65.4858 205.815 63.7678C206.38 64.0446 206.941 64.3622 207.491 64.7286C207.889 64.9932 208.271 65.2741 208.654 65.5632C208.3 66.2716 208.019 67.0329 207.596 67.7087ZM200.068 65.1317C199.429 65.2416 198.79 65.3108 198.144 65.3311C195.256 65.4411 192.848 64.5128 190.168 63.6864C182.826 61.4351 176.66 56.4072 171.157 51.188C169.44 49.5596 167.862 47.7968 166.113 46.205C164.612 44.8371 162.888 43.8275 161.338 42.5206C161.513 42.3456 161.798 42.4066 162.029 42.4758C164.124 43.1191 166.353 43.5343 168.383 44.3608C170.457 45.2076 172.511 46.1073 174.541 47.0599C176.359 47.9108 178.23 48.379 180.072 49.2054C182.83 50.4349 185.645 51.8109 188.15 53.5778C188.512 53.8343 188.87 54.103 189.22 54.3798C191.498 56.1833 193.531 58.4184 195.602 60.4295C196.537 61.3455 197.44 62.3959 198.457 63.2182C199.14 63.776 199.941 64.1668 200.694 64.6228C201.263 64.9688 200.312 65.0869 200.072 65.1276L200.068 65.1317ZM163.107 40.0617C161.078 39.4591 159.276 38.5106 157.336 37.7778C157.063 37.68 156.734 37.4602 156.835 37.1874C156.888 37.0409 157.047 36.9676 157.193 36.9106C159.764 35.8969 161.639 36.304 164.112 37.4358C166.211 38.3966 169.034 40.1268 170.221 42.4311C167.915 41.4703 165.507 40.7782 163.107 40.0617ZM68.3782 133.172C66.3405 130.844 64.6566 128.263 63.6479 125.274C62.1673 120.894 62.2406 116.33 63.2249 111.86C64.2783 107.056 65.7873 102.293 67.7844 97.8065C69.9198 93.0229 72.6205 88.3167 76.1388 84.4044C76.4479 85.6501 77.0011 86.8104 77.7047 87.8811C74.9999 92.0051 72.8605 96.6707 70.7943 101.141C68.7484 105.582 66.8692 110.211 66.007 115.052C64.921 121.134 65.6124 127.676 68.3742 133.172H68.3782ZM67.9186 117.568C68.7402 112.259 70.6804 107.239 72.9825 102.415C74.9796 98.2259 77.5624 94.1547 79.1893 89.7905C80.0516 90.7553 81.0278 91.6469 82.0405 92.4489C80.3363 94.8061 78.5589 97.1104 77.0051 99.5775C75.244 102.354 73.8 105.367 72.6815 108.461C70.6926 113.973 69.875 120.279 71.7948 125.93C75.1382 135.749 85.3798 140.623 95.1009 141.51C109.052 142.784 123.548 143.969 137.458 141.754C144.641 140.606 151.503 138.172 158.389 135.92C164.954 133.771 171.303 131.418 177.278 127.925C185.799 122.942 193.844 117.039 200.751 109.955C202.687 107.964 204.534 105.888 206.262 103.714C207.486 102.179 208.576 100.538 209.898 99.0808C211.346 97.4808 213.108 96.7033 214.934 95.6041C209.927 102.57 204.513 109.246 198.432 115.308C191.018 122.706 182.704 128.706 173.54 133.734C170.782 135.249 168.082 136.779 165.275 138.204C163.758 138.974 162.302 139.328 160.679 139.727C158.849 140.175 157.043 140.891 155.217 141.388C153.427 141.872 151.637 142.332 149.864 142.874C145.105 144.319 140.55 146.139 135.592 146.827C130.247 147.572 124.724 147.279 119.338 147.556C113.945 147.833 108.535 148.122 103.134 147.698C94.9178 147.055 85.9615 144.918 78.7663 140.798C75.0975 138.705 72.1405 135.908 70.2085 132.118C67.9145 127.615 67.1458 122.555 67.9186 117.576V117.568ZM238.232 112.129C237.386 115.031 234.823 117.352 232.546 119.184C227.063 123.601 220.23 126.618 213.852 129.492C199.384 136.01 184.018 140.732 168.501 143.985C164.462 144.832 160.407 145.671 156.343 146.408C152.821 147.055 148.896 147.629 145.252 147.197C146.403 146.843 147.546 146.465 148.693 146.066C154.029 144.226 159.548 143.012 165.015 141.648C167.663 140.989 170.315 140.765 172.999 140.293C175.769 139.808 178.502 139.161 181.215 138.42C183.611 137.761 185.978 137.028 188.341 136.258C195.439 133.958 202.41 131.206 209.288 128.311C220.852 123.446 231.935 116.904 237.939 105.411C238.427 107.683 238.858 109.991 238.228 112.129H238.232ZM238.35 96.0682C238.342 96.2432 238.325 96.4183 238.309 96.5933C238.028 99.5734 236.833 102.342 235.409 104.939C232.57 110.093 228.539 114.478 223.772 117.902C218.973 121.358 213.604 123.931 208.17 126.223C201.853 128.877 195.455 131.365 188.98 133.62C182.525 135.868 175.924 137.626 169.282 139.226C170.551 138.457 171.787 137.667 173.015 136.942C176.074 135.151 179.165 133.466 182.183 131.634C184.254 131.882 186.535 131.426 188.512 130.974C191.014 130.408 193.417 129.443 195.76 128.409C200.714 126.223 205.424 123.528 210.374 121.317C218.92 117.494 226.969 111.876 231.439 103.429C232.781 100.892 233.599 98.3398 233.892 95.4778C234.055 93.8901 234.087 92.2942 234.229 90.7024C234.278 90.165 234.335 89.5666 234.547 89.074C236.292 89.8312 237.719 91.7853 238.154 93.6092C238.35 94.4316 238.394 95.2377 238.346 96.0641L238.35 96.0682ZM231.789 92.1843C231.606 95.087 231.455 97.9164 230.243 100.603C228.397 104.691 225.627 108.273 222.284 111.245C218.887 114.266 214.938 116.615 210.85 118.561C206.457 120.658 202.105 122.807 197.737 124.949C195.081 126.251 192.368 127.469 189.533 128.328C188.329 128.69 187.113 129.02 185.876 129.256C186.027 129.154 186.182 129.061 186.324 128.951C189.985 126.402 193.462 123.597 196.773 120.609C204.997 117.841 212.92 112.65 219.131 106.608C225.118 100.778 229.052 93.5074 229.702 85.2186C230.203 85.5402 230.691 85.8985 231.146 86.273C231.586 86.6394 231.964 86.9936 232.379 87.3071C231.809 88.8012 231.87 90.8286 231.785 92.1843H231.789ZM222.284 85.9799C220.665 89.4485 216.581 91.8586 213.417 93.7191C205.522 98.3724 196.403 101.108 187.471 102.944C178.185 104.854 168.663 105.709 159.186 105.599C154.179 105.546 149.303 105.065 144.316 104.324C139.696 103.64 135.116 102.737 130.54 101.796C123.21 100.286 114.954 99.4065 108.511 95.2946C107.242 93.1369 106.128 90.8938 105.176 88.5814C109.308 92.3594 115.6 94.0936 120.64 95.8686C125.073 97.4238 129.535 98.8813 134.127 99.8868C138.874 100.929 143.726 101.422 148.566 101.833C158.072 102.647 167.634 102.716 177.103 101.397C182.029 100.709 186.897 99.6467 191.664 98.2136C196.183 96.8457 200.344 94.8468 204.562 92.7583C207.954 91.0892 211.59 89.9044 214.909 88.0928C217.508 86.672 220.592 84.4451 220.575 81.1719C220.604 81.1597 220.632 81.1434 220.653 81.1312C221.385 81.3673 222.068 81.7011 222.458 82.3037C223.158 83.3947 222.788 84.8807 222.279 85.9677L222.284 85.9799ZM221.649 78.8799C221.641 78.9572 221.202 78.6885 221.169 78.6478C221.071 78.5338 221.051 78.0412 221.01 77.8824C220.868 77.288 220.681 76.7059 220.474 76.1278C220.055 74.9471 219.538 73.8032 218.944 72.6958C217.773 70.5056 216.321 68.4537 214.686 66.581C211.855 63.3404 208.219 60.6738 204.009 59.5786C203.59 58.6219 203.081 57.7141 202.65 56.9406C202.431 56.5375 202.199 56.1467 201.967 55.7518C206.108 56.1426 210.146 57.5716 213.685 60.2667C216.662 62.5302 218.997 65.836 220.404 69.2842C221.084 70.9493 221.592 72.7365 221.767 74.5319C221.909 75.9893 221.759 77.4346 221.645 78.8839L221.649 78.8799ZM200.474 52.6211C200.344 52.6211 200.218 52.6211 200.092 52.6211C199.718 51.9941 199.34 51.3631 198.978 50.728C198.937 50.6588 198.904 50.5855 198.864 50.5163C199.396 50.2842 199.917 49.9545 200.426 49.8202C201.865 49.4415 203.382 49.6777 204.717 50.3127C205.929 50.8827 207.039 51.6929 207.934 52.6862C208.304 53.1055 208.605 53.6592 208.93 54.1885C206.189 53.244 203.305 52.7147 200.474 52.6292V52.6211ZM148.88 22.6047C149.665 19.8322 151.369 17.3692 153.154 15.1545C156.071 11.5393 159.711 8.30281 162.375 4.45559C162.806 6.39752 163.136 8.36386 163.457 10.3221C163.941 13.2614 164.364 16.1804 164.258 19.1727C164.14 22.4866 163.262 25.7516 161.529 28.5933C160.663 30.0141 159.605 31.3047 158.41 32.4609C157.71 33.1367 156.978 33.7392 156.299 34.4272C156.014 34.7122 155.632 34.9605 155.233 34.8995C153.834 34.6756 157.031 31.5896 157.372 31.0115C158.503 29.0818 159.231 26.9282 159.788 24.7664C160.504 21.9981 160.899 19.1483 161.122 16.3026C161.228 14.9306 161.289 13.5545 161.289 12.1704C161.289 11.1974 161.537 9.67477 160.948 8.85241C160.553 8.29873 159.768 8.23767 159.382 8.85241C158.898 9.63406 159.125 10.7699 159.117 11.6533C159.101 12.8136 159.056 13.9657 158.995 15.126C158.853 17.76 158.564 20.39 158.003 22.9711C157.315 26.1343 156.266 29.9775 153.826 32.2777C153.756 32.3428 153.675 32.412 153.582 32.412C153.512 32.412 153.443 32.3794 153.386 32.3509C152.508 31.8787 151.629 31.4065 150.852 30.7876C148.4 28.8376 148.07 25.4829 148.884 22.6047H148.88ZM144.08 30.6329C146.045 30.6574 151.605 32.0823 152.154 34.3987C149.738 35.8277 147.098 34.704 144.654 33.9265C142.6 33.2751 141.066 32.6278 139.496 31.15C140.794 30.5922 142.685 30.6166 144.084 30.6329H144.08ZM139.846 40.2937C140.562 41.1731 141.412 41.971 142.238 42.6509C142.038 43.3186 141.863 43.9944 141.737 44.6824C141.689 44.9267 141.66 45.1709 141.623 45.4152C141.392 45.1261 141.156 44.8452 140.928 44.5684C139.569 42.8992 138.048 41.3726 136.397 39.9965C134.884 38.7467 133.281 37.623 131.553 36.703C131.244 36.5361 130.914 36.3569 130.568 36.1697C131.52 36.1697 132.476 36.2348 133.416 36.3732C134.123 36.475 134.835 36.6297 135.531 36.8211C136.385 37.2444 137.214 37.5783 138.134 37.8917C138.223 37.9243 138.321 37.9569 138.398 38.022C138.496 38.0994 138.549 38.2174 138.597 38.3355C138.911 39.0154 139.346 39.6708 139.85 40.2896L139.846 40.2937ZM92.4693 29.9042C91.1433 28.3775 89.9556 26.7409 88.9347 25.4219C88.772 25.2183 88.6093 24.9741 88.6622 24.7176C88.6948 24.5629 88.7964 24.4408 88.8981 24.3227C90.2851 22.7064 91.7656 21.3874 93.5797 20.2434C96.8946 18.159 100.6 16.6649 104.358 15.5901C112.408 13.2859 120.616 12.9317 128.124 17.1738C130.345 18.4277 132.33 19.9544 134.107 21.7904C135.62 23.3537 137.145 24.8316 138.488 26.5862C139.236 27.5714 139.289 28.4182 138.187 29.0452C137.442 29.4686 136.373 29.8472 135.502 29.7414C132.386 29.3831 129.596 27.2091 126.896 25.8209C123.597 24.1232 120.225 22.625 116.503 22.1935C108.735 21.3019 100.856 23.6102 93.6529 26.2524C93.4536 26.3216 93.5309 26.5944 93.7342 26.5618C101.58 25.3771 109.772 22.4825 117.756 24.1558C121.466 24.9293 124.955 26.7572 128.132 28.7806C130.133 30.0508 132.883 30.9098 133.989 33.1082C132.191 33.3809 130.227 32.986 128.392 33.1285C123.349 33.5153 118.468 34.9727 113.469 35.6526C108.539 36.3203 102.983 36.6297 98.3914 34.3661C98.2897 34.301 98.1799 34.244 98.0538 34.2033C95.9876 33.5153 94.1166 31.7973 92.4652 29.9042H92.4693ZM306.303 111.685C304.115 126.174 296.875 139.536 287.39 150.54C277.234 162.318 264.56 171.583 250.3 177.743C234.734 184.469 217.838 187.717 201.117 189.969C192.657 191.109 184.152 191.923 175.655 192.684C166.874 193.47 158.1 194.512 149.303 195.017C129.865 196.132 110.288 195.086 91.1189 191.626C75.1951 188.751 59.5114 184.351 45.0518 176.974C37.9624 173.354 31.1536 169.096 25.1868 163.808C22.421 161.361 19.8992 159.427 17.6133 156.459C15.2014 153.324 12.9806 150.043 10.9673 146.636C8.19331 141.95 4.95161 136.56 3.91037 131.145C3.3206 128.059 3.10503 124.916 3.12536 121.781C3.22298 110.435 6.83887 99.9724 12.582 90.2953C23.3402 72.1666 39.931 56.8469 58.9745 47.7642C60.7844 46.9011 62.6188 46.091 64.4735 45.3338C69.5293 43.2656 74.7437 41.5802 80.0597 40.3304C82.7157 39.7034 85.4002 39.1864 88.1009 38.7874C89.4432 38.5879 90.7935 38.4169 92.1439 38.2785C93.0672 38.1849 94.3728 37.8917 95.2229 38.0464C94.8772 38.4536 94.0515 38.7263 93.5268 38.8444C92.5099 39.0602 91.4972 39.3044 90.5007 39.5935C88.6012 40.1349 86.7424 40.8148 84.9609 41.6657C81.3125 43.4122 77.7576 45.7938 75.0731 48.8553C73.8733 50.2313 72.7995 51.7621 72.1405 53.4842C70.6356 57.3925 72.1283 61.3292 74.162 64.753C74.1702 64.7693 74.1783 64.7815 74.1864 64.7937C73.0516 65.2701 71.9535 65.8441 70.9285 66.5443C68.3701 68.3031 66.3405 70.7295 65.5067 73.7665C65.1406 75.0937 65.0674 77.0153 66.2673 77.9883C67.882 79.2951 69.8587 77.1008 71.0383 76.2255C72.7506 74.9471 74.3085 73.453 76.1347 72.3335C76.4601 72.1381 76.7977 71.9467 77.1353 71.7676C76.9685 72.6673 76.9685 73.62 77.0336 74.4423C77.0905 75.1141 77.5868 76.2703 77.4688 76.8891C77.4444 76.999 77.3956 77.1008 77.3427 77.2025C77.1516 77.5811 75.4433 82.1205 75.8988 82.1205C75.7158 82.149 75.5368 82.2304 75.366 82.3932C67.8576 89.6968 63.5503 100.188 61.48 110.317C60.5363 114.962 60.1011 119.673 61.3091 124.318C62.3829 128.458 64.6322 132.252 67.4143 135.464C69.7896 138.208 72.7832 140.851 75.8907 142.731C78.6117 144.376 81.6216 145.459 84.6274 146.448C89.858 148.17 95.2229 149.652 100.669 150.719C103.297 151.236 105.875 152.014 108.515 152.51C111.313 153.039 114.136 153.451 116.967 153.797C117.195 153.825 117.423 153.854 117.65 153.878C124.484 154.66 131.329 154.819 138.199 154.493C150.983 153.89 163.88 152.641 176.566 150.931C199.266 147.873 223.333 141.396 239.814 124.436C244.138 119.99 247.131 114.563 247.066 108.229C247.029 103.921 245.232 97.892 240.855 96.3694C241.164 93.0433 240.127 90.3849 237.837 88.0236C236.963 87.1198 235.97 86.1549 234.718 86.0654C234.534 86.0532 234.323 86.0491 234.189 85.9229C234.111 85.8456 234.071 85.7397 234.03 85.6339C233.367 83.9688 231.061 82.8899 229.536 82.1368C228.372 81.5668 226.091 80.3007 224.545 80.6182C226.213 77.5119 225.59 73.4286 224.553 70.2043C223.439 66.7357 221.555 63.5113 219.139 60.7918C216.902 58.2677 214.063 56.3299 210.952 54.9701C211.139 53.7081 209.939 52.2832 209.203 51.3875C208.097 50.0318 206.706 48.9286 205.066 48.3138C203.561 47.752 201.922 47.5892 200.352 47.9474C199.701 48.1021 198.709 48.383 198.001 48.8716C197.277 47.3734 196.635 45.8467 195.866 44.3648C192.73 38.3396 185.97 34.4964 179.584 32.8761C176.802 32.1678 173.882 31.7606 170.982 31.7688C173.634 31.3372 176.261 31.2639 178.954 31.3779C184.774 31.6181 190.591 32.4202 196.383 33.0227C202.174 33.6252 207.97 34.3173 213.685 35.4531C219.261 36.5564 224.687 38.2704 230.158 39.8052C241.006 42.8504 251.788 46.0299 262.071 50.6914C271.279 54.8683 280.553 59.7333 288.358 66.2431C291.653 68.9951 294.772 71.9834 297.526 75.285C300.568 78.9369 303.106 83.5616 304.542 88.0969C304.965 89.9696 305.388 91.8464 305.945 93.6662C307.084 99.5897 307.19 105.729 306.287 111.685H306.303Z" fill="#713D11"/>
<path d="M50.4453 124.965C50.2744 123.483 50.2175 121.997 50.0995 120.511C50.0344 119.709 50.1524 117.136 48.7776 117.311C47.4842 117.478 47.655 119.957 47.6428 120.833C47.6225 122.421 47.7852 124.02 47.9845 125.596C48.196 127.277 48.5133 128.955 49.0583 130.563C49.3308 131.365 49.6603 132.155 50.0711 132.896C50.2338 133.189 50.4941 133.828 50.8276 133.962C51.9705 134.41 51.275 130.909 51.2059 130.331C50.9821 128.539 50.6527 126.764 50.4453 124.969V124.965Z" fill="#713D11"/>
<path d="M241.583 63.6945C241.27 63.3199 240.843 62.9902 240.546 62.8192C240.253 62.6482 239.92 62.5342 239.578 62.5505C238.748 62.5993 238.431 63.267 238.748 63.9754C239.045 64.6349 239.664 65.0583 240.261 65.4329C240.904 65.8318 241.958 65.3799 241.978 64.5657C241.986 64.2848 241.815 63.9754 241.579 63.6904L241.583 63.6945Z" fill="#713D11"/>
<path d="M256.811 68.6736C256.71 68.4171 256.58 68.1728 256.319 68.0344C256.104 67.9204 255.88 67.8756 255.64 67.9082C254.721 68.0303 253.777 69.8257 254.859 70.3916C255.302 70.6236 255.852 70.5503 256.279 70.3183C256.836 70.017 257.043 69.2517 256.811 68.6736Z" fill="#713D11"/>
<path d="M273.736 87.3437C273.524 88.1254 273.333 88.907 273.114 89.6846C273.081 89.7986 273.004 89.9451 272.89 89.9166C272.841 89.9044 272.805 89.8678 272.772 89.8311C271.926 88.8622 271.145 87.8281 270.303 86.8674C269.477 85.9229 267.773 86.9203 268.18 88.105C268.721 89.6805 269.961 90.7593 271.08 91.8993C272.329 93.1735 272.833 94.5537 273.423 96.1984C273.777 97.1836 274.761 97.6396 275.4 96.6381C276.058 95.5999 275.644 93.5318 275.782 92.339C275.949 90.9182 276.294 89.5218 276.51 88.1091C276.53 87.9829 276.555 87.8566 276.567 87.7264C276.758 86.0816 274.163 85.8211 273.736 87.3437Z" fill="#713D11"/>
</svg>
