<svg width="290" height="221" viewBox="0 0 290 221" fill="none" xmlns="http://www.w3.org/2000/svg">
<g clip-path="url(#clip0_1_71)">
<path d="M287.238 97.0102C283.902 88.3044 277.713 80.4108 270.094 75.0089C263.475 70.3146 255.691 68.102 247.762 66.8462C244.525 66.3329 241.268 65.9692 238.006 65.6353C237.726 62.1918 237.281 58.7782 236.636 55.3397C235.91 51.4677 235.23 48.2734 232.198 45.5774C227.25 41.1772 222.278 36.8118 217.3 32.4514C212.712 28.4348 208.35 23.9997 203.467 20.3419C199.445 17.327 195.403 14.357 191.466 11.2324C189.289 9.5082 187.118 7.77899 184.962 6.02487C181.11 2.89036 176.763 -0.637823 171.605 0.0997078C165.371 0.986738 159.278 2.6711 153.139 4.02656C147.762 5.21259 142.444 6.62287 137.046 7.70424C122.588 10.5996 108.13 13.2905 93.7667 16.6393C89.7045 17.5862 85.6423 18.533 81.58 19.4798C77.3927 20.4565 73.0053 20.9449 69.0231 22.5495C68.0676 22.9333 67.082 23.4067 66.5217 24.2738C65.8063 25.385 65.8413 27.1143 65.6762 28.3999C65.3711 30.767 65.3611 33.1441 65.3961 35.5261C65.4761 40.5044 65.281 45.4229 64.9158 50.3913C64.5206 55.7334 64.5106 61.0656 64.3255 66.4176C64.2755 67.8479 64.1804 69.2731 64.0653 70.6933C56.5962 73.3793 49.5623 76.9374 42.8286 81.1384C40.4423 82.6284 38.096 84.1881 35.7997 85.8326C35.4145 85.0602 35.0293 84.2878 34.6391 83.5204C33.8837 82.0304 33.1183 80.5404 32.3729 79.0454C31.7625 77.8294 30.9321 76.2398 29.5463 75.7016C29.001 75.4075 28.3556 75.3029 27.6452 75.4972C26.6547 75.7663 25.7392 76.7879 25.6291 77.8643C25.404 79.9623 26.3996 81.4972 27.3551 83.2164C28.5257 85.3293 29.3412 87.7363 30.3117 89.9489C29.8915 90.3625 23.638 95.3557 23.9932 95.879C21.8821 92.7794 20.1261 87.5369 16.7993 85.6084C16.2339 85.2795 15.4985 84.9257 14.8282 85.1449C12.2668 85.9921 14.2579 89.914 14.9883 91.389C16.5341 94.5086 18.23 97.5085 19.7209 100.668C17.0794 103.135 14.7531 105.98 12.787 109.005C11.8165 107.052 10.886 105.078 9.9805 103.105C8.84487 100.628 7.82431 98.0966 6.66867 95.6298C5.70314 93.5717 4.62755 91.6531 3.54195 89.6698C2.53639 87.8309 -0.590333 89.0768 0.100048 91.1149C0.770417 93.0983 1.29571 95.1066 2.0061 97.0949C2.85657 99.467 3.84712 101.799 4.82265 104.121C6.29847 107.635 7.86433 111.108 9.61029 114.492C5.74316 122.116 3.73705 130.513 5.2679 139.124C7.74427 153.077 19.0655 163.488 30.7069 170.519C40.8725 176.659 51.9837 180.75 63.45 183.56C66.0414 188.349 68.5228 193.198 70.739 198.171C72.9853 203.215 75.1665 208.283 78.2281 212.902C80.3443 216.096 83.471 221.09 87.8735 221.01C90.8401 220.96 92.6811 218.209 92.9313 215.508C93.2364 212.229 91.3104 209.678 89.8496 206.902C88.5138 204.361 86.988 201.919 85.3621 199.552C82.5956 195.52 80.2943 191.105 78.048 186.765C79.1537 187.158 80.3293 187.303 81.495 187.447C98.9396 189.59 116.774 190.228 134.379 189.461C135.375 189.416 136.375 189.371 137.371 189.316C155.861 188.349 174.111 185.638 192.366 182.693C207.77 180.207 223.238 177.281 237.926 171.894C252.324 166.612 266.032 158.878 276.037 147.068C287.744 133.249 293.957 114.517 287.243 97.0202L287.238 97.0102ZM233.994 70.2C234.004 71.8644 234.079 73.5288 234.284 75.1933C234.925 80.341 234.95 85.4738 235.035 90.6116C235.035 90.8508 235.035 91.11 234.895 91.3093C234.775 91.4837 234.569 91.5784 234.374 91.6581C232.568 92.4256 230.617 92.7844 228.686 93.1382C224.994 93.8159 220.487 94.3989 217.37 91.7528C216.089 90.6665 215.694 88.8226 215.479 87.2379C214.563 80.5204 217.535 72.3627 222.363 67.5538C225.289 64.6386 229.342 62.7499 233.479 62.8695C233.829 65.3861 233.979 67.6186 233.994 70.195V70.2ZM234.139 110.774C233.464 110.146 232.738 109.583 232.098 109.095C230.572 107.934 228.766 107.037 226.93 106.488C222.948 105.297 218.726 105.711 214.864 107.131C208.085 109.633 202.031 115.09 199.055 121.678C198.8 122.246 198.58 122.814 198.394 123.382C198.254 123.183 198.114 122.978 197.969 122.779C195.353 119.256 191.606 116.455 187.253 115.523C178.288 113.6 167.863 118.533 161.899 125.101C159.898 127.304 157.532 130.782 157.052 134.156C155.521 131.948 153.415 130.084 151.218 128.689C142.359 123.063 130.537 124.653 122.583 131.171C119.861 133.398 117.2 136.358 115.734 139.697C115.664 138.671 115.594 137.644 115.529 136.618C115.179 131.081 114.713 125.555 114.433 120.018C114.328 117.98 114.258 115.942 114.218 113.909C114.308 113.958 114.408 113.993 114.518 114.003C117.595 114.223 120.176 112.369 122.092 110.146C122.843 109.274 124.023 107.724 124.694 106.145C125.554 108.417 127.115 110.351 129.587 111.611C133.889 113.804 138.877 113.365 143.519 112.797C147.636 112.294 151.744 111.586 155.771 110.6C160.388 109.468 166.002 108.073 169.113 104.211C169.283 104.002 169.408 103.788 169.504 103.568C172.205 105.691 175.937 106 179.274 105.935C185.868 105.811 192.651 104.41 199.02 102.706C202.582 101.754 206.569 100.683 209.731 98.7394C211.267 97.7976 212.747 96.5517 213.688 94.9969C213.973 94.5285 214.153 94.0701 214.253 93.6265C215.499 95.0667 217.28 96.0584 219.746 96.3574C221.042 96.5169 222.333 96.3574 223.628 96.4022C225.334 96.4571 227.085 96.2976 228.776 96.0783C230.422 95.864 232.048 95.5351 233.614 94.992C234.034 94.8475 234.409 94.688 234.76 94.5086C234.439 99.9304 233.969 105.367 234.134 110.774H234.139ZM234.299 124.702C234.029 125.271 233.399 125.565 232.813 125.804C225.965 128.589 218.606 129.94 211.247 130.663C209.341 130.852 207.364 130.991 205.553 130.378C195.578 127.01 206.994 116.111 211.382 113.271C214.879 111.003 219.126 109.538 223.333 109.977C225.194 110.171 226.995 110.814 228.581 111.801C231.988 113.914 233.594 117.522 234.194 121.299C234.304 122.002 234.384 122.714 234.434 123.422C234.464 123.855 234.484 124.314 234.299 124.707V124.702ZM185.767 136.538C182.511 137.201 179.254 137.863 176.002 138.526C173.06 139.124 170.134 139.812 167.157 140.166C165.216 140.4 162.31 142.388 161.054 140.295C158.592 136.194 160.824 131.455 163.695 128.211C166.367 125.191 169.859 122.928 173.526 121.289C177.148 119.669 181.24 118.503 185.237 119.031C190.81 119.764 195.693 124.543 197.229 129.89C197.329 130.244 197.419 130.598 197.489 130.952C198.705 137.011 189.745 135.731 185.772 136.543L185.767 136.538ZM155.971 142C155.856 142.543 155.476 142.936 155.001 143.235C154.635 143.465 154.215 143.644 153.815 143.794C143.489 147.656 132.628 150.092 121.637 151.004C121.022 151.054 120.381 151.099 119.801 150.895C117.275 150.003 117.33 145.627 117.86 143.574C118.776 140.056 121.002 137.066 123.668 134.644C130.042 128.854 140.077 127.06 147.812 131.295C149.893 132.437 151.954 133.907 153.345 135.855C154.14 136.971 156.246 140.684 155.971 141.995V142ZM104.858 98.4554C103.127 96.7112 101.396 94.972 99.63 93.2628C96.3482 90.0834 93.6867 86.311 90.3548 83.1865C89.1142 82.0254 87.7834 80.949 86.7178 79.6284C86.5227 79.3892 86.3376 79.1301 86.2776 78.8311C86.1926 78.3975 86.3927 77.964 86.6128 77.5803C88.0035 75.1534 90.625 72.8411 93.5616 73.2647C96.7034 73.7182 99.5249 75.5969 101.586 77.9441C102.547 79.0354 103.297 80.2613 104.187 81.4025C108.02 86.316 108.56 93.0784 109.27 99.0633C109.43 100.404 109.585 101.754 109.485 103.1C107.93 101.555 106.394 100 104.858 98.4554ZM114.063 98.4604C114.068 96.482 114.063 94.5086 113.928 92.5551C113.818 91.0302 113.823 89.4356 113.873 87.9157C114.283 87.8957 114.633 88.1848 114.923 88.4738C116.589 90.1382 117.73 92.2462 118.846 94.3242C121.272 98.8441 122.453 102.985 119.211 107.435C118.265 108.736 116.719 109.718 115.119 109.553C115.003 109.543 114.883 109.518 114.798 109.444C114.703 109.359 114.673 109.224 114.653 109.1C114.008 105.606 114.053 102.033 114.068 98.4653L114.063 98.4604ZM130.167 92.8242C132.523 88.3044 136.575 84.4473 141.373 82.6134C144.42 81.4473 147.696 80.7546 150.938 80.4307C154.805 80.047 161.354 79.2995 164.386 82.3045C166.362 84.2629 166.472 87.5768 166.542 90.1681C166.612 92.9239 166.892 96.183 166.272 98.874C165.862 100.658 164.791 102.332 163.41 103.459C160.564 105.786 156.746 106.454 153.109 107.037L141.098 108.975C137.366 109.578 133.008 109.992 130.322 107.341C126.61 103.673 128.041 96.9056 130.172 92.8242H130.167ZM178.463 77.9789C183.601 75.1534 189.94 73.9624 195.763 74.6301C198.67 74.964 201.571 75.8062 204.023 77.4258C207.049 79.4241 209.756 83.5353 210.281 87.527C210.641 90.2678 209.976 92.9488 207.685 94.8475C206.934 95.4704 206.074 95.9488 205.218 96.4272C198.82 99.9852 190.95 100.957 183.736 101.939C180.279 102.412 176.337 102.746 173.721 100.449C172.695 99.5467 172.005 98.3308 171.435 97.0949C167.993 89.61 171.42 81.846 178.463 77.974V77.9789ZM218.085 42.9213C218.34 42.6173 218.746 42.3831 219.131 42.4878C219.451 42.5775 219.666 42.8715 219.931 43.0708C220.227 43.3001 220.602 43.4147 220.892 43.6489C221.232 43.923 221.442 44.3266 221.777 44.6107C222.303 45.0492 222.603 45.1439 221.892 45.6621C221.787 45.7369 221.677 45.8067 221.552 45.8515C221.362 45.9163 221.152 45.9163 220.952 45.9113C220.587 45.9063 220.217 45.9013 219.861 45.8266C219.646 45.7817 219.416 45.7469 219.186 45.702C218.601 45.5874 218.03 45.413 217.77 44.8299C217.495 44.207 217.64 43.4396 218.075 42.9213H218.085ZM204.783 40.7386C204.708 40.8682 204.278 41.3017 203.727 41.8449C203.172 42.3981 202.612 42.9462 202.061 43.5093C201.726 43.8582 201.316 44.6057 200.801 44.6605C200.336 44.7103 200.135 43.9927 200.015 43.6489C199.88 43.2602 199.59 42.8665 199.19 42.717C198.81 42.5775 198.429 42.9114 198.104 42.7569C197.809 42.6173 199.095 39.3931 199.225 38.9397C199.305 38.6606 199.43 38.3765 199.67 38.2121C199.715 38.1822 199.775 38.1523 199.83 38.1623C199.915 38.1722 199.97 38.2619 200.005 38.3417C200.541 39.5426 199.6 41.2669 200.991 41.9894C201.666 42.3383 202.477 42.2336 202.972 41.6456C203.252 41.3117 203.422 40.9031 203.627 40.5194C203.837 40.1356 204.103 39.7569 204.493 39.5676C204.548 39.5426 204.603 39.5177 204.663 39.5177C204.783 39.5177 204.883 39.6174 204.933 39.727C205.093 40.0509 204.953 40.4396 204.773 40.7486L204.783 40.7386ZM196.984 23.7057C197.019 23.4515 197.109 23.1824 197.314 23.023C197.374 22.9731 197.439 22.9333 197.499 22.9083C197.924 22.714 198.329 22.9881 198.685 23.2472C200.105 24.2937 201.476 25.405 202.812 26.5561C203.352 27.0196 204.133 27.5029 204.573 28.0511C205.068 28.669 204.893 29.7405 204.698 30.4431C204.563 30.9265 204.223 31.375 203.978 31.8135C203.842 32.0527 203.587 32.5461 203.232 32.4015C203.087 32.3417 202.987 32.2022 202.907 32.0677C202.607 31.5394 202.647 30.7222 202.182 30.3385C201.741 29.9797 201.066 29.9697 200.551 30.1491C199.69 30.4481 199.325 31.5245 198.77 32.2022C198.62 32.3866 198.449 32.576 198.219 32.6308C198.129 32.6557 198.029 32.6507 197.954 32.5959C197.619 32.3467 197.914 31.8833 197.994 31.6042C198.124 31.1358 198.159 30.6175 198.234 30.1391C198.364 29.3567 198.495 28.5744 198.61 27.792C198.7 27.204 198.88 26.581 198.635 26.008C198.464 25.6193 198.144 25.2953 197.749 25.1259C197.564 25.0462 197.364 25.0013 197.199 24.8817C196.879 24.6525 196.929 24.0545 196.979 23.7057H196.984ZM195.103 47.501C195.478 47.3365 195.718 47.4412 196.008 47.0874C196.048 47.0375 196.083 46.9877 196.123 46.9329C196.393 46.5342 196.483 45.9861 197.039 45.8914C197.124 45.8764 197.209 45.8764 197.284 45.9063C197.364 45.9362 197.424 45.996 197.489 46.0459C197.789 46.2801 198.174 46.3598 198.53 46.4944C199.125 46.7236 200.646 47.79 199.77 48.4179C199.32 48.7418 198.63 48.7219 198.099 48.8365C197.539 48.9561 196.979 49.0807 196.418 49.2003C195.673 49.3598 194.898 49.594 194.137 49.6588C194.092 49.6588 194.042 49.6637 194.012 49.6289C193.977 49.594 193.992 49.5342 194.007 49.4893C194.217 48.8116 194.362 47.8149 195.098 47.491L195.103 47.501ZM186.138 19.5446C186.358 18.9416 186.583 18.3337 186.798 17.7257C186.938 17.327 187.063 16.5945 187.378 16.2955C187.553 16.126 187.794 16.0363 188.024 15.9666C188.264 15.8918 188.514 15.832 188.764 15.8669C189.244 15.9317 189.75 16.4549 190.11 16.739C190.7 17.2024 191.291 17.6609 191.881 18.1194C192.446 18.5529 193.011 18.9865 193.577 19.42C194.067 19.7938 194.257 20.2373 194.252 20.7107C194.252 21.8967 193.036 23.2572 192.491 24.1342C192.311 24.4183 191.506 26.2571 191 25.7987C190.875 25.684 190.885 25.4897 190.895 25.3203C190.955 24.1691 190.985 22.998 190.875 21.8419C190.82 21.224 190.425 20.3818 189.755 20.2622C189.039 20.1376 188.209 20.5363 187.644 20.925C187.033 21.3436 186.458 21.8569 185.747 22.0662C185.682 22.0861 185.602 22.101 185.547 22.0662C185.492 22.0313 185.472 21.9565 185.462 21.8868C185.357 21.1243 185.878 20.2423 186.138 19.5496V19.5446ZM193.632 42.9413C193.657 43.315 193.717 43.7037 193.597 44.0625C193.542 44.2269 193.472 44.3416 193.392 44.4113C193.157 44.6206 192.861 44.4263 192.741 44.0326C192.541 43.3599 192.446 42.6373 192.331 41.9446C192.286 41.6755 192.246 41.3964 192.321 41.1373C192.431 40.7586 192.766 40.4895 192.931 40.1307C193.057 39.8616 193.222 38.5011 193.777 38.7453C194.087 38.8799 193.737 40.3898 193.707 40.7087C193.637 41.4512 193.567 42.1938 193.622 42.9413H193.632ZM190.805 35.252C190.43 36.2786 190.04 37.3051 189.645 38.3267C189.059 39.5676 188.604 40.7586 188.184 42.0592C188.139 42.2037 188.089 42.3532 187.984 42.4629C187.884 42.5725 187.714 42.6423 187.574 42.5775C187.473 42.5326 187.408 42.433 187.348 42.3433C187.083 41.9296 186.618 41.6755 186.363 41.2569C186.018 40.6888 186.358 40.3798 186.653 39.8765C187.403 38.5908 188.274 37.3749 189.014 36.0842C189.42 35.3816 189.86 34.6989 190.245 33.9862C190.475 33.5627 190.75 32.8002 191.261 32.6557C191.361 32.6258 191.481 32.6358 191.556 32.7055C191.876 33.0045 190.94 34.8832 190.805 35.252ZM187.173 25.0362C187.964 24.6575 187.538 25.5644 187.433 25.9531C187.178 26.88 187.038 27.8817 186.898 28.8285C186.723 30.0195 186.638 31.38 186.203 32.5162C186.123 32.7304 186.013 32.9497 185.818 33.0793C185.783 33.1042 185.742 33.1241 185.702 33.1191C185.637 33.1142 185.597 33.0544 185.567 32.9995C185.242 32.4314 185.337 31.7288 185.312 31.071C185.302 30.8169 185.262 30.5378 185.077 30.3684C184.927 30.2288 184.707 30.189 184.532 30.0793C184.352 29.9697 184.247 29.8351 184.202 29.6807C183.977 28.9581 184.997 27.8617 185.327 27.3933C185.823 26.6807 186.358 25.4299 187.178 25.0362H187.173ZM178.318 12.5181C178.448 12.0148 178.694 11.5314 178.894 11.053C179.179 10.3653 179.439 9.67764 179.729 8.98994C179.754 8.92516 179.789 8.86037 179.829 8.80057C179.899 8.69592 179.994 8.61619 180.114 8.63114C180.204 8.64111 180.279 8.70091 180.35 8.76071C181.615 9.8371 182.876 10.9085 184.142 11.9849C184.507 12.2939 184.887 12.6278 185.062 13.0713C185.377 13.8736 184.752 14.1527 184.377 14.6958C183.816 15.5031 183.366 16.4151 182.866 17.2622C182.246 18.3187 181.695 19.5097 180.915 20.4565C180.815 20.5811 180.66 20.7107 180.51 20.6509C180.36 20.5911 180.335 20.3918 180.35 20.2323C180.43 19.3801 180.83 18.5629 180.92 17.6808C181.05 16.435 181.23 15.0945 180.95 13.8537C180.905 13.6444 180.84 13.4351 180.7 13.2756C180.505 13.0563 180.194 12.9766 179.899 12.9367C179.484 12.8769 179.059 12.857 178.639 12.8869C178.538 12.8919 178.423 12.8969 178.353 12.8271C178.278 12.7474 178.293 12.6228 178.323 12.5131L178.318 12.5181ZM182.516 32.4813C182.401 33.1341 181.945 33.6723 181.55 34.2055C181.195 34.6889 180.995 35.1424 180.865 35.7204C180.84 35.835 180.82 35.9746 180.785 36.1191C180.72 36.3782 180.615 36.6423 180.38 36.7221C180.244 36.7669 180.119 36.6224 180.074 36.4879C179.949 36.149 179.999 35.7703 180.054 35.4115C180.144 34.7886 180.239 34.1557 180.45 33.5577C180.73 32.7653 181.355 32.4464 182.135 32.1574C182.236 32.1225 182.351 32.0876 182.436 32.1474C182.541 32.2122 182.541 32.3617 182.521 32.4863L182.516 32.4813ZM178.463 51.3581C178.669 50.9744 179.034 49.7235 179.639 49.8581C179.964 49.9279 180.159 50.4262 180.375 50.6504C180.635 50.9295 180.96 51.1538 181.325 51.2734C182.105 51.5225 182.831 51.1936 183.211 50.476C183.441 50.0425 183.831 48.8465 184.542 49.1704C184.847 49.3099 184.907 49.6488 185.282 49.7684C185.732 49.9079 186.263 49.8282 186.678 49.6139C188.024 48.9212 188.199 47.4113 189.134 46.3598C189.254 46.2253 189.404 46.0957 189.585 46.0758C190.23 46.016 190.26 47.6754 190.255 48.0641C190.235 49.3448 190.48 50.8099 188.839 51.0342C187.824 51.1737 186.798 51.4926 185.798 51.7069C183.866 52.1205 181.93 52.5142 179.989 52.8929C179.534 52.9826 178.348 53.4261 177.908 53.1072C177.358 52.7085 178.268 51.7268 178.468 51.3581H178.463ZM175.102 8.66104C175.197 8.22251 175.452 7.84876 175.582 7.4202C175.742 6.9119 175.687 6.43848 176.132 6.0448C176.132 6.0448 176.142 6.03483 176.147 6.03483C176.527 5.71092 177.133 5.63617 177.528 5.94015C177.573 5.97503 177.618 6.01988 177.638 6.0747C177.688 6.22918 177.523 6.36373 177.378 6.42353C176.923 6.62287 176.327 6.69762 176.102 7.19595C175.937 7.55973 175.862 8.02816 175.717 8.41686C175.652 8.59127 175.552 9.10456 175.317 9.14442C175.047 9.18927 175.067 8.85041 175.107 8.66104H175.102ZM171.98 28.1259C173.301 25.5744 174.351 22.9382 175.887 20.4914C176.042 20.2423 176.262 19.9632 176.557 19.9981C176.788 20.023 176.958 20.2522 176.988 20.4864C177.018 20.7157 176.948 20.9499 176.873 21.1692C176.052 23.7156 175.232 26.2621 174.406 28.8086C174.351 28.983 174.296 29.1574 174.196 29.3069C173.816 29.885 172.985 29.9149 172.385 30.2587C171.63 30.6923 171.29 31.5893 171.079 32.4314C170.869 33.2736 170.699 34.1756 170.119 34.8234C170.034 34.9181 169.934 35.0128 169.809 35.0377C169.544 35.0975 169.298 34.8185 169.288 34.5494C169.263 34.0411 169.704 33.5776 169.749 33.0394C169.834 32.0677 169.784 30.9016 170.179 29.9896C170.269 29.7803 170.359 29.6009 170.474 29.4415C170.589 29.282 170.729 29.1524 170.924 29.0478C171.39 28.7936 171.72 28.6342 171.98 28.1259ZM173.761 53.4909C173.761 53.6155 173.741 53.7251 173.716 53.8099C173.566 54.3182 173.096 54.2285 172.55 54.2683C170.874 54.3979 169.223 54.9211 167.552 54.961C167.357 54.961 167.142 54.9461 167.007 54.8065C166.777 54.5673 167.212 53.7301 167.312 53.471C167.477 53.0474 167.648 52.0159 167.973 51.7268C168.103 51.6122 168.313 51.6621 168.433 51.7866C168.733 52.1006 168.643 52.6089 168.893 52.9428C169.153 53.2866 169.669 53.466 170.079 53.5109C171.019 53.6155 171.945 53.0972 172.315 52.2252C172.68 51.3531 173.06 50.5308 173.496 49.7036C173.541 49.6239 173.591 49.5342 173.676 49.5043C173.781 49.4694 173.896 49.5392 173.951 49.6388C174.126 49.9578 173.931 50.471 173.881 50.7999C173.816 51.2136 173.731 51.6272 173.686 52.0458C173.636 52.5391 173.776 53.0026 173.761 53.4859V53.4909ZM168.733 9.36369C168.908 8.46171 169.328 7.6295 169.759 6.81721C169.854 6.63283 169.954 6.44845 170.104 6.30393C170.184 6.22918 170.419 6.14447 170.624 6.1345C170.794 6.12453 170.939 6.15942 170.974 6.28898C171.009 6.42353 170.939 6.56307 170.869 6.68267C170.334 7.5996 169.829 8.54642 169.243 9.43844C169.188 9.52315 169.128 9.60787 169.043 9.6577C168.958 9.70754 168.833 9.70754 168.768 9.6278C168.708 9.55804 168.718 9.44841 168.738 9.35871L168.733 9.36369ZM165.556 24.2787C165.927 24.5478 166.437 24.5528 166.882 24.4332C167.327 24.3136 167.733 24.0844 168.163 23.9199C168.493 23.7954 168.888 23.7106 169.173 23.9199C169.233 23.9648 169.283 24.0146 169.328 24.0744C169.378 24.1442 169.418 24.2239 169.448 24.3086C169.544 24.5777 169.509 24.9216 169.273 25.086C169.138 25.1757 168.968 25.1907 168.808 25.1957C168.093 25.2056 167.002 24.9664 166.497 25.5894C165.912 26.3119 165.997 27.3684 165.706 28.2056C165.656 28.3501 165.591 28.4896 165.486 28.5943C165.376 28.6989 165.211 28.7538 165.071 28.6989C164.986 28.6641 164.916 28.5943 164.866 28.5146C164.626 28.1358 164.791 27.6425 164.741 27.194C164.706 26.8402 164.521 26.5013 164.246 26.2721C164.096 26.1475 163.925 26.0578 163.795 25.9133C163.455 25.5345 163.64 25.1209 163.86 24.7621C164.036 24.4681 164.441 23.8452 164.821 23.8253C165.116 23.8103 165.321 24.0993 165.561 24.2738L165.556 24.2787ZM161.674 11.5563C161.834 10.5846 162.28 9.85205 162.74 9.00489C163.115 8.31719 163.125 7.47501 163.555 6.77735C163.65 6.62287 163.78 6.47835 163.93 6.3737C164.081 6.26905 164.251 6.19928 164.436 6.18433C164.546 6.17935 164.676 6.19928 164.736 6.29397C164.771 6.35377 164.776 6.42852 164.771 6.4933C164.726 7.13615 164.276 7.84876 164.016 8.42683C163.695 9.14442 163.375 9.86202 163.05 10.5796C162.855 11.0181 162.655 11.4567 162.39 11.8553C162.27 12.0298 162.079 12.2141 161.879 12.1444C161.664 12.0696 161.649 11.7706 161.684 11.5464L161.674 11.5563ZM162.36 48.677C162.48 48.3282 162.8 46.6638 163.245 46.6688C163.275 46.6688 163.3 46.6688 163.325 46.6787C163.825 46.7983 163.34 48.1189 163.28 48.408C163.115 49.2551 162.95 50.1023 162.785 50.9494C162.62 51.8116 162.455 52.6737 162.29 53.5408C162.159 54.2334 162.21 54.8962 162.119 55.5989C162.104 55.7284 162.079 55.868 161.979 55.9477C161.839 56.0623 161.634 55.9975 161.454 55.9926C161.339 55.9926 161.224 56.0125 161.109 56.0075C160.804 55.9975 160.524 55.7882 160.393 55.5142C160.103 54.9012 160.544 54.059 160.739 53.476C160.989 52.7285 161.239 51.981 161.494 51.2385C161.784 50.3863 162.069 49.5342 162.365 48.687L162.36 48.677ZM159.393 21.7921C159.868 21.1891 160.328 20.5761 160.794 19.9682C160.829 19.9233 160.854 19.8934 160.864 19.8735C160.999 19.9034 161.084 20.0529 161.084 20.1874C161.084 20.327 161.024 20.4565 160.959 20.5811C160.574 21.3486 159.978 22.0064 159.598 22.7588C159.303 23.3518 159.303 24.0346 158.562 24.3186C158.482 24.3485 158.392 24.3684 158.312 24.3385C158.187 24.2887 158.142 24.1342 158.132 24.0047C158.022 22.9482 158.818 22.5246 159.393 21.7971V21.7921ZM158.182 29.1325C158.292 28.694 158.407 27.1491 159.058 27.1691C159.223 27.1691 159.368 27.2588 159.513 27.3385C159.748 27.478 159.983 27.6126 160.218 27.7521C160.283 27.787 160.343 27.8269 160.393 27.8817C160.754 28.2903 160.048 28.7986 159.853 29.1076C159.463 29.7255 159.143 30.4132 158.828 31.071C158.202 32.3567 157.667 33.6972 157.362 35.0975C157.257 35.5759 157.107 36.0693 156.756 36.4081C156.726 36.438 156.696 36.4629 156.656 36.4679C156.621 36.4679 156.596 36.448 156.576 36.4231C156.546 36.3782 156.536 36.3134 156.541 36.2536C156.576 35.4513 156.822 34.7587 157.042 34.0012C157.267 33.2188 157.397 32.3966 157.582 31.6042C157.777 30.782 157.977 29.9597 158.187 29.1375L158.182 29.1325ZM157.977 45.702C157.727 46.6738 157.477 47.6505 157.232 48.6272C156.867 50.0973 156.516 51.5724 156.201 53.0524C156.051 53.775 155.906 54.4976 155.776 55.2201C155.691 55.6836 155.631 56.4161 155.246 56.7351C155.011 56.9294 154.675 56.9942 154.39 56.8896C154.235 56.8347 154.095 56.7351 154.02 56.5905C153.835 56.2268 154.45 55.1005 154.58 54.6969C154.8 53.9942 155.021 53.2916 155.241 52.589C155.691 51.1438 156.131 49.7036 156.586 48.2584C156.852 47.4163 157.117 46.5791 157.387 45.7369C157.487 45.4329 157.747 44.0575 158.132 43.9977C158.252 43.9778 158.362 44.0924 158.382 44.212C158.457 44.6306 158.082 45.2884 157.977 45.692V45.702ZM153.58 12.6078C153.945 11.8005 154.3 10.9882 154.675 10.1909C154.82 9.88694 155.021 9.6278 155.121 9.30887C155.231 8.96004 155.201 8.59626 155.406 8.27733C155.416 8.25739 155.431 8.24244 155.441 8.22251C155.706 7.86869 156.171 7.74411 156.601 7.64444C156.746 7.60956 156.912 7.57966 157.037 7.66936C157.192 7.78398 157.172 8.02318 157.107 8.20756C156.942 8.67101 156.571 8.98496 156.326 9.39857C156.026 9.90687 155.736 10.4202 155.416 10.9185C155.246 11.1876 154 13.6294 153.55 13.1111C153.435 12.9766 153.5 12.7723 153.575 12.6078H153.58ZM151.974 32.5411C152.234 31.5394 152.494 30.5378 152.739 29.5312C152.954 28.6391 153.039 27.7023 153.325 26.8452C153.45 26.4714 153.605 26.0777 153.94 25.8684C154.095 25.7737 154.315 25.7339 154.44 25.8684C154.495 25.9282 154.52 26.008 154.535 26.0877C154.735 27.0096 154.065 28.076 153.76 28.9381C153.37 30.0594 152.979 31.1806 152.594 32.3019C152.354 33.0045 152.004 33.7122 151.869 34.4397C151.829 34.659 151.664 35.1175 151.489 35.0577C151.434 35.0377 151.379 34.968 151.324 34.8284C151.113 34.2753 151.834 33.0992 151.979 32.5461L151.974 32.5411ZM150.623 24.6226C150.623 24.8319 150.503 25.0213 150.388 25.1957C149.653 26.2671 148.752 27.1093 148.482 28.4249C148.367 28.983 148.322 29.5511 148.202 30.1092C148.132 30.4182 148.032 30.7421 147.797 30.9564C147.732 31.0162 147.651 31.066 147.566 31.0561C147.466 31.0461 147.386 30.9614 147.361 30.8617C147.331 30.767 147.346 30.6624 147.361 30.5627C147.461 29.7803 147.626 29.0129 147.792 28.2405C147.912 27.6674 147.822 27.0844 148.032 26.5212C148.047 26.4864 148.062 26.4465 148.077 26.4116C148.197 26.1425 148.407 25.9282 148.607 25.7139C149.017 25.2854 149.427 24.8568 149.838 24.4332C149.958 24.3086 150.103 24.1741 150.278 24.1791C150.488 24.189 150.638 24.4133 150.633 24.6226H150.623ZM139.767 27.6574C139.537 27.8468 139.162 27.9764 138.972 27.7521C138.897 27.6624 138.872 27.5428 138.867 27.4232C138.827 26.7953 139.127 26.2073 139.442 25.6541C139.477 25.5943 139.512 25.5345 139.542 25.4747C140.498 23.8103 141.148 22.0761 141.998 20.3668C142.113 20.1376 142.228 19.9034 142.404 19.714C142.469 19.6443 142.544 19.5745 142.639 19.5496C142.734 19.5247 142.844 19.5496 142.894 19.6343C142.929 19.6891 142.924 19.7589 142.919 19.8237C142.834 20.7057 142.243 21.6426 141.918 22.4648C141.548 23.4067 141.208 24.2987 140.983 25.2754C140.783 26.1475 140.488 27.0594 139.772 27.6475L139.767 27.6574ZM139.257 55.1005C138.932 56.3763 138.727 57.7517 138.316 58.9875C138.231 59.2417 138.091 59.4958 137.851 59.6154C137.616 59.735 137.336 59.7051 137.076 59.6603C136.735 59.6055 136.345 59.4759 136.245 59.147C136.195 58.9726 136.245 58.7882 136.3 58.6138C136.635 57.6271 137.261 56.7002 137.706 55.7534C138.051 55.0059 138.386 54.2534 138.707 53.4959C138.977 52.8531 139.152 51.9561 139.527 51.388C139.602 51.2734 139.742 51.1886 139.877 51.2285C140.473 51.393 139.382 54.5873 139.252 55.1005H139.257ZM140.943 34.3151C141.173 33.1291 141.388 31.9381 141.588 30.7421C141.728 29.9099 141.703 28.4548 142.279 27.777C142.519 27.498 142.844 27.3186 143.169 27.1491C143.494 26.9797 143.824 26.8103 144.085 26.5561C144.2 26.4415 144.305 26.3119 144.445 26.2322C144.59 26.1525 144.79 26.1525 144.89 26.2771C145.01 26.4266 144.925 26.6458 144.835 26.8202C144.28 27.8767 143.604 28.9033 143.204 30.0195C142.749 31.2853 142.319 32.556 141.893 33.8268C141.648 34.5693 141.408 35.3118 141.183 36.0543C141.033 36.5427 141.153 37.2204 140.753 37.5892C140.688 37.649 140.588 37.6988 140.508 37.6839C140.488 37.6839 140.467 37.6689 140.452 37.6589C140.392 37.6091 140.382 37.5244 140.382 37.4447C140.372 36.433 140.753 35.3068 140.943 34.3102V34.3151ZM143.084 55.2201C143.269 54.6122 143.524 53.9893 143.659 53.3663C143.764 52.873 143.704 52.4444 144.094 52.0458C144.145 51.9959 144.21 51.9461 144.28 51.9561C144.34 51.966 144.38 52.0159 144.41 52.0657C144.85 52.7434 144.715 53.8946 144.805 54.677C145.055 56.755 147.892 56.3862 148.542 54.8265C148.752 54.3182 149.007 53.8049 149.167 53.2766C149.272 52.9278 149.292 52.4743 149.708 52.2999C149.838 52.2451 149.988 52.3398 150.048 52.4644C150.178 52.7384 149.988 53.1919 149.953 53.476C149.888 53.9693 149.833 54.4577 149.778 54.951C149.673 55.853 149.818 57.1088 148.872 57.637C148.577 57.8015 148.232 57.8214 147.897 57.8563C147.146 57.9261 146.401 58.0656 145.675 58.2699C144.735 58.534 143.734 58.9028 142.804 58.5889C141.663 58.2002 142.859 55.9726 143.089 55.2251L143.084 55.2201ZM132.733 12.9716C133.524 12.8321 134.309 12.6427 135.1 12.4932C137.681 11.9949 140.252 11.4567 142.819 10.8985C144.12 10.6145 145.415 10.3255 146.716 10.0315C147.186 9.9268 150.088 8.99991 150.183 9.55804C150.238 9.90189 149.953 10.2507 149.818 10.5398C149.688 10.8188 149.623 11.3321 149.192 11.2922C148.732 11.2474 148.597 10.6544 148.287 10.4251C147.892 10.1311 147.261 10.2308 146.866 10.47C146.141 10.9085 145.45 11.4068 144.8 11.945C144.305 12.3587 143.674 13.2058 142.989 13.2756C142.519 13.3254 142.529 13.0015 142.263 12.7972C142.053 12.6327 141.733 12.5879 141.473 12.5829C140.858 12.558 140.257 12.8171 139.882 13.3105C139.572 13.7191 139.172 14.1527 138.982 14.636C138.837 15.0048 138.852 15.3237 138.486 15.5928C138.221 15.7922 137.836 15.847 137.551 15.6775C137.356 15.5579 137.236 15.3536 137.086 15.1792C136.56 14.5613 135.66 14.362 134.859 14.5015C134.059 14.641 133.344 15.0746 132.688 15.5579C132.343 15.8121 132.013 16.0812 131.628 16.2656C131.538 16.3054 131.413 16.3353 131.357 16.2556C131.322 16.2008 131.342 16.126 131.362 16.0613C131.548 15.533 131.828 15.0696 131.603 14.5364C131.488 14.2623 131.072 13.9882 131.122 13.6743C131.227 13.0165 132.273 13.0563 132.733 12.9766V12.9716ZM131.347 23.5113C131.428 23.8751 130.947 24.5478 130.822 24.8967C130.602 25.5196 130.382 26.1425 130.162 26.7654C129.842 27.6674 129.516 28.5694 129.186 29.4714C128.981 30.0345 128.771 31.2903 128.041 31.4398C127.75 31.4996 127.46 31.3301 127.26 31.1159C127.105 30.9514 126.98 30.7521 126.95 30.5278C126.9 30.0993 127.465 29.4913 127.66 29.1225C127.971 28.5395 128.276 27.9564 128.581 27.3734C129.191 26.2073 129.807 25.0412 130.482 23.91C130.597 23.7156 131.172 22.7688 131.337 23.5163L131.347 23.5113ZM128.071 39.0792C127.991 39.2985 127.56 39.9861 127.46 39.3882C127.315 38.536 127.74 37.335 127.931 36.4879C128.061 35.8998 128.196 34.8982 128.726 34.5045C128.806 34.4447 128.891 34.4198 128.981 34.4347C130.097 34.6241 128.301 38.4413 128.071 39.0792ZM126.865 15.8021C126.92 15.3835 127.065 14.3321 127.375 14.0131C127.4 13.9882 127.43 13.9683 127.46 13.9483C127.545 13.8985 127.645 13.8786 127.745 13.8636C128.111 13.7988 128.496 13.7341 128.861 13.739C128.646 14.2673 128.101 14.4965 127.826 14.9998C127.635 15.3437 127.5 15.7224 127.27 16.0413C127.215 16.1161 127.14 16.1958 127.045 16.1908C126.885 16.1809 126.845 15.9616 126.87 15.7971L126.865 15.8021ZM125.679 60.6669C125.809 60.1885 125.934 59.7051 126.06 59.2217C126.3 58.2948 126.53 57.363 126.76 56.4311C127.07 55.1653 127.07 53.456 127.891 52.4095C128.001 52.27 128.201 52.1355 128.331 52.2501C128.396 52.3099 128.406 52.4095 128.406 52.4992C128.421 53.4461 128.251 54.3929 128.266 55.3447C128.286 56.2915 128.526 57.2982 129.216 57.951C129.401 58.1304 129.627 58.2799 129.882 58.3198C130.122 58.3596 130.362 58.3048 130.602 58.245C130.987 58.1503 131.397 58.0457 131.663 57.7517C131.718 57.6919 131.768 57.6221 131.843 57.5972C132.083 57.5125 132.213 57.8812 132.178 58.1354C132.073 58.833 131.703 59.446 131.508 60.1237C131.247 61.0456 130.357 61.0008 129.556 61.1553C128.921 61.2799 125.959 62.2566 125.659 61.1702C125.624 61.0357 125.624 60.8662 125.679 60.6619V60.6669ZM120.917 15.0746C121.347 15.0297 121.772 14.935 122.177 14.7855C122.237 14.7656 122.292 14.7407 122.353 14.7208C122.408 14.7008 122.463 14.6759 122.518 14.6909C122.603 14.7108 122.648 14.8204 122.633 14.9051C122.618 14.9948 122.553 15.0646 122.498 15.1344C122.358 15.2888 121.147 16.5696 121.042 16.5098C120.987 16.4799 120.967 16.4051 120.957 16.3453C120.892 16.0015 120.797 15.842 120.657 15.5978C120.602 15.4981 120.446 15.5679 120.441 15.3835C120.431 15.1344 120.737 15.0945 120.917 15.0746ZM115.834 16.1061C116.154 15.9367 116.519 15.8819 116.874 15.832C117.04 15.8071 117.205 15.7872 117.37 15.7623C117.42 15.7573 117.475 15.7523 117.53 15.7623C117.6 15.7722 117.66 15.7971 117.69 15.8619C117.725 15.9516 117.66 16.0463 117.6 16.1161C117.45 16.3005 116.889 17.2323 116.644 17.1227C116.529 17.0729 116.474 16.9533 116.424 16.8387C116.299 16.5347 116.109 16.43 115.814 16.2955C115.784 16.2805 115.754 16.2656 115.744 16.2357C115.724 16.1809 115.779 16.131 115.829 16.1061H115.834ZM114.453 34.7487C114.533 34.1906 114.553 33.6125 114.753 33.0843C114.838 32.86 114.948 32.6557 115.078 32.4613C115.349 32.0527 115.699 31.6889 116.019 31.3202C116.484 30.787 116.744 30.2488 117.075 29.6458C117.655 28.6043 118.285 27.6076 118.976 26.6259C119.221 26.2771 119.471 25.9282 119.796 25.6541C119.861 25.5993 119.936 25.5495 120.016 25.5595C120.186 25.5844 120.186 25.8286 120.131 25.988C119.736 27.2239 115.854 32.2022 118.981 32.7454C119.866 32.8999 120.997 32.0726 121.542 31.4547C122.112 30.8119 122.543 30.0444 123.153 29.4365C123.198 29.3916 123.253 29.3418 123.318 29.3318C123.428 29.3169 123.528 29.4265 123.538 29.5361C123.548 29.6458 123.503 29.7554 123.453 29.8551C122.978 30.8617 122.458 31.8932 121.757 32.7554C121.137 33.5178 120.892 34.6141 120.526 35.5261C120.281 36.139 119.976 36.742 119.761 37.3649C119.606 37.8035 119.586 38.247 119.156 38.541C118.911 38.7104 118.53 38.7204 118.345 38.4862C118.245 38.3616 118.22 38.1971 118.205 38.0427C118.13 37.4098 118.12 36.7719 118.175 36.139C118.255 35.1872 118.515 33.8567 117.35 33.463C116.389 33.1391 115.779 34.2304 115.569 34.9979C115.369 35.7304 115.354 36.5028 115.249 37.2553C115.144 38.0078 114.928 38.7852 114.403 39.3383C114.313 39.433 114.198 39.5277 114.068 39.5177C113.853 39.5028 113.768 39.2287 113.753 39.0144C113.658 37.5692 114.253 36.1739 114.453 34.7387V34.7487ZM117.515 60.8064C117.585 61.2649 117.695 61.7283 117.97 62.1021C118.806 63.2283 120.186 62.3263 120.762 61.4194C120.847 61.2848 120.927 61.1403 121.057 61.0506C121.262 60.9111 121.547 60.946 121.777 61.0506C122.137 61.2151 122.828 61.8031 122.833 62.2317C122.843 62.9194 120.877 63.0888 120.336 63.2483C118.891 63.7865 117.415 64.1104 115.969 64.6835C115.279 64.9575 114.503 64.8579 114.258 64.0257C114.133 63.6021 114.493 63.2084 114.788 62.8745C114.868 62.7848 114.943 62.6901 115.018 62.5954C115.889 61.4543 116.249 60.049 116.504 58.6586C116.579 58.245 117.035 54.6421 117.45 54.8564C117.585 54.9261 117.6 55.1055 117.595 55.255C117.545 57.1088 117.245 58.9676 117.515 60.8015V60.8064ZM112.917 70.1352C124.944 69.0738 136.64 65.7299 148.557 63.8213C157.267 62.426 166.092 61.7981 174.776 60.2633C183.146 58.7832 191.336 56.461 199.7 54.966C203.437 54.2982 207.164 54.3182 210.946 53.7002C215.464 52.9577 219.966 52.1355 224.494 51.4478C226.29 51.1737 228.096 50.9245 229.902 50.7102C230.662 50.6205 231.528 50.5607 232.103 51.0641C233.674 52.3149 233.209 57.2633 233.354 59.0673C230.322 59.9393 227.27 60.8164 224.449 62.2217C219.401 64.7333 215.974 69.0438 213.923 74.2016C213.153 76.1401 212.452 78.6068 212.062 81.1882C211.562 79.3842 210.596 77.7696 209.06 76.3693C204.578 72.283 197.174 71.2664 191.301 71.6053C186.943 71.8594 182.411 72.7963 178.408 74.5953C174.866 76.1899 171.865 78.6019 169.639 81.5719C167.803 79.3244 165.011 78.1783 162.179 77.4756C158.562 76.5736 154.74 76.3045 151.028 76.6235C147.216 76.9474 143.479 77.7397 139.902 79.1002C138.351 79.6882 136.84 80.3759 135.42 81.233C132.878 82.7679 131.428 84.3576 129.501 86.61C128.471 87.816 127.535 89.0917 126.755 90.4721C125.829 92.1066 125.104 93.8408 124.609 95.6348C124.184 94.4488 123.668 93.2877 123.098 92.1814C121.942 89.9339 120.431 87.9755 118.771 86.0818C118.015 85.2247 117.335 84.4622 116.304 83.9091C116.059 83.7795 113.072 82.8078 113.087 83.022C112.967 81.2281 112.922 79.459 112.847 77.665C112.737 75.1285 112.762 72.7116 112.917 70.1551V70.1352ZM109.686 18.1343C109.62 18.0396 109.545 17.945 109.525 17.8303C109.515 17.7556 109.525 17.6908 109.57 17.626C109.866 17.1576 112.557 16.5546 112.617 16.9632C112.642 17.1227 112.542 17.2722 112.432 17.3818C111.667 18.1343 111.146 19.0363 110.671 20.0031C110.446 20.4615 110.221 20.9549 109.786 21.224C109.66 21.3037 109.48 21.3535 109.37 21.2489C109.305 21.1891 109.29 21.0894 109.295 20.9997C109.32 20.4466 109.806 20.033 109.961 19.5197C110.121 18.9865 109.991 18.5878 109.686 18.1393V18.1343ZM111.617 31.37C111.617 31.3999 111.617 31.4298 111.617 31.4647C111.602 32.0776 111.507 32.7155 111.361 33.3135C111.176 34.066 111.156 34.8783 110.876 35.6108C110.836 35.7105 110.781 35.8201 110.681 35.855C110.576 35.8899 110.461 35.8251 110.401 35.7304C110.341 35.6357 110.326 35.5261 110.316 35.4165C110.236 34.6191 110.316 33.8118 110.526 33.0394C110.671 32.5162 110.836 31.5643 111.266 31.1956C111.587 30.9215 111.622 31.061 111.617 31.375V31.37ZM107.829 28.8933C107.95 28.694 108.1 28.4946 108.32 28.4149C108.36 28.3999 108.405 28.39 108.445 28.3999C108.565 28.4298 108.585 28.5943 108.565 28.7189C108.51 29.0378 108.36 29.3318 108.215 29.6209C107.98 30.0843 107.744 30.5478 107.424 30.9514C107.219 31.2056 106.984 31.4398 106.809 31.7138C106.584 32.0726 106.644 32.3766 106.579 32.7653C106.524 33.1092 106.294 33.3783 106.224 33.7122C106.169 33.9813 106.179 34.2753 106.129 34.5494C106.013 35.2321 105.848 35.9148 105.508 36.5227C105.413 36.6972 105.203 36.8865 105.038 36.7669C104.963 36.7121 104.943 36.6124 104.933 36.5227C104.898 36.2437 104.933 35.9596 104.968 35.6756C105.073 34.8384 105.178 34.0012 105.278 33.164C105.313 32.87 105.353 32.571 105.458 32.2969C105.498 32.1972 105.543 32.1075 105.593 32.0178C105.908 31.4896 106.424 31.0959 106.779 30.5926C107.169 30.0395 107.474 29.4664 107.829 28.8883V28.8933ZM105.118 18.4234C105.283 18.2639 105.863 18.1293 106.084 18.2639C106.144 18.2988 106.184 18.3386 106.209 18.3785C106.384 18.6476 105.908 19.0064 105.688 19.2207C105.568 19.3403 105.423 19.4599 105.258 19.4549C104.738 19.4399 104.873 18.6625 105.123 18.4184L105.118 18.4234ZM101.976 52.4644C102.191 51.9013 102.937 51.677 103.162 51.1239C103.682 49.8182 104.047 48.4428 104.523 47.1173C104.783 46.3897 104.968 45.6322 105.293 44.9246C105.448 44.5907 105.968 43.5592 106.369 43.9379C106.659 44.217 106.559 45.2136 106.539 45.5525C106.499 46.2153 106.374 46.8731 106.284 47.5309C106.059 49.2152 105.863 50.8996 105.753 52.5939C105.643 54.2135 108.295 54.7517 108.64 53.1022C108.725 52.6986 109.06 49.9627 109.365 49.9129C109.565 49.878 109.701 50.1023 109.756 50.2966C109.986 51.1488 109.6 52.2351 109.625 53.1371C109.66 54.4826 109.771 55.8281 109.976 57.1636C110.066 57.7616 110.446 58.235 111.061 58.3397C111.712 58.4493 112.287 57.8264 112.297 58.8081C112.302 59.5357 112.147 60.5323 111.902 61.2151C111.847 61.3695 111.732 61.5091 111.572 61.5539C111.126 61.6785 109.981 60.353 109.635 60.0689C108.945 59.4908 108.25 58.9227 107.554 58.3497C106.144 57.1786 104.753 55.9826 103.467 54.672C102.972 54.1637 101.661 53.2866 101.971 52.4694L101.976 52.4644ZM98.8545 21.827C98.8645 21.7871 99.1097 21.1841 99.2848 20.631C99.4299 20.1775 99.3448 19.714 99.8801 19.5595L100.896 19.2605C100.991 19.2306 101.106 19.2107 101.181 19.2755C101.271 19.3602 101.221 19.5097 101.156 19.6144C100.901 20.0429 100.52 20.2223 100.195 20.5612C99.7951 20.9798 99.67 21.5828 99.2247 21.9715C99.1197 22.0662 98.9346 22.1409 98.8545 22.0213C98.8145 21.9665 98.8295 21.8868 98.8495 21.822L98.8545 21.827ZM94.6672 22.4C94.8123 21.9765 94.8823 21.1492 95.2525 20.7506C95.3526 20.6459 95.4677 20.5712 95.6127 20.5363C95.6878 20.5213 95.7778 20.5213 95.8379 20.5662C95.9229 20.631 95.9229 20.7555 95.9079 20.8602C95.8529 21.1741 95.6478 21.3436 95.5127 21.6127C95.3326 21.9715 95.2626 22.3901 95.0975 22.7588C95.0524 22.8535 94.9974 22.9632 94.8974 22.993C94.7673 23.0279 94.6372 22.9133 94.6122 22.7838C94.5822 22.6542 94.6272 22.5196 94.6672 22.3951V22.4ZM88.3888 36.6573C88.6889 37.4347 87.8835 40.2303 89.7195 39.732C89.9196 39.6772 90.1147 39.5626 90.3198 39.6024C90.3799 39.6174 90.4299 39.6423 90.4799 39.6722C90.5299 39.7021 90.58 39.742 90.625 39.7769C91.1203 40.1855 91.5655 40.6589 91.9357 41.1821C92.0258 41.3117 92.1208 41.4463 92.2509 41.531C92.6011 41.7552 93.0763 41.5559 93.4766 41.6605C94.3471 41.8948 94.0219 42.8516 94.4671 43.3798C94.9324 43.9329 95.8429 43.8881 96.2331 44.5808C96.3982 44.8748 96.4132 45.2286 96.4832 45.5575C96.5933 46.0857 96.8684 46.594 97.2987 46.9279C97.7289 47.2618 98.3192 47.4013 98.8345 47.2369C99.0696 47.1621 99.3048 47.0226 99.5499 47.0625C99.8151 47.1073 100 47.3565 100.055 47.6206C100.215 48.3731 100.07 49.2451 99.9251 49.9926C99.8001 50.6455 99.5899 50.5906 99.2247 50.1521C98.8996 49.7584 98.5244 49.3946 98.1792 49.0159C97.4538 48.2335 96.7284 47.4561 95.988 46.6837C94.5572 45.1887 93.0864 43.7286 91.5455 42.3482C90.555 41.4662 89.5694 40.5792 88.5789 39.6921C88.0686 39.2387 87.5583 38.7802 87.048 38.3267C86.7629 38.0726 86.1225 37.7536 85.9274 37.4447C85.282 36.4181 87.8535 35.2819 88.3888 36.6523V36.6573ZM87.1381 32.0378C87.2932 31.8883 87.4082 31.6989 87.5333 31.5195C87.6183 31.3949 87.7534 31.2604 87.8985 31.3002C87.9185 31.3052 87.9335 31.3152 87.9485 31.3252C88.0586 31.3949 88.0836 31.5643 88.0586 31.7039C87.9735 32.1673 87.4382 32.5162 87.1481 32.87C86.7779 33.3185 86.3927 33.8318 85.8924 34.1457C85.5222 33.6075 86.7879 32.3766 87.1381 32.0378ZM85.287 24.3884L85.7623 23.3518C85.8173 23.2273 85.8774 23.0977 85.9674 22.993C86.1025 22.8336 86.8179 22.5296 86.938 22.8186C87.053 23.0828 86.4577 23.9449 86.3326 24.2239C86.0975 24.7472 85.8424 25.2804 85.4171 25.6791C85.3521 25.7438 85.277 25.7987 85.187 25.8236C85.0969 25.8435 84.9919 25.8186 84.9469 25.7389C84.9168 25.689 84.9168 25.6292 84.9168 25.5744C84.9319 25.1558 85.1069 24.7621 85.282 24.3834L85.287 24.3884ZM85.0669 28.8484C85.1119 28.8136 85.167 28.7837 85.222 28.7886C85.232 28.7886 85.247 28.7886 85.257 28.7936C85.6773 28.9282 84.6167 30.3783 84.3916 30.3235C83.7562 30.179 84.8418 29.0079 85.0669 28.8484ZM82.7256 33.9015C82.8157 33.6025 83.0008 33.2985 83.1309 33.0743C83.1909 32.9696 83.306 32.8899 83.426 32.9049C83.9413 32.9746 83.9263 34.2753 84.0063 34.669C84.0564 34.9181 84.1414 35.2171 83.8513 35.3766C83.4761 35.5859 83.0808 34.943 82.8357 34.6889C82.6256 34.4746 82.6306 34.1856 82.7206 33.8965L82.7256 33.9015ZM78.4383 29.9248C78.5683 29.3318 79.2487 29.8351 79.5289 29.9697C80.0341 30.2139 80.6195 29.6109 80.8546 29.2272C80.9547 29.0577 81.3399 28.385 81.58 28.4298C81.9652 28.4996 81.605 29.7853 81.57 30.0295C81.535 30.3185 81.605 30.463 81.525 30.7471C81.4249 31.076 81.1998 31.4149 81.0047 31.6989C80.8846 31.8733 80.7145 32.0627 80.4994 32.0477C80.3593 32.0378 80.2443 31.9331 80.1392 31.8384C79.749 31.4746 79.2937 31.1707 78.9335 30.787C78.7685 30.6125 78.3732 30.2039 78.4333 29.9298L78.4383 29.9248ZM68.1826 29.9996C68.2026 29.89 68.2326 29.7704 68.3177 29.6906C68.5128 29.5112 68.823 29.6657 69.0331 29.8252C69.4883 30.169 69.9436 30.5129 70.4038 30.8617C75.7068 34.8683 80.4594 39.4729 85.3821 43.928C88.9641 47.1671 92.3159 50.1521 95.3776 53.8647C99.2898 58.5988 103.827 62.6851 107.915 67.2449C109.405 68.9093 110.011 69.9159 109.866 72.2182C109.655 75.5172 109.66 78.8211 109.756 82.1251C108.235 78.8111 105.958 75.8859 103.087 73.5687C99.5649 70.7282 94.6322 68.4508 90.0247 69.7365C88.4338 70.18 86.968 71.2415 85.8474 72.6069C85.6973 70.5588 86.3576 68.5356 86.3876 66.4924C86.4077 64.9675 86.2226 63.4127 85.9524 61.9127C85.3571 58.5839 84.0013 55.3348 81.7301 52.7883C78.2982 48.9412 72.0547 46.8282 68.1126 50.0176C68.1276 46.3199 68.1226 42.6273 68.0776 38.9297C68.0425 36.0443 67.6223 32.85 68.1876 30.0046L68.1826 29.9996ZM67.9625 61.7034C68.0025 59.8795 67.7974 57.8912 68.0676 56.0872C68.5628 52.7385 71.3694 51.3332 74.4461 52.3896C77.0575 53.2866 79.0386 55.27 80.2643 57.6968C82.7106 62.5456 82.3404 69.1037 80.7245 74.1567C80.6395 74.4258 80.5044 74.7348 80.2243 74.7846C80.0341 74.8195 79.844 74.7099 79.679 74.6102C76.187 72.4425 72.6951 70.2747 69.2032 68.107C67.112 66.8113 67.9225 63.7815 67.9675 61.6984L67.9625 61.7034ZM66.8969 80.7995C67.1921 78.1733 67.5873 75.5271 67.8474 72.9209C67.8624 72.7963 67.8824 72.6568 67.9875 72.587C68.1226 72.4973 68.3027 72.587 68.4428 72.6717C70.8041 74.1667 73.1604 75.6617 75.4866 77.2115C76.3921 77.8145 77.4077 78.856 78.3782 79.2846C79.4888 79.7729 81.2398 79.3693 82.3204 78.9706C82.7106 79.4341 82.7957 80.0719 82.9508 80.66C83.336 82.1101 84.2365 83.3659 85.162 84.5519C87.9635 88.1499 91.1553 91.4239 94.4771 94.5484C95.8829 95.869 97.1986 97.0451 98.4343 98.4902C100.455 100.857 102.802 102.816 104.743 105.248C106.499 107.445 108.58 109.354 110.231 111.646C110.421 111.91 110.611 112.184 110.721 112.488C110.816 112.752 110.851 113.032 110.876 113.311C111.196 116.545 111.512 119.779 111.512 123.053C111.707 126.746 111.932 130.433 112.132 134.126C112.162 134.634 112.182 135.148 112.207 135.656C110.796 132.616 109.04 129.721 107.119 127.045C104.588 123.511 101.756 119.864 97.7289 117.95C95.5327 116.909 93.1614 116.595 90.7501 116.769C89.6244 116.849 88.5238 116.998 87.4232 117.218C87.3982 117.178 87.3732 117.138 87.3482 117.103C90.8951 109.374 87.4332 100.543 82.2003 94.2495C79.9941 91.5933 77.1976 89.4356 73.9108 88.2844C72.56 87.9505 71.2943 87.4422 69.9036 87.2479C68.4628 87.0436 67.4572 87.3675 66.0664 87.6615C66.4216 87.5868 66.8219 81.4623 66.8969 80.8045V80.7995ZM112.077 152.375C110.016 151.024 108.37 149.151 106.779 147.272C102.056 141.691 97.6138 135.87 93.4716 129.85C92.426 128.33 87.4032 122.38 88.2637 120.895C89.4443 118.867 95.0274 120.437 96.4532 121.164C99.9802 122.968 102.457 126.447 104.683 129.601C107.059 132.975 109.18 136.613 110.476 140.544C111.156 142.598 111.361 144.616 111.672 146.719C111.712 146.993 111.842 148.692 111.947 150.157C112.032 151.348 112.097 152.39 112.077 152.375ZM65.6562 91.1349C66.1165 90.3326 67.2921 90.213 68.1926 90.3126C69.6284 90.4671 71.0142 90.7063 72.3849 91.1797C75.1064 92.1266 77.4077 93.8807 79.2787 96.0434C81.7051 98.8491 83.7112 102.193 84.5566 105.826C84.8468 107.072 85.3971 115.269 83.7362 115.723C83.1509 115.882 82.6056 115.399 82.1953 114.955C76.192 108.462 70.8291 101.386 66.1965 93.8608C65.8313 93.2677 65.4611 92.6349 65.4611 91.9372C65.4611 91.6133 65.5312 91.3492 65.6562 91.1299V91.1349ZM32.2728 93.3624C34.1638 97.678 36.275 101.849 37.9459 106.284C39.4167 110.191 40.7725 114.173 41.4779 118.294C41.733 119.789 42.1482 121.389 42.2583 122.894C42.3233 123.82 42.1382 124.802 41.5579 125.53C39.7719 125.794 38.4862 122.465 37.8459 121.284C34.8792 115.827 31.5174 110.48 28.8309 104.929C28.0355 103.284 26.4896 101.196 26.1794 99.4022C27.9004 97.1049 29.9615 95.0617 32.2828 93.3624H32.2728ZM17.6297 108.258C18.6903 106.753 19.876 105.337 21.3218 104.116C23.618 107.455 25.0688 111.711 26.8898 115.334C29.091 119.709 31.4473 124.015 33.4585 128.485C35.4946 133.01 30.1166 130.473 28.2306 129.307C26.2045 128.056 24.4285 126.407 22.8176 124.668C21.1817 122.904 19.7609 120.99 18.4402 118.982C17.1244 116.978 15.9138 114.91 14.7681 112.802C15.6886 111.253 16.6042 109.708 17.6297 108.253V108.258ZM43.0237 172.672C31.0321 167.295 18.6353 159.361 12.2518 147.511C9.18006 141.81 7.97439 135.432 8.80985 129.008C9.28011 125.385 10.3507 121.867 11.8215 118.508C12.0516 118.902 12.2768 119.301 12.5169 119.689C15.4535 124.538 18.8904 129.322 23.4529 132.785C25.7342 134.52 28.3156 135.885 31.1172 136.548C32.1277 136.787 33.2083 136.737 34.1538 137.146C37.4757 138.591 38.9365 141.621 40.7175 144.581C42.8586 148.134 45.0048 151.687 47.141 155.245C51.3383 162.237 55.4906 169.258 59.4878 176.369C59.9831 177.247 60.4734 178.124 60.9636 179.006C54.8352 177.346 48.8319 175.278 43.0287 172.677L43.0237 172.672ZM277.538 137.804C269.589 150.292 257.392 158.998 243.98 164.933C230.252 171.012 215.434 174.361 200.706 177.002C184.502 179.908 168.153 182.579 151.759 184.124C131.623 186.022 111.221 186.311 91.0853 184.288C85.7923 183.755 80.4894 183.067 75.2265 182.145C73.2404 178.886 71.1793 175.667 69.1732 172.423C62.8497 162.192 56.8163 151.896 50.0026 142.015C48.7069 140.136 47.3861 138.247 46.3055 136.234C45.415 134.569 46.0254 132.257 46.7608 130.643C47.5862 128.839 48.0815 127.149 48.2366 125.131C48.5518 120.945 47.7063 116.744 46.6707 112.708C45.2049 106.982 43.0337 101.45 40.6374 96.0484C39.5868 93.6764 38.4762 91.3242 37.3406 88.9921C43.1738 84.7263 49.4273 81.0188 55.7508 77.8145C58.4122 76.469 61.0737 75.1185 63.7752 73.8527C63.405 74.0272 63.1248 79.3543 63.0748 80.0171C62.8697 82.6682 62.6696 85.3144 62.4645 87.9655C62.2944 90.1831 62.1293 92.4455 62.6846 94.5983C64.2404 100.608 69.4783 105.038 73.0453 109.877C77.3727 115.752 82.8257 121.329 86.6428 127.513C90.4899 133.752 95.2025 139.329 99.5699 145.169C101.956 148.358 104.092 151.597 107.064 154.229C108.06 155.106 109.06 155.993 110.221 156.646C112.782 158.086 115.769 158.32 118.65 158.22C128.391 157.871 137.546 154.413 147.096 152.494C156.561 150.591 165.962 148.568 175.352 146.31C184.897 144.018 194.432 141.686 204.018 139.543C208.475 138.546 212.952 137.649 217.355 136.418C219.321 135.87 221.292 135.302 223.188 134.599C223.989 134.3 228.571 133.194 228.861 132.656C226 137.933 220.232 140.893 214.688 143.24C206.339 146.769 197.704 149.629 188.899 151.777C177.063 154.662 164.956 156.262 152.874 157.861C140.998 159.431 129.101 160.797 117.105 160.612C108.5 160.478 99.785 159.381 91.5805 156.725C84.2765 154.363 76.5222 152.3 71.0392 146.48C63.0598 138.008 62.9297 124.453 67.9825 114.566C68.5828 113.395 70.3788 112.01 70.0486 110.595C69.8535 109.753 68.943 109.179 68.0726 109.239C64.2605 109.508 62.3894 117.462 61.3488 120.322C59.0476 126.636 60.0331 133.732 62.1693 139.946C63.0698 142.568 64.1904 145.139 65.8013 147.392C70.2438 153.601 77.6879 156.596 84.6717 158.993C93.0964 161.883 101.641 163.732 110.546 164.345C117.995 164.858 125.549 164.599 132.998 164.265C142.083 163.861 151.153 163.044 160.163 161.808C176.172 159.611 191.746 155.758 207.254 151.293C213.458 149.509 219.806 147.471 225.274 143.963C230.117 140.858 232.703 137.171 234.815 131.844C234.905 131.614 235 131.375 235.17 131.196C235.355 131.001 235.605 130.892 235.85 130.782C238.637 129.506 239.947 128.241 240.183 125.3C240.493 121.443 240.563 117.581 240.573 113.714C240.593 100.274 239.202 86.924 238.422 73.5787C238.367 72.6717 238.342 71.7697 238.306 70.8628C244.995 71.5255 251.704 72.3229 258.067 74.5753C265.742 77.2912 272.045 82.3393 276.978 88.7429C282.331 95.6896 285.458 104.261 285.412 113.047C285.367 121.922 282.266 130.374 277.533 137.804H277.538Z" fill="#713D11"/>
</g>
<defs>
<clipPath id="clip0_1_71">
<rect width="290" height="221" fill="white"/>
</clipPath>
</defs>
</svg>
