<svg width="243" height="233" viewBox="0 0 243 233" fill="none" xmlns="http://www.w3.org/2000/svg">
<g clip-path="url(#clip0_1_73)">
<path d="M171.223 104.154C170.957 103.422 170.539 102.774 169.757 102.509C169.363 102.376 168.87 102.663 168.777 103.067C168.598 103.857 169.403 104.479 170 104.819C170.731 105.232 171.618 105.316 171.258 104.261C171.247 104.226 171.232 104.189 171.221 104.154H171.223Z" fill="#713D11"/>
<path d="M174.391 101.027C174.206 100.417 173.754 99.7662 173.484 99.4611C173.052 98.9701 172.244 98.7085 171.916 99.4204C171.716 99.8505 171.847 100.388 172.02 100.801C172.313 101.495 173.226 102.721 174.107 102.204C174.516 101.966 174.536 101.51 174.388 101.03L174.391 101.027Z" fill="#713D11"/>
<path d="M49.9466 102.486C49.6017 101.356 48.37 100.237 47.4077 100.856C46.9875 101.126 46.6049 101.664 46.6889 102.181C46.7295 102.422 46.8512 102.643 46.9933 102.843C47.4831 103.541 48.7699 104.668 49.6278 103.985C50.0655 103.637 50.1205 103.058 49.9466 102.483V102.486Z" fill="#713D11"/>
<path d="M89.6186 109.099C89.5172 108.992 89.3925 108.896 89.2505 108.814C88.7201 108.504 87.9753 108.393 87.471 108.698C86.9435 109.018 86.929 109.817 87.3058 110.27C88.1579 111.29 90.7663 110.296 89.6186 109.099Z" fill="#713D11"/>
<path d="M88.7955 104.34C88.6912 104.194 88.5811 104.067 88.4854 103.968C87.7927 103.25 86.1958 101.774 85.3755 103.177C84.6973 104.34 86.1146 105.153 87.0218 105.49C87.4681 105.656 88.2738 105.973 88.7521 105.9C89.5781 105.775 89.1317 104.799 88.7955 104.34Z" fill="#713D11"/>
<path d="M123.474 114.771C123.103 114.428 122.587 114.181 122.21 114.129C121.796 114.071 121.341 114.164 121.126 114.571C120.848 115.102 120.772 115.997 121.471 116.209C121.451 116.201 121.314 116.134 121.398 116.189C122.311 116.793 124.874 116.07 123.477 114.771H123.474Z" fill="#713D11"/>
<path d="M126.308 118.703C126.137 118.464 125.845 118.354 125.41 118.479C124.39 118.772 123.343 121.117 124.911 121.326C126.181 121.498 126.853 119.455 126.305 118.7L126.308 118.703Z" fill="#713D11"/>
<path d="M126.187 113.327C126.126 113.17 126.056 113.016 125.998 112.877C125.885 112.606 125.726 112.327 125.453 112.223C124.917 112.017 124.613 112.412 124.23 112.653C124.184 112.682 124.137 112.717 124.1 112.757C123.271 113.661 125.178 114.876 125.92 114.562C126.473 114.327 126.372 113.809 126.184 113.324L126.187 113.327Z" fill="#713D11"/>
<path d="M87.068 128.846C86.7144 128.518 86.1406 128.3 85.7232 128.291C84.8334 128.274 83.9581 129.369 84.7262 130.122C85.2971 130.683 86.4942 130.59 87.0651 130.069C87.5578 129.622 87.4274 129.177 87.068 128.846Z" fill="#713D11"/>
<path d="M90.2417 133.118C90.1606 132.47 89.6447 131.865 88.9143 132.327C88.1202 132.83 88.0593 134.004 89.094 134.213C90.0012 134.399 90.32 133.736 90.2417 133.115V133.118Z" fill="#713D11"/>
<path d="M232.021 69.4019C230.386 66.1011 228.557 62.9252 226.621 59.8132C226.575 58.2122 226.505 56.5966 226.61 55.0014C226.691 53.7636 226.83 52.5287 226.83 51.288C226.833 49.4981 226.543 46.4791 224.222 46.2757C223.384 46.2031 222.517 46.4094 221.723 46.6621C221.546 46.7174 219.48 47.6355 219.428 47.56C217.066 44.1546 214.524 40.8711 211.82 37.7301C209.266 34.7663 206.84 31.8142 203.803 29.2891C197.383 23.9485 190.384 19.3343 183.031 15.3971C178.672 13.061 173.921 11.2914 169.301 9.548C164.566 7.76101 159.752 6.17161 154.856 4.88149C138.855 0.665362 121.856 -0.863022 105.362 0.46487C89.0647 1.77533 73.2428 6.09897 58.9165 14.0838C43.4975 22.6758 31.2463 35.9954 21.6558 50.6604C16.4649 58.5957 11.8711 67.1239 8.52937 76.0152C6.67155 80.9578 5.34703 86.0602 4.25436 91.2177C2.68638 92.6066 1.33577 94.2367 0.327155 96.1312C0.0141377 96.7211 0.637274 97.0872 1.03434 97.3952C1.17346 97.5027 2.83419 98.5226 2.84868 98.4383C2.46611 100.548 2.09802 102.66 1.72994 104.767C1.59372 105.537 1.38794 106.289 1.26911 107.059C0.0750023 114.858 -0.458287 122.468 0.466274 130.348C1.39083 138.208 3.3385 145.914 5.66004 153.463C10.0742 167.811 16.72 181.869 26.1134 193.628C35.3329 205.172 47.2305 214.194 60.5569 220.471C68.9098 224.405 77.4975 227.59 86.5344 229.56C106.936 234.002 128.774 233.744 149.384 231.044C155.335 230.266 161.235 228.987 166.884 226.939C174.174 224.297 181.156 220.471 187.796 216.49C194.105 212.707 200.137 208.45 205.78 203.722C216.741 194.535 226.166 183.307 232.479 170.406C239.768 155.506 242.411 138.92 242.933 122.448C243.513 104.128 240.177 85.8829 232.018 69.4048L232.021 69.4019ZM224.511 49.9804C224.749 49.5794 224.998 49.1901 225.282 48.8123C225.332 49.4138 225.474 50.0095 225.497 50.6022C225.601 53.4236 225.175 56.2538 225.091 59.0752C224.94 64.0294 225.708 68.9951 225.085 73.9203C225.085 78.2991 222.338 82.832 218.871 85.2727C218.755 85.3541 218.634 85.4383 218.497 85.4819C217.686 85.7376 215.358 84.1802 214.498 83.9042C213.967 83.7356 210.649 82.5704 210.272 82.983C210.405 82.8378 210.527 82.6779 210.637 82.5094C212.544 80.5394 213.75 77.933 215.802 76.0734C218.413 73.7081 222.129 71.7294 222.955 68.0276C223.013 67.7631 222.688 67.644 222.538 67.8503C221.459 69.3322 220.332 70.7938 218.97 72.0258C217.666 73.2055 216.24 74.237 214.941 75.4225C213.637 76.6167 212.704 78.2526 211.634 79.7229C211.71 79.351 211.773 78.9848 211.834 78.642C212.257 76.2332 212.428 73.7866 212.93 71.3894C214.457 64.0846 219.784 58.4011 223.361 52.0551C223.752 51.3606 224.111 50.6574 224.511 49.9775V49.9804ZM183.758 158.371C183.758 158.371 183.779 158.4 183.79 158.411C184.135 158.795 185.129 158.696 185.57 158.705C186.714 158.725 187.854 158.612 188.995 158.562C190.734 158.487 192.453 158.565 194.181 158.772C195.412 158.917 196.821 159.184 198.218 159.277C197.89 159.481 197.563 159.684 197.241 159.896C193.801 162.142 190.729 164.903 187.117 166.89C185.254 167.916 183.268 168.68 181.295 169.459C179.176 170.296 177.043 171.089 174.866 171.763C172.388 172.53 169.884 173.233 167.287 173.425C164.78 173.611 162.261 173.579 159.752 173.686C159.105 173.716 159.105 174.663 159.752 174.695C162.024 174.808 164.299 175.096 166.574 175.058C168.846 175.02 171.058 174.669 173.263 174.122C177.605 173.05 181.921 171.408 186.013 169.61C189.813 167.939 193.076 165.4 196.43 163.002C198.69 161.384 201.116 160.018 203.632 158.847C203.455 159.362 203.29 159.876 203.096 160.352C202.441 161.962 201.786 163.569 200.916 165.077C200.079 166.527 199.032 167.866 197.815 169.02C197.122 169.674 196.343 170.226 195.56 170.763C195.34 170.914 193.85 171.76 193.972 172.12C194.146 172.635 195.853 171.699 196.14 171.542C196.928 171.112 197.656 170.572 198.331 169.979C199.641 168.828 200.765 167.465 201.754 166.03C202.742 164.595 203.626 163.066 204.328 161.471C204.794 160.408 205.44 159.161 205.745 157.92C206.568 157.577 207.397 157.255 208.234 156.947C210.434 156.139 212.727 155.625 214.982 155C215.671 154.808 216.361 154.608 217.042 154.387C217.677 156.805 216.976 159.699 216.405 162.061C215.158 167.221 212.498 172.681 207.756 175.436C202.684 178.382 196.409 178.237 190.732 178.251C187.219 178.26 183.723 177.897 180.214 177.914C176.779 177.932 173.388 178.513 169.98 178.87C166.707 179.213 162.85 179.483 159.841 177.888C158.221 177.028 156.616 175.813 154.882 175.404C155.395 175.078 155.92 174.773 156.384 174.436C157.726 173.457 159.001 172.382 160.233 171.266C162.667 169.061 164.853 166.652 166.971 164.144C170.91 159.486 174.91 154.372 180.553 151.728C183.355 150.415 186.329 149.895 189.369 149.462C189.717 149.413 190.068 149.366 190.416 149.401C191.12 149.471 191.787 149.872 192.442 150.11C193.224 150.392 193.978 150.737 194.769 150.996C196.377 151.519 198.038 151.877 199.722 152.06C203.936 152.519 208.237 151.949 212.301 150.799C212.559 150.726 212.814 150.65 213.075 150.575C213.593 151.063 214.182 151.476 214.802 151.856C215.04 152.004 215.272 152.15 215.489 152.301C215.214 152.397 214.935 152.49 214.657 152.574C212.683 153.181 210.681 153.695 208.73 154.372C206.51 155.145 204.304 156.055 202.171 157.107C201.023 156.956 199.879 156.967 198.696 156.927C197.076 156.868 195.467 156.659 193.856 156.497C191.21 156.232 188.465 156.235 185.883 156.935C185.41 157.063 183.138 157.525 183.752 158.379L183.758 158.371ZM130.241 156.764C130.241 156.764 130.221 156.752 130.212 156.746C131.771 155.543 133.446 154.64 135.478 154.271C137.977 153.815 140.556 153.602 142.936 152.731C144.66 152.629 146.379 152.437 148.118 152.176C149.451 151.978 150.793 151.877 152.126 151.659C152.335 151.624 152.555 151.592 152.775 151.557C152.517 151.885 152.277 152.231 152.074 152.594C151.375 153.847 151.61 155.401 150.7 156.54C149.176 158.452 146.431 158.513 144.208 158.746C141.237 159.056 138.475 160.036 135.669 158.522C133.928 157.583 132.22 156.424 130.241 156.764ZM135.267 162.747C133.817 162.694 132.473 162.282 131.493 161.053C130.899 160.306 130.716 159.385 130.499 158.472C132.389 159.53 134.403 160.82 135.264 162.747H135.267ZM82.4681 168.317C82.0913 166.739 81.7377 165.115 81.1929 163.586C80.7726 162.401 80.2335 161.114 79.28 160.262C80.1582 159.391 81.0508 158.531 81.9928 157.746C82.0537 157.694 82.1174 157.644 82.1812 157.595C82.9492 159.638 84.0854 161.593 84.8998 163.595C85.9113 166.077 86.8706 168.697 86.4852 171.417C86.1316 173.919 84.8853 176.18 83.5434 178.275C83.5115 178.324 83.4796 178.373 83.4478 178.423C83.868 175.029 83.2623 171.641 82.4681 168.314V168.317ZM70.1677 159.26C71.1183 159.318 72.0719 159.402 73.0196 159.501C74.0253 159.606 75.0253 159.763 76.0107 159.986C76.457 160.088 76.9034 160.248 77.3555 160.32C76.06 161.581 74.7499 162.831 73.4805 164.121C73.2892 164.316 73.095 164.513 72.9008 164.708C72.5095 164.708 72.0893 164.792 71.727 164.778C70.8256 164.743 69.93 164.621 69.0316 164.592C66.739 164.513 64.2465 164.932 62.0061 165.394C57.8006 166.263 54.0038 167.89 50.4853 170.29C52.9199 167.343 55.8819 164.92 59.5425 163.281C61.6959 162.317 63.7885 161.236 65.9043 160.19C66.5187 159.885 67.1592 159.681 67.7998 159.428C68.5388 159.138 69.3996 159.21 70.1706 159.26H70.1677ZM69.7272 158.301C70.501 157.909 71.2662 157.502 72.0226 157.075C72.069 157.049 72.0951 157.017 72.1125 156.979C74.7528 157.24 77.4106 157.159 80.0393 156.662C80.5697 156.563 81.0914 156.441 81.6102 156.305C80.7001 156.996 79.8799 157.807 79.0626 158.629C78.7467 158.946 78.4279 159.26 78.1091 159.574C77.5526 159.158 76.7874 159.059 76.115 158.917C75.2079 158.722 74.2862 158.583 73.3645 158.481C72.4197 158.377 71.4748 158.339 70.5242 158.339C70.2807 158.339 70.0054 158.313 69.7243 158.301H69.7272ZM62.8205 166.242C65.0609 165.873 67.452 165.484 69.7272 165.646C70.1126 165.676 70.9531 165.835 71.7618 165.873C70.5126 167.16 69.2953 168.494 68.2838 169.953C67.5795 170.97 67.0027 172.077 66.255 173.065C65.3594 174.25 64.2754 175.325 63.2465 176.392C59.8584 179.905 56.0471 182.932 51.9055 185.507C48.0246 187.918 43.9583 190.002 39.8398 191.975C40.0659 191.696 40.2832 191.405 40.4716 191.094C41.4484 189.496 41.9672 187.587 42.5729 185.826C43.6308 182.738 44.7872 179.663 46.2827 176.758C47.2942 174.794 48.4391 172.937 49.7375 171.234C49.7839 171.249 49.839 171.243 49.8969 171.208C53.8676 168.732 58.2006 167.009 62.8234 166.245L62.8205 166.242ZM61.5394 179.547C63.2668 177.958 64.9971 176.261 66.5071 174.445C66.4057 175.491 66.4434 176.572 66.3274 177.609C66.1738 178.969 65.9275 180.317 65.5855 181.639C65.2609 182.897 64.8464 184.135 64.3856 185.35C64.0378 186.262 63.5016 187.195 63.148 188.151C61.8698 188.285 60.5975 188.45 59.3512 188.767C56.7717 189.418 54.4357 190.818 51.8939 191.6C49.4274 192.358 46.816 192.838 44.2945 193.401C42.2976 193.849 40.0862 194.323 38.0168 193.991C38.2283 193.747 38.4457 193.512 38.666 193.277C46.7175 189.604 54.9835 185.582 61.5394 179.547ZM65.2232 185.911C65.771 184.612 66.226 183.281 66.5825 181.915C66.9245 180.605 67.1679 179.271 67.3332 177.929C67.5099 176.496 67.7679 174.872 67.4723 173.445C67.4607 173.387 67.4375 173.341 67.4056 173.3C67.8606 172.672 68.2838 172.022 68.7185 171.382C69.5359 170.185 70.4952 169.159 71.4835 168.108C73.2863 166.193 75.1296 164.322 77.0222 162.497C77.4425 162.093 77.8569 161.68 78.2714 161.265C79.1496 162.203 79.8075 163.168 80.3523 164.374C80.9697 165.739 81.2798 167.216 81.6392 168.665C82.5377 172.289 83.2478 176.078 82.5406 179.803C82.5377 179.82 82.5377 179.838 82.5348 179.852C81.6334 181.253 80.6451 182.627 79.3264 183.609C75.915 186.149 71.3792 186.983 67.2781 187.663C66.2956 187.825 65.3014 187.927 64.3044 188.029C64.658 187.332 64.9362 186.576 65.2174 185.908L65.2232 185.911ZM71.3444 153.777C69.9735 153.597 68.6113 153.315 67.2752 152.925C67.252 152.917 67.2288 152.911 67.2027 152.905C64.0088 151.969 60.9916 150.427 58.4991 148.21C54.8588 144.97 52.6706 140.855 51.3722 136.386C52.917 138.29 54.6849 139.992 56.2587 141.896C58.6817 144.83 61.0061 147.765 63.9363 150.206C64.2986 150.508 64.7334 150.29 64.8319 149.866C64.9218 149.476 64.6696 149.221 64.4348 148.93C63.8436 148.195 63.1103 147.588 62.4524 146.917C61.5336 145.978 60.7511 144.915 59.9512 143.868C57.4093 140.544 54.6704 137.368 51.7547 134.367C51.0157 133.609 50.4128 132.902 50.3085 131.833C50.1926 130.619 49.9955 129.401 49.8824 128.181C49.6506 125.711 49.5694 123.23 49.5607 120.748C49.552 117.572 49.7375 114.373 50.3375 111.249C50.6099 109.829 50.9664 108.422 51.4446 107.059C51.8823 105.804 52.5895 104.767 53.1894 103.581C53.1314 103.695 54.5574 105.22 54.7052 105.406C55.2211 106.054 55.7254 106.714 56.2123 107.382C57.1891 108.719 58.1107 110.099 58.9744 111.514C59.8352 112.929 60.6381 114.382 61.38 115.864C61.7017 116.512 61.9568 117.372 62.5451 117.837C63.3886 118.502 64.2146 117.459 64.1247 116.631C63.9972 115.477 63.1393 114.155 62.6089 113.135C62.0582 112.075 61.5249 110.965 60.9424 109.939C60.2961 108.803 59.4266 107.751 58.731 106.638C58.0267 105.517 57.3427 104.383 56.6123 103.276C56.4123 102.974 54.4096 100.429 54.4647 100.339C55.624 98.4412 57.1978 96.4712 58.7715 94.9166C60.441 93.2662 62.2988 91.793 64.3363 90.6192C64.403 90.5785 65.6753 92.5863 65.8579 92.8217C66.2434 93.3185 66.6723 93.7805 67.11 94.2309C67.4723 94.6028 67.8172 95.1752 68.1939 95.4949C68.8982 96.0876 69.6837 94.9748 69.3678 94.2716C68.6113 92.5718 67.5505 90.9824 66.2579 89.6312C68.2026 88.7508 70.2662 88.1668 72.4139 88.0041C75.1209 87.7977 77.625 88.6811 80.2074 89.2796C80.1929 89.3494 80.1871 89.4191 80.1958 89.4976C80.1958 89.5034 80.1958 89.5063 80.1958 89.5121C77.8656 91.116 75.6803 92.9408 73.779 95.0416C71.4777 97.5811 69.588 100.641 68.5388 103.921C67.4781 107.245 67.1506 110.75 66.8491 114.21C66.5854 117.235 66.6405 120.272 67.0549 123.279C67.8983 129.392 70.2546 135.483 74.0659 140.356C77.4367 144.665 82.0479 148.212 87.0127 150.563C82.2334 153.292 76.9121 154.512 71.3386 153.783L71.3444 153.777ZM16.3287 114.138C16.6388 112.104 17.0475 110.081 17.5228 108.076C18.601 110.189 19.7284 112.275 20.9399 114.321C22.0471 116.192 23.2441 118.04 24.7715 119.597C25.2468 120.083 26.5163 121.599 27.2698 121.303C28.0263 121.004 27.6147 119.693 27.3655 119.185C26.8177 118.075 26.0583 117.035 25.3425 116.021C24.2614 114.228 23.3252 112.351 22.3804 110.479C21.2732 108.289 20.0704 106.182 18.6561 104.194C19.6995 101.178 21.1167 98.2727 23.1745 95.8319C26.0004 92.4759 30.0203 89.3407 34.2866 88.1581C34.3417 88.1435 34.4026 88.129 34.4518 88.1552C34.4982 88.1784 34.5214 88.2307 34.5417 88.2801C35.0315 89.4395 35.5764 90.6075 36.4111 91.5635C36.7212 91.918 36.9792 92.4032 37.524 92.2115C38.2834 91.9441 37.9965 91.3485 37.7704 90.84C37.4168 90.0526 37.0864 89.2564 36.7473 88.4632C36.5966 88.1116 36.443 87.7571 36.2256 87.4433C37.1936 87.1876 38.1066 86.8708 39.1007 86.6907C40.1093 86.5105 41.1266 86.3885 42.1497 86.3304C45.0886 86.1677 48.0072 86.5745 50.9287 86.7488C50.1694 87.0888 49.4216 87.452 48.6883 87.8326C48.0942 88.129 47.5145 88.4602 46.9436 88.7973C44.1264 90.4593 41.544 92.5253 39.3471 94.9544C38.2486 96.169 37.2458 97.4707 36.356 98.848C35.5329 100.121 34.5475 101.562 34.0809 102.997C32.8665 101.219 32.3187 98.9584 30.7217 97.5143C30.5043 97.3167 30.2464 97.1308 29.9537 97.122C29.4378 97.1104 29.0755 97.6538 28.9827 98.1652C28.7712 99.3187 29.4899 100.527 29.8899 101.568C30.258 102.524 30.6956 103.451 31.1623 104.36C31.5883 105.191 32.0491 106.016 32.5505 106.815C31.8868 108.719 31.3507 110.665 30.9304 112.641C30.9246 112.664 30.9246 112.685 30.9217 112.708C28.9393 119.746 29.4117 127.617 31.7593 134.437C34.362 142.003 39.5239 148.422 46.4711 152.243C46.0654 152.321 45.6567 152.382 45.2422 152.405C43.054 152.536 40.718 152.524 38.5674 152.065C35.0692 151.322 31.6144 149.988 28.519 148.195C25.528 146.463 22.8006 144.194 20.8182 141.335C18.4445 137.909 17.1402 133.731 16.3664 129.666C15.3839 124.493 15.5433 119.281 16.3287 114.138ZM29.5711 84.8398C31.8666 83.2707 33.9765 81.2745 35.8691 79.2522C37.7907 77.2037 39.4804 74.9547 40.8078 72.4761C42.1295 70.0092 43.396 67.4784 45.4016 65.4822C46.4103 64.4797 47.5725 63.6807 48.7985 62.9688C48.3637 64.7848 48.1753 66.688 47.8478 68.4837C47.3725 71.0901 46.6943 73.56 45.2162 75.7857C43.8829 77.7935 42.0715 79.4672 40.0833 80.8096C39.0283 81.5215 37.9008 82.1026 36.8169 82.7651C35.6517 83.4741 34.5301 84.2586 33.3041 84.863C32.481 85.2669 30.9507 85.9846 30.0377 85.4906C29.8088 85.3657 29.5972 85.1768 29.3943 84.9647C29.4696 84.9211 29.5276 84.8775 29.5711 84.834V84.8398ZM28.5335 83.9884C28.4668 84.0407 28.4031 84.0901 28.3364 84.1395C28.2871 84.1744 28.2205 84.2092 28.1741 84.1715C28.1538 84.154 28.1451 84.1308 28.1393 84.1075C27.8814 83.2591 28.4089 82.213 28.6233 81.3936C28.9856 80.0164 29.2059 78.6187 29.7798 77.3054C30.942 74.6409 32.7969 72.142 34.7098 69.9773C36.6169 67.8154 38.8138 65.9413 41.3295 64.5291C42.741 63.7388 44.2394 63.2274 45.8074 62.8496C45.9871 62.8061 46.1668 62.7625 46.3494 62.7189C45.8132 63.1199 45.3002 63.5383 44.8307 63.9654C42.7584 65.8512 41.3614 68.2774 40.0601 70.7298C38.6631 73.3653 37.0806 75.7712 35.0576 77.9737C33.9794 79.1476 32.7998 80.2256 31.6086 81.2832C30.5971 82.1811 29.603 83.1632 28.5364 83.9913L28.5335 83.9884ZM40.689 145.095C36.5415 141.07 33.2722 135.157 32.565 129.372C35.3735 132.345 37.4081 135.953 39.9325 139.173C40.234 139.559 40.7991 140.056 41.2745 139.586C41.6657 139.196 41.3527 138.502 41.1991 138.072C40.7064 136.683 40.0746 135.535 39.2572 134.286C38.3906 132.961 37.4719 131.67 36.5009 130.421C35.7039 129.395 34.7707 128.442 34.0258 127.388C33.2722 126.318 32.6056 125.168 31.8723 124.078C31.8376 124.026 31.797 123.982 31.7535 123.941C31.7303 123.575 31.71 123.206 31.6984 122.84C31.5564 118.836 32.0781 114.823 32.907 110.904C33.194 110.134 33.4896 109.369 33.791 108.611C34.0896 108.998 34.3997 109.372 34.7272 109.733C34.7649 109.773 34.8025 109.805 34.8431 109.837C34.8518 109.849 34.8576 109.863 34.8663 109.875C35.4141 110.712 36.7328 110.192 36.4894 109.189C36.4778 109.137 36.4604 109.082 36.4488 109.029C36.4488 108.939 36.4343 108.849 36.4024 108.753C36.3763 108.678 36.3473 108.605 36.3184 108.53C36.0198 107.446 35.6401 106.374 35.1967 105.325C36.7415 101.992 38.6254 98.8567 41.2918 96.169C45.506 91.9267 51.233 89.0443 57.0268 87.7077C59.5773 87.1178 62.0408 86.9987 64.5421 87.4345C64.3508 87.5333 64.1624 87.635 63.9769 87.7396C60.8322 89.4976 58.018 91.9558 55.7225 94.8149C55.2617 94.6958 54.7661 94.658 54.3168 94.6726C52.9054 94.7191 51.5577 95.2043 50.2824 95.7767C48.071 96.7705 46.0451 98.0083 44.6974 100.054C43.2888 102.19 42.2367 104.546 41.4252 106.966C40.6484 109.291 40.3934 111.72 40.6919 114.152C40.9296 116.102 41.4426 118.142 42.7526 119.664C43.7438 120.815 45.677 121.658 47.2769 121.315C47.0682 121.384 47.2305 125.336 47.2769 125.845C47.2798 125.891 47.2826 125.943 47.2508 125.975C47.2189 126.007 47.1667 126.01 47.1232 126.01C45.1118 125.996 43.3062 127.632 42.7062 129.494C42.115 131.333 42.4802 133.411 43.0192 135.215C44.3206 139.551 46.7407 143.712 50.0042 146.838C51.6417 148.404 53.5256 149.689 55.4849 150.813C57.4441 151.94 59.4961 152.74 61.4989 153.771C61.0496 153.98 60.5337 154.001 60.0381 153.989C57.2934 153.925 54.6328 153.056 52.0649 152.08C47.8362 150.47 43.9583 148.271 40.689 145.1V145.095ZM48.6507 108.309C48.2768 108.309 47.8913 108.35 47.6362 108.608C47.4334 108.814 47.3609 109.137 47.4334 109.419C47.5058 109.701 47.7116 109.939 47.9695 110.076C48.0942 110.139 48.2507 110.206 48.2739 110.346C48.2826 110.392 48.2739 110.442 48.2623 110.488C47.729 113.051 47.5029 115.788 47.3696 118.412C47.3551 118.688 47.3435 118.964 47.3319 119.237C46.6276 119.284 45.9697 119.472 45.2451 119.162C44.593 118.88 44.1061 118.333 43.7467 117.735C42.8656 116.268 42.5932 114.451 42.5381 112.763C42.4599 110.337 43.1062 108.123 43.9844 105.883C44.622 104.258 45.2973 102.62 46.3146 101.19C47.4363 99.6151 48.9724 98.6708 50.7142 97.8775C51.7229 97.4184 52.8387 97.0145 53.9488 96.8983C54.0328 96.8896 54.1111 96.8867 54.1922 96.8838C53.9082 96.8896 52.7431 99.0863 52.5547 99.4408C52.0272 100.435 51.5229 101.443 51.0533 102.468C50.5635 103.538 50.1781 104.642 49.7172 105.72C49.5897 106.019 48.8912 108.312 48.8535 108.309C48.7869 108.309 48.7173 108.303 48.6478 108.303L48.6507 108.309ZM53.5024 146.919C52.6532 146.335 51.8359 145.708 51.0707 145.019C48.9985 143.154 47.4189 140.826 46.2219 138.319C45.2828 136.357 44.393 134.178 44.2887 131.978C44.2452 131.046 44.3467 130.093 44.8365 129.276C45.2944 128.512 46.5494 128.03 47.3899 127.908C47.6652 130.383 48.0072 132.879 48.5202 135.32C49.3926 139.472 51.0012 143.499 53.5053 146.919H53.5024ZM84.7462 145.949C82.2739 144.461 79.9785 142.703 77.9584 140.637C73.8775 136.465 71.0314 130.831 69.7793 125.141C69.0924 122.029 68.8809 118.839 69.0171 115.657C69.0895 113.96 69.2489 112.261 69.4866 110.578C69.9184 107.53 70.5503 104.47 71.8545 101.664C73.2167 98.726 75.2253 96.2068 77.6048 94.0508C78.6395 93.1209 79.7292 92.2754 80.8654 91.4938C80.7349 91.5838 82.9174 94.844 83.0884 95.1084C83.584 95.8784 84.2274 96.5293 85.2012 96.5874C86.6678 96.6775 85.836 94.4111 85.5403 93.6759C84.9954 92.3219 84.0361 91.1422 83.0391 90.099C83.613 89.7533 84.1955 89.4191 84.7868 89.0966C87.8677 87.4084 90.9949 85.7463 94.4497 84.9676C96.3887 84.5318 98.3103 84.5376 100.255 84.9357C101.165 85.1216 102.066 85.3599 102.962 85.6098C103.458 85.7493 103.956 85.912 104.458 86.0427C101.432 88.2888 98.9827 91.1451 96.8118 94.1989C96.7916 94.228 96.7684 94.257 96.7365 94.2687C96.6901 94.2832 96.6408 94.257 96.6003 94.2309C95.98 93.8386 95.4091 93.5161 94.6903 93.336C93.7396 93.1006 92.7513 93.1529 91.8065 93.3824C89.4588 93.9491 87.7401 95.4629 85.9345 96.9361C84.0854 98.4441 82.4304 100.19 81.0219 102.117C79.5379 104.148 78.0627 106.475 77.8569 109.047C77.6772 111.281 78.7496 113.173 80.5205 114.469C82.2044 115.698 84.2622 116.363 86.2591 116.884C87.2503 117.142 88.4328 117.456 89.6009 117.575C89.4994 119.324 89.482 121.076 89.569 122.817C88.2068 122.317 86.7692 121.905 85.4012 121.573C83.4825 121.111 81.5957 120.879 79.7988 121.843C78.3815 122.605 76.9874 123.994 76.8889 125.694C76.7295 128.407 78.196 131.168 79.5234 133.434C80.7523 135.535 82.2276 137.897 84.0013 139.562C85.7751 141.227 87.7343 142.503 90.053 143.284C91.6152 143.81 93.3107 144.086 94.9598 143.999C95.9771 143.944 97.1249 143.805 98.1248 143.409C99.6261 144.854 101.327 146.115 103.237 147.137C105.397 148.294 107.66 149.073 109.973 149.665C107.376 149.709 104.788 149.802 102.185 149.956C99.0001 150.142 95.7627 150.226 92.6441 149.453C89.8588 148.762 87.2068 147.431 84.7549 145.955L84.7462 145.949ZM116.978 62.3063C117.752 64.8894 118.662 67.3389 118.497 70.0673C118.378 72.0432 118.158 74.0394 118.497 76.0065C118.549 76.3145 118.63 76.6545 118.743 76.9974C118.077 76.454 117.422 75.8961 116.772 75.3324C113.645 72.6243 110.921 69.4019 107.405 67.1646C105.788 66.136 104.063 65.3078 102.29 64.5756C100.585 61.5334 97.5016 59.4733 95.1598 56.9657C93.8469 55.5593 93.0382 53.7723 91.7369 52.3544C91.0529 51.6076 90.2153 51.0032 89.3893 50.4221C89.1661 50.2652 88.9342 50.1054 88.6966 49.9514C90.7399 50.0531 92.7861 50.0182 94.8294 49.9891C96.7597 49.963 98.7624 49.8119 100.646 50.3146C102.495 50.8056 104.098 51.8546 105.991 52.2527C107.904 52.6536 109.837 52.8309 111.599 53.7462C112.753 54.3447 114.555 55.2717 115.17 56.4862C115.283 56.7071 115.349 56.9482 115.419 57.1865C115.912 58.9067 116.465 60.5919 116.978 62.3005V62.3063ZM122.126 78.1161C122.416 79.0924 122.943 79.7839 123.598 80.365C123.465 80.3098 123.328 80.2546 123.198 80.1965C121.01 79.2231 120.039 76.7969 119.914 74.4985C119.819 72.7318 120.056 70.9768 120.097 69.2102C120.152 66.72 119.251 64.224 118.436 61.9024C118.091 60.9232 117.601 59.9992 117.306 58.9996C117.268 58.8747 117.239 58.6016 117.19 58.3052C117.993 59.1943 118.752 60.1212 119.477 61.0423C120.729 62.6375 121.679 64.3083 122.036 66.3277C122.378 68.2542 122.198 70.2649 122.021 72.2001C121.845 74.1353 121.563 76.2157 122.129 78.1161H122.126ZM90.7834 53.0953C92.0702 54.5336 92.8238 56.3671 94.0874 57.8286C95.8902 59.9149 98.0987 61.5537 99.8377 63.6313C98.174 63.0269 96.4959 62.469 94.8439 61.885C92.7339 61.1382 90.7109 60.3159 88.7922 59.1507C87.0677 58.1047 85.4534 56.8901 83.8941 55.6116C82.1696 54.1966 80.5089 52.703 78.7902 51.2793C77.4048 50.1315 75.8223 48.6787 74.15 48.0307C74.3789 48.1208 75.4194 47.7082 75.7353 47.682C76.2454 47.6356 76.7874 47.5716 77.3062 47.6094C79.022 47.7343 80.6567 48.5014 82.2855 49.0012C83.8042 49.4661 85.3925 49.6986 86.9779 49.8351C87.9633 51.1224 89.7197 51.9011 90.7834 53.0924V53.0953ZM77.6424 52.2178C79.1843 53.5341 80.6973 54.8852 82.2507 56.1898C85.3751 58.8166 88.6415 61.083 92.4151 62.6666C96.7452 64.4826 101.209 65.8309 105.33 68.1205C106.457 68.7482 107.495 69.4891 108.483 70.2911C108.478 70.2911 108.472 70.2969 108.466 70.2998C107.95 70.5351 107.414 70.724 106.869 70.8809C105.643 71.2383 104.374 71.4417 103.101 71.555C100.548 71.7846 97.9712 71.6945 95.4178 71.5056C92.5658 71.2935 89.9052 70.785 87.2909 69.5821C85.9983 68.9864 84.7462 68.3065 83.526 67.5743C83.0333 67.2779 82.5493 66.9699 82.0595 66.6764C81.6885 66.4527 79.8162 65.5752 80.7175 66.6038C81.2624 67.2256 82.1319 67.6673 82.8246 68.0915C84.2622 68.9719 85.7519 69.8581 87.2909 70.5497C89.9139 71.7294 92.5716 72.2321 95.4178 72.4732C98.1161 72.6999 100.84 72.8132 103.539 72.5401C104.8 72.4122 106.057 72.2117 107.275 71.8485C107.759 71.7032 108.767 71.4708 109.379 71.0465C111.367 72.7841 113.184 74.7397 115.17 76.4802C116.619 77.7528 118.094 78.9994 119.656 80.1355C119.943 80.3447 120.239 80.5307 120.537 80.7079C117.639 80.7922 114.767 81.1902 111.993 82.0997C110.338 82.6431 108.822 83.4189 107.263 84.1744C107.196 84.2063 107.127 84.2412 107.052 84.2499C106.976 84.2586 106.901 84.2441 106.826 84.2296C105.826 84.0262 104.852 83.7792 103.872 83.538C102.965 83.3143 102.061 83.0644 101.148 82.8697C99.8058 82.585 98.4378 82.4106 97.064 82.4426C96.4409 82.4571 95.8206 82.524 95.2033 82.585C94.7367 82.6315 94.2584 82.7942 93.786 82.7913C93.4817 82.7913 93.1832 82.7157 92.8904 82.6344C91.2935 82.1985 89.7023 81.5506 88.2531 80.7428C86.5576 79.7984 85.6273 78.2526 84.8244 76.5354C84.01 74.7861 83.3927 72.9527 82.5667 71.2093C81.674 69.3322 80.4828 67.6004 79.4655 65.7873C77.5381 62.3441 76.1382 58.7323 74.547 55.138C73.8978 53.6706 73.2544 52.1916 72.7878 50.6633C72.5559 49.902 72.324 49.1407 72.1472 48.3649C72.1327 48.3039 72.1212 48.2428 72.1357 48.1818C72.1791 48.022 72.411 47.99 72.553 48.0743C72.695 48.1615 72.7791 48.3155 72.8834 48.4462C73.3877 49.0739 74.3558 49.4777 74.9934 49.9775C75.9006 50.6894 76.7614 51.4594 77.6395 52.2091L77.6424 52.2178ZM89.8037 114.882C88.9198 114.844 88.0445 114.736 87.1779 114.571C85.4853 114.245 83.784 113.681 82.2942 112.801C81.0885 112.086 80.1929 110.976 80.1031 109.535C80.0133 108.105 80.8016 106.624 81.3928 105.368C82.4159 103.198 84.0448 101.417 85.8678 99.8912C87.6387 98.4064 89.5922 96.7646 91.8094 96.0295C92.4238 95.8261 93.1716 95.6837 93.6962 95.7622C94.157 95.8319 94.5077 96.0469 94.8613 96.2823C94.7251 96.6659 94.6004 97.0552 94.4642 97.4446C94.0005 98.7725 93.4527 100.068 92.9194 101.367C91.821 104.049 91.0674 106.746 90.5602 109.602C90.253 111.34 89.995 113.103 89.8037 114.882ZM96.0293 141.123C95.7221 141.195 95.4062 141.25 95.0816 141.271C93.8817 141.352 92.7049 141.224 91.5456 140.913C89.6038 140.393 87.7894 139.417 86.2678 138.101C84.6766 136.723 83.6188 134.887 82.4942 133.097C81.4247 131.394 80.4277 129.602 79.8046 127.678C79.6046 127.065 79.4104 126.588 79.5698 125.964C79.7408 125.287 80.0857 124.685 80.6248 124.235C82.0739 123.02 83.6651 123.811 85.2563 124.339C86.7489 124.836 88.2734 125.615 89.8356 125.9C90.5515 131.453 92.589 136.845 96.0322 141.123H96.0293ZM106.312 145.22C102.458 143.581 99.032 140.841 96.6206 137.4C92.7977 131.944 91.7862 125.191 92.0586 118.563C92.3716 118.967 92.6905 119.368 92.9919 119.786C93.2672 120.231 93.8382 120.661 94.2439 120.978C94.8526 121.448 96.0873 121.498 95.9916 120.568C95.8815 119.496 95.0642 118.592 94.5454 117.7C93.9599 116.689 93.3455 115.695 92.6876 114.733C92.618 114.632 92.5455 114.524 92.5137 114.405C92.476 114.263 92.4992 114.114 92.5195 113.969C92.6673 112.978 92.6991 112.008 92.8615 111.017C93.1368 109.332 93.3803 107.466 94.0527 105.9C93.9715 106.089 96.8582 108.678 97.1538 108.986C99.3768 111.293 101.249 113.923 103.704 115.989C104.023 116.256 104.371 116.526 104.782 116.581C104.956 116.605 105.159 116.576 105.263 116.43C105.324 116.346 105.339 116.241 105.342 116.14C105.405 114.812 104.153 113.568 103.388 112.603C100.861 109.416 97.9828 106.597 95.125 103.721C95.0758 103.671 95.0236 103.616 95.0062 103.549C94.9859 103.474 95.0091 103.398 95.0323 103.323C95.5018 101.835 95.9539 100.342 96.4554 98.8654C96.7394 98.2553 97.0176 97.6422 97.3161 97.0349C97.9306 97.77 98.603 98.4732 99.174 99.2025C100.22 100.545 101.24 101.902 102.275 103.253C102.579 103.648 103.081 104.656 103.605 104.784C104.107 104.906 104.489 104.378 104.272 103.927C103.394 102.105 102.301 100.388 101.09 98.7696C100.191 97.5724 99.1827 96.5264 98.1625 95.4687C98.3538 95.152 98.5537 94.844 98.774 94.5418C100.342 92.3858 102.133 90.5029 104.22 88.8525C108.872 85.1768 114.289 83.1516 120.224 83.0877C122.013 83.0673 123.792 83.1835 125.566 83.3753C122.355 85.0635 119.34 87.2631 116.688 89.8404C116.486 89.483 116.193 89.1344 115.915 88.8118C115.77 88.6346 115.625 88.4631 115.477 88.2917C115.01 87.76 114.077 88.466 114.486 89.0588C114.865 89.6051 115.231 90.1717 115.636 90.7034C114.5 92.133 113.303 93.5219 112.24 95.0125C111.695 95.7796 111.176 96.5642 110.692 97.3719C110.44 97.7904 110.196 98.2175 109.964 98.6446C109.808 98.9294 109.341 99.525 109.341 99.8476C107.73 103.122 106.565 106.6 106.185 110.256C106.11 110.97 106.06 111.688 106.034 112.406C105.747 119.891 107.246 127.693 110.828 134.306C111.344 135.256 111.903 136.186 112.503 137.084C115.41 141.448 118.804 145.798 123.114 148.837C120.242 148.727 117.399 147.997 114.578 147.489C111.764 146.98 108.953 146.344 106.312 145.22ZM115.955 137.598C112.799 133.428 110.425 129.047 109.37 123.88C109.147 122.785 108.941 121.687 108.779 120.582C107.82 114.126 108.063 107.443 111.095 101.515C114.361 95.1258 119.674 89.6719 125.899 86.156C127.415 85.3018 128.998 84.5608 130.632 83.9652C130.768 83.939 130.893 83.8925 131.003 83.8315C133.09 83.1051 135.252 82.6198 137.461 82.4368C139.658 82.2537 141.915 82.3176 144.092 82.678C145.286 82.8755 146.469 83.1545 147.608 83.5642C148.216 83.7821 148.781 84.0872 149.355 84.3632C149.26 84.4155 149.164 84.4649 149.068 84.5172C147.66 85.2989 146.289 86.2113 145.043 87.2311C143.764 88.2772 142.643 89.5673 141.402 90.6686C141.292 90.7673 141.179 90.8661 141.046 90.9272C140.878 91.0027 140.692 91.0172 140.507 91.0289C138.556 91.1596 136.536 91.4066 134.809 92.4003C133.389 93.2139 131.913 95.5733 132.287 97.2702C132.406 97.802 132.609 98.3134 132.858 98.7957C133.29 99.6326 133.852 100.574 134.585 101.178C132.635 103.895 131.852 107.184 130.881 110.331C129.357 108.66 127.517 107.123 125.465 106.162C123.523 105.252 121.404 105.264 119.616 106.49C118.114 107.519 117.338 109.407 116.778 111.072C116.019 113.336 115.781 115.832 116.071 118.2C116.352 120.492 117.213 122.747 119.024 124.27C120.732 125.705 122.946 126.289 125.149 126.211C127.186 126.138 129.337 125.606 131.194 124.653C131.803 127.173 132.699 129.631 133.754 131.99C134.278 133.164 134.858 134.329 135.493 135.471C135.475 135.48 135.458 135.491 135.443 135.503C134.197 136.439 133.586 138.449 133.6 139.963C133.62 141.753 134.614 143.229 135.98 144.31C137.69 145.667 139.643 146.911 141.66 147.745C143.153 148.364 145.596 149.058 147.066 148.035C147.764 148.457 148.483 148.846 149.222 149.195C148.99 149.218 148.755 149.241 148.523 149.27C145.799 149.604 143.138 150.026 140.379 149.982C135.803 149.912 130.652 149.596 126.488 147.521C122.207 145.388 118.796 141.349 115.955 137.595V137.598ZM174.333 70.015C174.602 70.9565 174.907 71.8921 175.06 72.8626C175.243 74.0249 175.321 75.1871 175.44 76.3523C175.513 77.0613 175.585 77.9359 175.782 78.7553C175.739 78.703 175.692 78.6507 175.649 78.5984C173.333 75.8787 170.464 73.6762 168.968 70.3405C168.128 68.4663 167.913 66.3771 167.116 64.4855C165.667 61.051 163.035 58.4301 160.334 55.9806C160.111 55.7801 159.827 56.0794 160.009 56.3061C161.238 57.8286 162.418 59.4355 163.563 61.022C164.621 62.4893 165.673 64.0468 166.206 65.7931C166.716 67.458 166.922 69.7593 167.829 71.465C166.458 70.5264 165.044 69.6489 163.627 68.7888C160.746 67.0396 157.801 65.3456 155.146 63.2593C152.37 61.0801 150.17 58.4359 148.323 55.4315C147.213 53.627 146.216 51.7558 145.167 49.9136C144.672 49.0419 144.167 48.176 143.634 47.3275C143.338 46.8568 143.037 46.389 142.686 45.9561C142.643 45.9038 142.596 45.8515 142.55 45.805C143.069 45.9561 143.573 46.2786 143.962 46.5372C144.877 47.1445 145.703 47.8738 146.613 48.484C148.857 49.9921 151.109 51.3926 153.772 51.9795C156.407 52.5578 159.096 52.8483 161.717 53.4789C164.342 54.1094 166.626 55.2048 168.838 56.7477C172.814 59.5197 176.51 62.7944 178.921 67.06C179.695 68.4256 180.303 69.8727 180.947 71.3022C181.66 72.8946 182.399 74.5043 182.915 76.178C183.306 77.4536 183.318 78.7873 183.413 80.1064C183.454 80.6614 183.486 81.1932 183.587 81.7016C183.515 81.3384 178.767 81.6174 178.393 81.6145C178.321 81.6145 178.246 81.6145 178.185 81.5767C178.109 81.5302 178.072 81.4401 178.043 81.3559C177.959 81.1205 177.875 80.891 177.794 80.6614C177.53 79.9147 177.289 79.1853 177.147 78.3892C176.95 77.285 176.837 76.1663 176.736 75.0506C176.576 73.2781 176.417 71.4417 175.733 69.7797C175.521 69.2625 175.089 67.9956 174.342 68.26C173.559 68.539 174.188 69.5153 174.333 70.0238V70.015ZM143.828 50.3059C144.709 51.9243 145.547 53.566 146.442 55.1758C148.152 58.2383 150.091 61.0598 152.738 63.3814C155.804 66.072 159.334 68.0915 162.798 70.2068C161.134 69.6809 159.517 69.0591 157.946 68.2833C156.395 67.5191 154.888 66.6677 153.427 65.7379C151.906 64.7703 150.309 63.7184 148.987 62.4923C148.767 62.2889 148.379 62.5533 148.555 62.8264C150.532 65.8686 153.92 67.859 157.047 69.5588C158.882 70.5584 160.841 71.2819 162.835 71.8863C163.94 72.2204 164.98 72.6011 166.026 73.0515C167.145 73.5338 168.293 73.8215 169.261 74.6002C170.907 75.9252 172.382 77.4303 173.771 79.0226C174.626 80.0018 175.428 80.9636 176.182 82.0155C175.426 82.0678 174.678 82.2247 173.965 82.4833C171.632 81.7394 169.365 81.3036 166.948 80.9229C164.629 80.5568 162.441 80.5074 160.12 80.8358C159.844 80.8735 159.569 80.92 159.294 80.9665C158.656 80.3767 157.714 79.9728 157.073 79.6067C155.792 78.8773 154.566 78.1044 153.546 77.0206C151.248 74.5798 149.158 71.7962 147.558 68.847C146.045 66.0633 145.135 62.9949 144.367 59.9324C143.993 58.4417 143.643 56.9424 143.272 55.4518C143.011 54.4087 142.521 53.4876 142.269 52.4706C141.967 51.2531 141.611 50.0502 141.347 48.824C141.202 48.1499 140.649 46.3077 141.443 45.8398C141.727 46.4588 141.973 47.0835 142.336 47.6908C142.849 48.5508 143.344 49.4225 143.822 50.303L143.828 50.3059ZM159.598 83.9216C161.859 83.5148 164.056 83.4683 166.328 83.8402C167.496 84.032 168.658 84.2586 169.829 84.4272C165.713 86.4902 162.14 89.5412 159.201 93.2081C157.798 94.9602 156.462 96.8663 155.668 98.9642C154.743 97.7671 153.746 96.6223 152.732 95.5123C150.825 93.4202 148.761 91.395 146.422 89.7823C150.265 86.8243 154.764 84.7904 159.598 83.9245V83.9216ZM135.71 98.7318C135.249 98.264 134.846 97.7119 134.699 97.0697C134.507 96.2387 134.846 95.4222 135.536 94.9428C136.568 94.2251 137.835 93.8328 139.104 93.5655C138.785 93.9955 135.481 98.5022 135.71 98.7289V98.7318ZM130.699 122.192C126.931 123.994 121.447 125.104 119.204 120.556C118.172 118.464 118.277 115.797 118.659 113.559C118.955 111.828 119.48 110.087 120.65 108.739C121.021 108.312 121.503 107.957 122.056 107.844C123.575 107.53 125.192 108.681 126.291 109.576C127.717 110.735 129.113 111.929 130.482 113.156C130.539 113.208 130.6 113.263 130.632 113.336C130.667 113.423 130.658 113.519 130.647 113.612C130.508 114.751 130.342 115.898 130.342 117.049C130.29 118.778 130.424 120.495 130.699 122.192ZM139.831 141.782C141.055 143.221 142.396 144.563 143.854 145.763C143.338 145.644 142.834 145.464 142.356 145.252C140.75 144.543 139.197 143.526 137.785 142.482C136.872 141.805 136.049 140.963 136.058 139.763C136.064 139.06 136.209 138.246 136.695 137.711C136.542 137.88 139.576 141.489 139.829 141.785L139.831 141.782ZM130.522 151.853C133.041 152.397 135.652 152.612 138.162 152.748C138.53 152.769 138.895 152.78 139.26 152.792C137.71 153.14 136.116 153.236 134.574 153.62C132.661 154.094 131.087 155.096 129.635 156.331C129.615 156.305 129.598 156.276 129.577 156.25C129.406 156.037 129.227 155.846 129.038 155.671C129.148 154.355 129.829 153.077 130.519 151.853H130.522ZM150.062 147.242C147.912 146.234 145.924 144.891 144.153 143.308C140.884 140.388 138.281 136.773 136.278 132.882C134.119 128.686 132.507 123.97 132.249 119.257C132.081 116.186 132.478 113.161 133.345 110.215C133.904 108.312 134.725 106.504 135.458 104.668C135.388 104.845 136.93 106.377 137.113 106.586C137.716 107.286 138.319 107.989 138.921 108.69C140.104 110.061 141.289 111.427 142.489 112.781C143.689 114.135 144.903 115.474 146.141 116.793C146.747 117.439 147.358 118.075 147.976 118.708C148.425 119.167 148.944 120.112 149.718 119.891C150.761 119.595 150.454 118.514 150.132 117.822C149.268 115.965 147.747 114.53 146.425 113.007C143.283 109.393 139.878 106.098 136.455 102.753C137.791 99.6703 139.446 96.9274 141.62 94.3675C142.486 93.3476 143.411 92.3887 144.388 91.4938C144.869 91.8889 145.33 92.3132 145.773 92.7548C145.9 92.8885 146.028 93.0192 146.158 93.15C147.286 94.3268 148.326 95.6053 149.405 96.8199C150.964 98.5749 152.596 100.289 154.248 101.98C153.314 103.898 152.636 105.918 152.199 108.027C150.99 113.873 151.083 120.289 152.222 126.144C153.981 135.204 159.375 143.16 167.728 147.094C164.902 148.146 161.812 149.212 158.775 149.247C155.763 149.279 152.784 148.523 150.065 147.248L150.062 147.242ZM166.371 143.406C164.293 142.119 162.415 140.515 160.812 138.67C157.9 135.32 155.876 131.272 154.778 126.978C154.155 124.54 153.92 122.044 153.784 119.536C153.616 116.5 153.636 113.423 154.08 110.41C154.419 108.094 155.019 105.822 155.905 103.663C156.83 104.595 157.757 105.525 158.682 106.452C158.957 106.734 159.476 106.76 159.728 106.42C159.972 106.098 159.766 105.7 159.604 105.365C159.253 104.642 158.902 103.962 158.47 103.297C158.328 103.079 157.097 101.161 157.16 101.045C158.375 98.8131 159.494 96.5206 160.891 94.3965C162.354 92.1679 164.215 90.471 166.339 88.8757C168.191 87.4868 170.232 86.3478 172.385 85.4994C176.168 84.0117 180.396 83.4334 184.419 84.0088C185.999 84.2354 187.572 84.5724 189.085 85.0868C189.578 85.2553 190.097 85.4151 190.558 85.665C190.697 85.7405 191.474 86.3449 191.584 86.2839C190.946 86.6355 190.317 87.0248 189.671 87.359C188.735 87.8384 187.784 88.3673 186.848 88.9426C185.903 87.5973 184.99 86.2316 184.013 84.9095C183.552 84.2877 182.616 84.8078 182.967 85.5226C183.692 87.0016 184.584 88.4167 185.558 89.7852C185.344 89.4772 180.344 94.4517 179.967 94.8643C179.588 93.7224 178.704 92.7606 177.602 92.2812C174.8 91.0666 172.058 93.2401 169.951 94.844C166.699 97.3225 164.354 101.373 163.07 105.179C162.461 106.987 161.644 109.262 162.369 111.151C162.772 112.202 163.56 112.673 164.589 112.929C166.171 113.318 167.574 113.545 169.22 113.507C169.91 113.522 170.597 113.516 171.272 113.516C171.333 113.516 171.391 113.507 171.446 113.498C171.159 116.605 171.348 119.74 172.003 122.82C169.609 123.189 167.461 124.688 166.479 126.963C165.493 129.244 166.009 131.746 167.171 133.858C168.275 135.866 169.936 137.627 171.585 139.193C173.385 140.902 175.397 142.529 177.68 143.537C178.791 144.025 179.999 144.4 181.222 144.357C181.918 144.331 182.77 144.206 183.361 143.793C184.581 145.008 185.883 146.126 187.259 147.123C183.636 148.018 179.843 147.788 176.214 147.041C172.823 146.344 169.336 145.246 166.374 143.412L166.371 143.406ZM187.21 91.9906C188.271 93.3389 189.372 94.6464 190.433 95.9336C193.204 99.3013 196.085 102.579 198.8 105.993C201.536 109.433 204.377 112.787 207.145 116.201C209.93 119.632 212.307 123.299 214.672 127.027C215.301 128.018 215.938 129.003 216.593 129.974C216.561 129.942 216.532 129.91 216.5 129.878C213.825 127.123 211.008 124.517 208.281 121.82C202.574 116.175 197.093 110.34 191.607 104.485C188.795 101.486 186.01 98.4674 182.941 95.7331C183.251 95.4368 183.558 95.1375 183.857 94.8295C184.877 93.7718 186.01 92.8333 187.213 91.9906H187.21ZM173.365 127.478C173.8 128.739 174.402 130.043 174.704 131.348C174.721 131.424 174.739 131.499 174.753 131.575C174.081 131.601 172.513 132.153 172.82 133.068C172.994 133.58 173.556 133.879 174.075 133.765C174.571 133.658 175.06 133.591 175.539 133.411C175.634 133.373 175.727 133.327 175.814 133.269C177.475 136.52 179.532 139.609 181.958 142.311C181.782 142.352 181.602 142.387 181.408 142.398C180.529 142.465 179.651 142.236 178.84 141.916C176.962 141.175 175.281 139.885 173.785 138.548C171.188 136.229 167.438 132.676 167.965 128.82C168.171 127.321 169.02 126.62 170.133 125.734C170.777 125.22 171.464 124.688 172.278 124.581C172.475 124.554 173.284 127.263 173.359 127.478H173.365ZM173.333 118.955C175.031 120.234 176.466 121.913 177.936 123.418C179.999 125.531 182.254 127.466 184.355 129.544C188.853 133.992 193.441 138.351 198.093 142.636C200.56 144.906 203.052 147.146 205.611 149.308C205.467 149.322 205.325 149.34 205.18 149.354C198.371 149.997 191.943 148.064 186.688 143.683C181.889 139.681 178.159 134.291 175.799 128.512C174.53 125.403 173.658 122.21 173.33 118.955H173.333ZM171.669 111.575C171.194 111.566 170.727 111.525 170.252 111.549C168.742 111.549 167.215 111.514 165.754 111.156C164.98 110.968 164.056 110.741 163.687 109.968C163.406 109.372 163.67 108.567 163.812 107.954C164.003 107.129 164.195 106.304 164.496 105.514C164.855 104.575 165.366 103.7 165.873 102.832C167.562 99.9405 169.426 97.0204 172.374 95.2828C173.834 94.4227 175.675 93.1587 177.376 94.135C178.153 94.5796 178.701 95.3699 178.906 96.23C178.906 96.2242 178.199 97.0756 178.133 97.1743C177.866 97.5666 177.556 97.9327 177.269 98.3134C176.646 99.1386 176.075 100.002 175.55 100.891C174.487 102.692 173.62 104.607 172.936 106.577C172.371 108.201 171.948 109.878 171.678 111.575C171.675 111.575 171.669 111.575 171.666 111.575H171.669ZM212.527 147.785C211.243 148.195 209.924 148.372 208.66 148.767C208.516 148.814 208.359 148.858 208.217 148.808C208.113 148.773 208.034 148.692 207.956 148.611C207.081 147.713 206.162 146.893 205.296 145.99C204.397 145.051 203.415 144.203 202.435 143.351C200.27 141.468 198.212 139.472 196.035 137.604C193.595 135.512 191.068 133.524 188.697 131.351C187.462 130.218 186.39 128.875 185.233 127.64C183.973 126.295 182.732 124.935 181.454 123.604C179.037 121.088 176.408 118.775 173.608 116.698C173.492 116.61 173.371 116.52 173.31 116.39C173.249 116.262 173.252 116.111 173.258 115.968C173.324 114.152 173.484 112.502 173.889 110.738C174.284 109.029 174.846 107.359 175.536 105.746C176.924 102.503 178.834 99.4989 181.045 96.7588C181.121 96.6659 181.205 96.5671 181.324 96.5525C181.463 96.5351 181.587 96.6426 181.686 96.7414C184.396 99.435 186.842 102.442 189.436 105.264C192.05 108.111 194.65 111 197.38 113.737C200.2 116.703 203.102 119.592 206.011 122.471C208.782 125.211 211.663 127.841 214.388 130.627C217.103 133.405 219.833 136.424 223.306 138.269C224.042 138.659 224.775 138.06 224.639 137.293C224.514 136.59 223.914 136.218 223.442 135.744C222.827 135.122 222.236 134.477 221.668 133.815C217.112 128.497 214.022 122.128 209.701 116.637C206.982 113.179 203.939 110.003 201.157 106.597C198.435 103.265 195.691 99.958 192.926 96.66C191.407 94.8498 189.906 93.028 188.471 91.1509C190.103 90.1252 191.824 89.239 193.598 88.4864C198.316 91.8163 202.278 96.2097 206.472 100.138C210.701 104.099 214.985 108.018 219.042 112.159C219.425 112.595 219.81 113.028 220.19 113.466C222.654 116.323 224.85 119.4 227.731 121.849C227.74 122.108 227.749 122.364 227.757 122.622C227.949 128.867 228.334 136.328 223.949 141.381C221.967 143.665 219.355 145.138 216.593 146.28C215.324 146.917 213.88 147.344 212.533 147.777L212.527 147.785ZM227.488 118.543C225.847 116.756 224.329 114.858 222.726 113.036C220.393 110.386 217.976 107.815 215.529 105.275C213.689 103.363 211.785 101.524 209.86 99.7052C209.846 99.6878 209.828 99.6703 209.814 99.6558C207.281 97.0058 204.612 94.4895 201.838 92.0923C201.829 92.0836 201.818 92.0749 201.809 92.0662C201.334 91.5984 200.858 91.1276 200.389 90.654C199.287 89.5411 198.18 88.3033 196.957 87.2428C202.218 85.5139 207.869 84.7381 213.266 86.3275C216.034 87.144 218.599 88.591 220.639 90.6482C223.074 93.1006 224.636 96.3462 225.784 99.5715C227.001 102.989 227.618 106.56 227.702 110.186C227.766 112.981 227.633 115.776 227.488 118.546V118.543ZM218.967 50.2245C219.407 49.8032 219.88 49.4138 220.364 49.0564C221.468 48.2428 222.593 47.6123 224.013 47.6733C223.323 48.7426 222.819 49.8613 222.152 50.9248C221.416 52.0987 220.465 53.2261 219.848 54.4668C219.236 55.4431 218.503 56.338 217.892 57.3056C217.619 57.7386 216.329 59.4762 216.387 59.8219C216.283 59.2088 216.187 58.5957 216.15 57.9797C216.034 56.0242 216.213 54.1123 217.118 52.5403C217.61 51.6832 218.248 50.9131 218.967 50.2274V50.2245ZM7.6164 83.8257C10.3176 74.6525 14.6593 66.0982 19.5922 57.942C24.4643 49.8904 30.1218 42.3414 36.5038 35.4288C42.1642 29.2979 48.4333 23.841 55.5254 19.4302C68.9794 11.0648 84.3636 6.17452 100.043 4.27421C115.88 2.35356 132.035 3.30371 147.637 6.55225C157.198 8.54264 166.432 11.7273 175.402 15.5686C180.025 17.5473 184.413 20.0346 188.61 22.7979C190.711 24.181 192.766 25.6367 194.783 27.136C196.108 28.1211 197.508 29.0044 198.806 30.0243C202.478 32.9125 205.751 36.2802 208.884 39.735C210.298 41.2954 211.57 42.9952 212.86 44.6689C213.228 45.1483 216.75 49.8758 216.382 50.21C214.141 52.2323 212.08 54.4987 209.918 56.6693C207.446 59.2117 204.748 61.4636 202.105 63.823C199.311 66.319 196.462 69.1433 194.96 72.6476C194.236 74.3358 193.894 76.1576 193.882 77.994C193.873 79.1795 193.873 80.3679 193.975 81.5506C194.004 81.8963 194.047 84.3255 194.862 83.5148C195.267 83.1109 195.018 82.2479 194.995 81.7481C194.954 80.8939 194.821 80.0396 194.827 79.1824C194.838 77.5988 194.937 75.9949 195.378 74.4665C196.296 71.2703 198.58 68.6203 200.939 66.3713C203.217 64.195 205.725 62.2801 208.066 60.1793C210.562 57.9449 212.767 55.4082 215.251 53.1592C214.712 54.6353 214.637 56.2683 214.712 57.8345C214.773 59.0577 214.837 60.4408 215.216 61.6641C214.469 62.8903 213.764 64.1398 213.153 65.4357C211.678 68.5564 211.072 71.9328 210.643 75.3324C210.463 76.7475 210.304 78.1684 209.965 79.5573C209.742 80.4696 209.382 81.3268 209.049 82.1927C208.524 80.1064 208.182 77.9708 207.301 75.9978C206.719 74.6961 206.081 73.4321 205.553 72.1013C205.298 71.4592 204.754 69.2828 203.939 69.155C203.362 69.0649 203.496 69.9424 203.591 70.3463C203.762 71.0669 204.041 71.7555 204.304 72.4471C204.791 73.7198 205.33 74.9576 205.907 76.1925C206.884 78.2875 207.145 80.5917 207.797 82.7884C204.884 82.7041 201.939 83.0818 199.116 83.7937C197.528 84.1947 196.006 84.7904 194.436 85.2146C194.383 85.2291 194.331 85.2437 194.279 85.2379C194.21 85.232 194.146 85.1914 194.088 85.1536C193.126 84.526 192.21 83.8751 191.155 83.4189C189.688 82.7855 188.138 82.3787 186.57 82.0881C186.346 82.0474 186.123 82.0067 185.9 81.9719C185.764 79.8449 185.749 77.564 185.129 75.5562C184.21 72.5836 182.834 69.5995 181.422 66.8333C178.985 62.0535 175.086 58.343 170.725 55.3269C168.287 53.6416 165.786 52.3108 162.89 51.6134C160.056 50.9306 157.134 50.7301 154.285 50.1286C151.546 49.5475 149.063 48.0133 146.819 46.36C145.222 45.1832 143.243 43.4892 141.092 44.1313C139.35 44.6514 139.284 46.5866 139.576 48.0801C139.773 49.0826 140.176 50.0269 140.347 51.0207C140.634 52.6827 141.112 54.3099 141.443 55.9603C141.765 57.5788 142.11 59.1914 142.515 60.7924C143.321 63.9712 144.318 67.1413 145.906 70.0238C147.558 73.0195 149.703 75.8089 152.004 78.3311C153.054 79.4817 154.326 80.3679 155.668 81.1438C155.885 81.2687 156.126 81.4285 156.381 81.597C154.819 82.0097 153.285 82.5356 151.801 83.1777C150.564 81.4372 147.947 80.766 145.961 80.3331C143.785 79.8595 141.53 79.659 139.307 79.6909C137.652 79.7142 136 79.8943 134.374 80.2139C133.525 80.3796 132.684 80.5859 131.852 80.827C131.447 80.9433 131.026 81.135 130.612 81.2135C130.212 81.289 130.131 81.1873 129.737 81.1409C128.357 80.9752 127.038 80.3854 125.978 79.4904C124.836 78.5287 124.227 77.6134 124.149 76.0937C124.05 74.173 124.389 72.2582 124.508 70.3463C124.621 68.5186 124.581 66.659 124.131 64.8749C123.656 62.9891 122.7 61.3648 121.523 59.8365C119.181 56.7884 116.445 53.7549 113.016 51.9214C111.243 50.9742 109.391 50.6051 107.425 50.2768C106.304 50.0879 105.2 49.8526 104.156 49.3877C103.281 48.9983 102.411 48.606 101.484 48.3591C99.4957 47.8273 97.4321 47.9494 95.3975 48.0278C93.0991 48.1179 90.8008 48.2312 88.5024 48.1673C86.2939 48.1063 84.1347 47.8738 82.016 47.2317C80.5697 46.7958 79.1293 46.2612 77.6163 46.1188C77.0541 46.0665 76.5179 46.0984 75.9585 46.1333C75.2513 46.1769 74.8717 46.4123 74.234 46.6796C73.7993 46.8597 73.2921 46.8568 72.8631 46.668C72.5965 46.5517 72.3617 46.3716 72.1009 46.2466C71.6255 46.02 70.8633 45.8573 70.6285 46.4791C70.4459 46.9614 70.843 47.5832 70.9618 48.0452C71.3647 49.6201 71.6169 51.2095 72.0429 52.7699C72.5153 54.4987 73.3848 56.0882 74.0398 57.7473C74.8427 59.7813 75.7353 61.7745 76.7469 63.7155C77.8946 65.9209 79.1843 68.0392 80.4886 70.1574C81.7059 72.1362 82.471 74.3241 83.4159 76.4366C84.2535 78.3049 85.2331 80.1733 86.9663 81.3472C88.5169 82.399 90.3109 82.8261 92.0615 83.3782C89.198 84.2964 86.2649 85.6505 83.7231 87.234C83.6709 87.266 83.6187 87.298 83.5579 87.3096C83.4535 87.3299 83.3492 87.2776 83.2507 87.2282C81.6827 86.4321 80.1321 86.0747 78.4279 85.7173C76.7237 85.3599 75.005 85.0054 73.2573 85.0315C71.7444 85.0577 70.217 85.1914 68.7591 85.6214C68.5852 85.6737 68.4084 85.7289 68.2258 85.7318C68.0287 85.7318 67.8404 85.6766 67.652 85.6185C64.6928 84.7061 61.5047 84.0117 58.4006 84.4998C57.9948 84.5637 57.589 84.648 57.1775 84.648C55.8269 84.6538 54.4038 84.3894 53.0561 84.2557C51.5982 84.1105 50.1317 84.0523 48.6709 83.9187C46.5986 83.7298 44.5177 83.509 42.4338 83.602C41.2745 83.6543 40.1209 83.7821 38.9848 83.9797C40.8832 82.829 42.7468 81.6871 44.3814 80.1152C46.6943 77.8894 48.4159 75.1145 49.3057 72.0229C49.8187 70.2359 50.1201 68.3966 50.4476 66.5718C50.6911 65.2149 51.1258 63.8463 51.6997 62.5736C51.9924 61.9227 52.404 61.3155 52.6851 60.6646C52.7778 60.4496 52.8474 60.1968 52.7199 59.9701C52.5112 59.6011 52.204 59.7842 51.8736 59.8016C51.2012 59.8365 50.6389 59.9527 49.9752 60.1328C49.5259 60.2549 49.0506 60.313 48.584 60.435C47.4015 60.743 46.1813 60.8825 44.9988 61.1876C43.3467 61.6118 41.7701 62.2104 40.289 63.0618C37.6226 64.596 35.2634 66.6415 33.2635 68.9748C31.2811 71.2848 29.4291 73.836 28.3654 76.7126C27.8089 78.2207 27.5944 79.7955 27.2322 81.353C27.1829 81.5651 27.1336 81.7772 27.0843 81.9893C26.2902 80.8997 25.3222 79.9582 24.1918 79.4962C22.4702 78.796 19.9835 78.4589 18.1807 79.011C16.8562 79.4178 16.007 80.952 17.0504 82.1113C18.0068 83.1748 19.7139 83.5468 21.0385 83.8751C21.7428 84.0494 22.4528 84.1976 23.1658 84.34C22.1659 84.3894 21.1689 84.4824 20.1748 84.6131C17.5141 84.9618 14.8883 85.5778 12.3725 86.5163C10.1408 87.3474 7.9671 88.4399 6.02523 89.8259C6.51504 87.8181 7.03964 85.819 7.6222 83.8344L7.6164 83.8257ZM18.317 80.8997C18.3459 80.8561 18.3923 80.8009 18.4474 80.7776C18.7778 80.6265 19.1343 80.5801 19.4966 80.5568C20.5602 80.4871 21.6529 80.6033 22.6847 80.8503C23.9223 81.1467 24.8729 81.9922 25.6497 83.0179C25.5337 82.9976 25.4149 82.9772 25.3019 82.9569C23.7658 82.6692 22.2239 82.3932 20.7168 81.969C20.1197 81.8004 19.5111 81.6232 18.9546 81.3413C18.7807 81.2542 18.5807 81.1409 18.4474 81.0363C18.3662 80.9723 18.3286 80.9316 18.3112 80.9084C18.3112 80.9142 18.3112 80.92 18.3054 80.9258C18.2648 80.9927 18.2735 80.9578 18.3083 80.9055C18.2822 80.8677 18.3083 80.8764 18.3083 80.9026L18.317 80.8997ZM1.84297 96.2387C2.46321 95.1927 3.27473 94.2745 4.13843 93.4231C4.57318 92.9931 5.02242 92.5805 5.47745 92.1737C5.87742 91.8134 6.17304 91.4095 6.60779 91.0899C8.61342 89.6167 10.8683 88.5009 13.2101 87.6728C13.213 87.6728 13.2188 87.6728 13.2217 87.6699C15.6244 86.8214 18.1344 86.2374 20.6646 85.9381C21.8732 85.7957 23.0905 85.7115 24.3078 85.694C24.9048 85.6853 25.6903 85.8248 26.3772 85.7696C23.8324 88.1406 20.766 90.2269 17.5199 91.4415C15.5346 92.1824 13.4304 92.502 11.4741 93.336C10.3147 93.8328 9.10613 94.1989 7.92072 94.6261C7.32947 94.8382 6.74111 95.0648 6.17015 95.3292C5.94987 95.4309 4.7123 95.922 5.42238 96.2707C5.5673 96.3433 5.7412 96.323 5.9035 96.3026C8.06564 96.015 10.1727 95.4077 12.1667 94.5215C14.1202 93.6527 16.3664 93.4173 18.3662 92.6066C20.1748 91.8715 21.9109 90.9417 23.5165 89.8317C24.3194 89.2767 25.0932 88.6753 25.8178 88.0186C26.4496 87.4491 27.0467 86.8447 27.6843 86.2752C28.2697 86.7866 29.0117 87.1178 29.7856 87.2137C29.632 87.1934 29.0726 87.5566 28.9016 87.6437C28.5306 87.8326 28.177 88.0854 27.8292 88.315C27.1307 88.7682 26.4496 89.2506 25.7888 89.7562C24.4585 90.7732 23.2064 91.886 22.0239 93.0715C21.4819 93.6585 20.9747 94.2658 20.4994 94.8934C19.4995 95.4222 18.5546 96.0818 17.5605 96.6077C15.7491 97.5695 13.555 98.1536 11.503 98.1913C9.72057 98.2262 7.87435 98.0315 6.12667 97.6887C5.23689 97.5143 4.40508 97.2179 3.55297 96.9128C3.43704 96.8722 1.83717 96.2562 1.84587 96.2474L1.84297 96.2387ZM237.661 136.581C236.731 144.293 235.261 151.885 232.673 159.222C228.044 172.344 220.193 184.1 210.402 193.916C200.397 203.946 188.538 211.966 176.011 218.489C172.519 220.308 168.991 222.06 165.282 223.394C161.204 224.858 156.995 225.89 152.743 226.706C147.576 227.447 142.463 228.238 137.255 228.662C116.144 230.379 94.5454 229.487 74.35 222.624C59.8178 217.684 46.2885 210.219 35.301 199.376C25.1975 189.406 17.5576 177.104 11.9233 164.118C5.18762 148.59 0.118477 131.624 1.54444 114.498C1.86326 110.683 2.58494 106.914 3.45733 103.192C3.73557 102.006 3.98482 100.833 4.1935 99.6326C4.22248 99.4611 4.27175 99.2635 4.42826 99.188C4.51811 99.1444 4.62245 99.1531 4.72099 99.1618C5.11516 99.1996 5.49194 99.2577 5.88031 99.3158C7.57872 99.5773 9.26264 99.8156 10.9813 99.8505C13.1406 99.8941 15.3172 99.3739 17.3054 98.5458C17.717 98.3744 18.1112 98.1768 18.5024 97.9647C17.5112 99.7662 16.7258 101.687 16.12 103.689C15.4157 106.016 14.9172 108.405 14.4854 110.793C13.4681 116.419 13.1783 122.471 13.955 128.172C14.5607 132.609 15.7954 137.238 18.0532 141.134C21.934 147.838 29.0349 151.868 36.2894 153.928C38.7645 154.631 41.2339 154.843 43.7989 154.834C45.0915 154.829 46.3291 154.733 47.5986 154.483C48.442 154.317 49.4448 154.277 50.3143 154.021C52.8735 155.038 55.5544 155.881 58.2585 156.331C60.8612 156.764 63.8175 157.054 66.1564 155.788C67.0839 156.078 68.0287 156.316 68.9823 156.508C69.6489 156.642 70.3184 156.755 70.9879 156.845C69.2199 157.278 67.5273 157.929 65.8376 158.623C63.9334 159.405 62.0119 160.175 60.1424 161.035C56.9485 162.508 54.0038 164.077 51.4533 166.55C49.068 168.86 47.1638 171.621 45.6045 174.541C44.8278 175.994 44.1351 177.487 43.4946 179.001C43.1758 179.756 42.8975 180.535 42.57 181.288C42.4483 181.564 41.5759 183.185 41.7121 183.33C40.8658 182.435 39.9296 181.634 39.1152 180.718C38.2544 179.751 37.4371 178.745 36.6777 177.696C34.9909 175.372 33.507 172.908 32.0984 170.409C30.658 167.855 29.2639 165.275 27.8495 162.706C27.1742 161.48 26.4583 160.271 25.6555 159.126C24.9338 158.098 24.0962 156.784 23.0499 156.064C22.789 155.883 22.3398 156.119 22.3804 156.45C22.534 157.729 23.2267 159.077 23.7252 160.259C24.273 161.555 24.8671 162.831 25.499 164.086C26.8612 166.803 28.1915 169.534 29.658 172.199C31.0608 174.75 32.5506 177.26 34.2519 179.626C35.0779 180.773 35.9445 181.901 36.8893 182.953C38.0834 184.283 39.3007 185.591 40.5818 186.843C40.2253 187.701 39.976 188.572 39.5818 189.421C39.1297 190.394 38.4312 191.208 37.7124 191.989C37.1878 192.562 35.9561 193.5 35.7619 194.264C35.4112 195.633 38.2428 195.714 38.9993 195.746C40.4368 195.804 41.8715 195.581 43.2801 195.313C44.8742 195.011 46.5755 194.738 48.1058 194.221C48.1637 194.201 48.2246 194.18 48.2855 194.192C48.3463 194.201 48.3985 194.241 48.4478 194.279C50.2418 195.656 52.1112 196.81 53.9488 198.129C55.9341 199.556 57.931 200.901 60.1251 201.991C62.4553 203.147 64.8725 204.109 67.2549 205.146C69.7329 206.227 72.1472 207.447 74.6253 208.534C79.364 210.609 84.2042 212.474 89.2299 213.738C94.5309 215.072 99.9681 215.525 105.382 216.162C110.985 216.821 116.602 217.452 122.247 217.585C127.928 217.719 133.588 217.254 139.205 216.417C144.689 215.601 150.109 214.395 155.453 212.936C160.679 211.51 165.948 209.955 170.982 207.939C176.579 205.695 182.089 202.804 186.845 199.065C190.934 195.851 195.383 191.434 197.861 186.838C198.8 185.097 197.945 183.066 195.94 184.711C192.16 187.805 189.268 191.786 185.631 195.029C181.886 198.367 177.246 200.886 172.724 202.993C168.006 205.193 162.963 206.727 157.981 208.203C152.784 209.743 147.515 211.062 142.185 212.044C136.791 213.038 131.322 213.677 125.838 213.773C120.358 213.869 114.889 213.413 109.446 212.82C104.174 212.245 98.803 211.852 93.5918 210.853C88.6676 209.909 83.8854 208.357 79.2365 206.489C76.573 205.416 73.9645 204.213 71.3444 203.037C68.6113 201.811 65.7884 200.82 63.0118 199.701C60.5134 198.696 58.2151 197.417 55.9486 195.967C54.9081 195.302 53.885 194.599 52.8184 193.983C52.4619 193.779 52.0938 193.564 51.7171 193.378C53.9082 192.736 55.9602 191.766 58.0933 190.917C60.9366 189.787 64.0378 189.851 67.0201 189.386C71.3879 188.706 76.144 187.825 79.8538 185.266C81.787 183.932 83.0159 182.098 84.3288 180.186C85.8041 178.039 87.2156 175.77 87.9314 173.239C88.7835 170.22 88.2676 167.329 87.2416 164.426C86.6765 162.828 86.0012 161.271 85.294 159.731C84.8013 158.658 84.3346 157.586 83.7724 156.566C84.181 156.366 84.61 156.203 85.0592 156.096C86.4736 155.761 87.972 155.918 89.398 156.075C90.7457 156.221 92.0673 156.436 93.4237 156.319C94.3686 156.238 95.3105 156.232 96.1539 155.741C96.2438 155.689 96.3365 155.625 96.3829 155.532C96.4148 155.468 96.4206 155.395 96.4264 155.326C96.4467 154.983 96.4669 154.463 96.2061 154.195C95.8409 153.82 95.1076 154.067 94.641 154.099C93.502 154.175 92.3861 154.48 91.2384 154.448C89.7632 154.404 88.2676 154.268 86.804 154.364C88.0792 153.736 89.311 153.021 90.4906 152.234C90.5834 152.173 90.6645 152.103 90.7399 152.033C93.1687 152.763 95.6757 153.088 98.2465 153.106C101.661 153.132 105.058 152.708 108.466 152.606C112.495 152.487 116.52 152.452 120.546 152.257C123.337 152.121 126.218 152.138 129.009 151.743C128.708 152.339 128.476 152.96 128.299 153.515C128.154 153.966 128.047 154.434 127.98 154.904C128.05 154.419 124.731 153.948 124.372 153.913C123.178 153.797 121.868 153.969 120.72 153.678C120.511 153.626 120.277 153.614 120.103 153.739C119.894 153.887 119.848 154.192 119.926 154.436C120.143 155.125 120.992 155.907 121.566 156.311C122.068 156.665 123.14 157.345 123.781 157.29C123.198 157.339 122.618 157.409 122.045 157.511C119.651 157.938 117.532 159.027 115.909 160.855C114.092 162.901 112.196 165.01 110.912 167.448C110.077 169.035 109.614 171.042 108.202 172.222C107.773 172.582 105.779 174.178 107.173 174.52C110.19 175.256 113.231 173.96 116.271 174.076C118.911 174.178 121.859 174.677 124.186 173.105C126.32 171.664 128.377 169.572 129.487 167.218C130.493 165.083 130.183 162.773 129.748 160.515C130.171 161.465 130.725 162.305 131.638 162.985C132.502 163.624 135.678 164.842 136.574 163.868C137.408 162.962 135.907 161.082 135.322 160.416C134.267 159.216 132.91 158.318 131.545 157.514C133.345 157.807 134.91 159.274 136.649 159.914C139.353 160.907 142.457 159.855 145.211 159.606C147.297 159.417 149.593 159.097 151.141 157.534C152.106 156.558 152.236 155.494 152.549 154.218C152.868 152.923 153.787 151.949 154.706 151.011C157.401 151.522 160.131 151.487 162.835 150.918C165.537 150.351 168.099 149.302 170.652 148.271C173.382 149.197 176.283 149.773 179.121 150.124C179.457 150.165 179.796 150.2 180.132 150.229C177.924 151.208 175.901 152.51 174.049 154.099C168.89 158.533 165.171 164.356 160.38 169.154C158.926 170.612 157.308 171.937 155.619 173.117C154.378 173.983 152.969 174.486 151.972 175.657C151.741 175.93 151.567 176.354 151.799 176.624C151.935 176.787 152.167 176.828 152.375 176.857C153.839 177.066 155.077 177.292 156.378 178.033C157.552 178.702 158.621 179.588 159.876 180.099C162.925 181.34 166.432 181.285 169.655 180.997C173.179 180.68 176.66 180.094 180.214 180.207C183.874 180.323 187.514 180.683 191.181 180.712C197.195 180.762 203.67 180.753 209.031 177.627C214.051 174.701 217.077 169.154 218.581 163.691C219.051 161.988 219.399 160.245 219.535 158.481C219.657 156.921 219.787 154.869 219.17 153.39C219.442 153.175 219.796 153.1 220.126 152.995C221.367 152.603 222.471 151.798 223.442 150.95C223.558 150.848 223.68 150.735 223.723 150.586C223.764 150.45 223.732 150.302 223.691 150.165C223.595 149.831 223.459 149.508 223.282 149.209C223.193 149.055 223.082 148.898 222.92 148.823C222.61 148.68 222.262 148.881 221.975 149.067C220.761 149.863 219.468 150.543 218.123 151.092C218.025 151.133 217.921 151.173 217.816 151.15C217.599 151.104 217.263 150.706 217.066 150.56C216.631 150.238 216.15 149.979 215.669 149.721C218.164 148.828 220.613 147.698 222.729 146.187C225.181 144.435 227.195 142.148 228.436 139.385C229.856 136.227 230.331 132.81 230.456 129.369C230.624 124.691 230.16 120.019 230.23 115.338C230.291 111.232 230.401 107.257 229.554 103.207C228.224 96.846 225.224 90.3024 219.813 86.5076C219.868 86.4844 219.926 86.4553 219.984 86.4176C225.227 82.9569 226.731 76.8259 226.937 70.8751C226.963 70.1574 226.963 69.4397 226.958 68.7249C229.598 73.7285 231.879 78.9122 233.656 84.3226C236.389 92.6473 238.003 101.295 238.571 110.035C239.148 118.886 238.716 127.78 237.655 136.578L237.661 136.581ZM111.941 172.687C113.338 172.19 114.781 171.815 116.149 171.243C118.335 170.333 120.288 168.915 121.749 167.041C123.946 164.22 125.314 160.323 128.227 158.124C128.258 158.118 128.29 158.112 128.322 158.106C128.279 158.179 128.25 158.26 128.247 158.356C128.16 161.178 129.583 164.057 128.203 166.756C127.134 168.849 125.221 170.877 123.204 172.083C121.068 173.361 118.216 172.696 115.865 172.635C114.06 172.588 112.225 173.094 110.408 173.271C110.924 173.079 111.431 172.867 111.938 172.687H111.941ZM110.466 171.603C110.828 170.952 111.141 170.255 111.448 169.546C112.55 167.006 114.202 164.871 115.987 162.779C117.674 160.803 119.355 159.335 121.937 158.716C123.094 158.44 124.279 158.33 125.465 158.278C125.696 158.266 125.925 158.263 126.157 158.263C124.059 160.108 122.766 162.965 121.195 165.28C119.816 167.314 117.929 168.886 115.662 169.842C114.326 170.406 112.909 170.766 111.544 171.249C111.19 171.374 110.828 171.487 110.463 171.6L110.466 171.603Z" fill="#713D11"/>
<path d="M162.299 146.152C159.311 143.744 156.413 141.23 153.503 138.725C153.083 138.365 152.523 138.47 152.694 139.095C152.816 139.545 153.364 139.931 153.674 140.254C154.236 140.838 154.912 141.323 155.506 141.875C157.422 143.662 159.485 145.275 161.569 146.89C162.088 147.291 162.827 146.577 162.302 146.155L162.299 146.152Z" fill="#713D11"/>
<path d="M185.486 137.104C185.434 136.921 185.306 136.738 185.08 136.599C184.37 136.16 184.112 137.348 184.579 137.74C185.132 138.208 185.639 137.647 185.489 137.104H185.486Z" fill="#713D11"/>
<path d="M191.717 141.486C191.651 141.172 191.401 140.879 191.054 140.908C190.535 140.948 190.361 141.553 190.688 141.913C190.825 142.064 190.998 142.221 191.219 142.212C191.656 142.192 191.793 141.826 191.717 141.489V141.486Z" fill="#713D11"/>
<path d="M220.289 101.754C219.828 101.582 219.266 101.701 219.034 102.332C218.616 103.462 220.277 104.139 220.848 103.16C221.216 102.527 220.819 101.948 220.289 101.754Z" fill="#713D11"/>
<path d="M219.753 114.745C219.599 114.591 219.373 114.498 219.156 114.498C218.292 114.498 217.701 115.957 218.631 116.262C219.446 116.529 220.454 115.448 219.753 114.745Z" fill="#713D11"/>
<path d="M207.142 130.822C206.623 130.613 205.838 130.808 206.015 131.511C206.165 132.115 207.012 132.409 207.388 131.856C207.748 131.331 207.513 130.973 207.142 130.822Z" fill="#713D11"/>
<path d="M110.188 136.692C109.11 135.137 107.62 133.841 106.295 132.493C104.812 130.982 103.316 129.483 101.745 128.065C100.91 127.112 100.041 126.188 99.1048 125.319C98.786 125.022 98.2527 125.133 98.0846 125.542C97.8643 126.074 98.4729 126.423 98.7831 126.754C99.8641 127.925 100.939 129.102 102.035 130.261C103.496 131.807 104.974 133.333 106.469 134.844C107.232 135.614 107.985 136.401 108.779 137.142C109.031 137.377 109.359 137.77 109.742 137.7C110.165 137.624 110.431 137.049 110.188 136.694V136.692Z" fill="#713D11"/>
<path d="M68.3306 135.852C68.1335 135.535 67.9161 135.3 67.6002 135.102C67.0727 134.777 66.5452 135.407 66.7974 135.907C66.9684 136.247 67.1683 136.642 67.519 136.825C68.1161 137.136 68.6494 136.366 68.3277 135.849L68.3306 135.852Z" fill="#713D11"/>
<path d="M74.1968 146.835C74.078 146.28 73.6056 145.667 73.3534 145.289C73.3534 145.289 73.3563 145.295 73.3592 145.298C73.1389 144.973 72.7303 144.749 72.3303 144.877C71.9216 145.01 71.7014 145.339 71.6608 145.76C71.5941 146.431 72.0926 147.254 72.6346 147.643C73.0897 147.971 73.9823 147.957 74.1881 147.335C74.2403 147.181 74.2374 147.01 74.1997 146.835H74.1968Z" fill="#713D11"/>
<path d="M56.5141 130.874C56.4533 130.462 56.2881 130.049 56.1258 129.802C55.5838 128.983 53.7405 128.681 53.4332 129.828C53.1347 130.944 55.2418 132.737 56.233 131.97C56.5257 131.743 56.5779 131.31 56.5141 130.874Z" fill="#713D11"/>
<path d="M60.6906 122.204C59.9022 119.397 57.3952 123.23 59.8356 123.363C59.8413 123.363 59.8471 123.363 59.85 123.363C60.6529 123.328 60.8442 122.759 60.6877 122.204H60.6906Z" fill="#713D11"/>
<path d="M64.9945 102.96C64.5076 101.457 62.2701 102.547 63.2092 104.003C63.8468 104.988 65.0438 104.415 65.0844 103.363C65.0902 103.218 65.0583 103.084 64.9945 102.957V102.96Z" fill="#713D11"/>
<path d="M105.009 139.118C104.577 137.467 102.363 139.092 103.728 139.891C103.875 139.978 104.09 140.016 104.258 140.024C104.742 140.053 105.133 139.594 105.009 139.118Z" fill="#713D11"/>
<path d="M113.457 143.377C113.179 142.898 112.689 142.506 112.26 142.625C112.04 142.686 111.904 142.849 111.828 143.058C111.585 143.729 112.086 144.342 112.622 144.691C112.938 144.897 113.431 144.766 113.608 144.432C113.756 144.153 113.666 143.741 113.457 143.38V143.377Z" fill="#713D11"/>
<path d="M75.44 102.265C74.7879 101.553 73.8112 102.46 73.7416 103.198C73.6228 104.453 75.753 104.845 75.9008 103.497C75.953 103.021 75.753 102.608 75.4371 102.268L75.44 102.265Z" fill="#713D11"/>
<path d="M132.514 103.994C132.63 103.762 132.566 103.436 132.482 103.169C131.914 101.341 130.711 99.7226 129.615 98.1739C128.41 96.4683 127.114 94.8266 125.717 93.2721C125.033 92.5137 124.413 91.6739 123.819 90.8458C123.413 90.2821 122.769 89.4772 121.984 89.8027C121.315 90.0787 120.602 90.9417 120.784 91.6972C120.955 92.3974 121.468 92.9001 121.912 93.4348C123.639 95.5123 125.413 97.5492 127.213 99.5657C128.114 100.574 129.018 101.576 129.928 102.579C130.375 103.07 131.589 104.837 132.401 104.145C132.453 104.101 132.49 104.052 132.516 103.994H132.514Z" fill="#713D11"/>
<path d="M132.108 143.488C132.064 143.296 131.992 143.122 131.885 142.997C128.071 138.478 124.566 133.641 120.019 129.814C119.468 129.352 118.358 129.77 118.671 130.598C119.758 133.472 121.802 135.904 123.891 138.107C125.195 139.481 126.575 140.783 127.989 142.047C128.94 143.029 129.954 143.932 131.064 144.7C131.928 145.295 132.276 144.255 132.108 143.491V143.488Z" fill="#713D11"/>
<path d="M142.435 134.103C142.414 133.495 141.696 133.129 141.238 133.588C140.829 134.001 140.783 134.986 141.249 135.39C141.838 135.898 142.461 134.87 142.435 134.103Z" fill="#713D11"/>
<path d="M145.197 127.512C144.971 126.894 144.223 126.432 143.646 127.199C143.269 127.701 143.313 128.843 144.162 128.782C145.199 128.707 145.394 128.05 145.197 127.512Z" fill="#713D11"/>
<path d="M194.755 124.714C194.477 124.281 193.9 123.898 193.523 123.846C193.01 123.776 192.593 124.258 192.735 124.761C192.74 124.787 192.752 124.81 192.764 124.836C192.969 125.232 193.094 125.525 193.482 125.816C193.949 126.167 194.862 125.85 194.911 125.223C194.926 125.057 194.862 124.88 194.755 124.711V124.714Z" fill="#713D11"/>
<path d="M204.536 127.565C203.803 127.117 203.093 128.166 203.25 128.823C203.36 129.279 204.003 129.512 204.377 129.25C204.936 128.861 205.255 128.004 204.536 127.562V127.565Z" fill="#713D11"/>
<path d="M27.8615 132.632C28.018 132.275 27.8847 131.947 27.0876 132.019C26.7108 132.054 26.3544 132.287 26.3775 132.801C26.4297 133.972 27.5861 133.257 27.8586 132.632H27.8615Z" fill="#713D11"/>
<path d="M26.5167 139.106C25.8848 138.566 25.6008 139.455 25.0414 139.394C24.5661 139.341 24.0821 139.554 24.1082 140.12C24.1488 141.001 25.2559 141.323 25.9776 141.213C27.1398 141.035 27.0963 139.603 26.5138 139.103L26.5167 139.106Z" fill="#713D11"/>
<path d="M41.2197 122.648C41.153 122.276 40.8863 121.974 40.3357 121.963C39.3039 121.942 39.1213 123.299 39.7937 123.843C40.6284 124.517 41.3646 123.43 41.2197 122.648Z" fill="#713D11"/>
<path d="M73.0605 125.659C73.0721 125.383 73.0663 125.141 73.0518 124.987C72.9997 124.488 72.7098 124.061 72.1794 123.997C71.7244 123.941 71.1621 124.217 71.0752 124.72C70.9274 125.569 70.6317 126.83 71.3824 127.489C72.6432 128.596 73.0112 126.809 73.0634 125.659H73.0605Z" fill="#713D11"/>
<path d="M197.181 50.5732C196.905 49.5679 196.233 48.5654 195.74 47.8244C192.598 43.1056 188.72 38.6832 184.237 35.1964C178.562 30.7798 171.968 27.9497 165.357 25.2561C153.402 20.3833 140.658 17.7188 127.795 16.8587C121.213 16.4199 114.596 16.4519 108.026 17.0534C101.577 17.6403 95.105 18.6399 88.8852 20.4705C77.6166 23.7887 66.9103 28.801 57.1864 35.4172C52.1202 38.8634 47.3003 42.7105 42.9239 47.008C38.8141 51.0439 34.9651 55.4867 32.2639 60.5978C31.6321 61.7978 31.0988 62.9223 30.6814 64.2182C30.4582 64.9098 31.3944 65.1829 31.7683 64.6773C35.055 60.2404 38.1706 55.7424 42.0051 51.7326C46.083 47.47 50.6218 43.6577 55.433 40.2552C64.6206 33.7581 74.8893 28.3012 85.758 25.291C97.7106 21.9814 110.347 20.7755 122.717 21.1446C135.197 21.5165 147.741 23.597 159.471 27.9584C165.517 30.2074 171.565 32.8457 177.087 36.1959C179.666 37.7592 182.422 39.5927 184.434 41.8446C186.845 44.541 189.257 47.2404 191.668 49.9369C192.485 50.8522 193.306 51.7674 194.198 52.6072C195.204 53.5515 196.87 53.5544 197.244 51.9447C197.349 51.503 197.305 51.0381 197.178 50.5703L197.181 50.5732Z" fill="#713D11"/>
</g>
<defs>
<clipPath id="clip0_1_73">
<rect width="243" height="233" fill="white"/>
</clipPath>
</defs>
</svg>
