<svg width="67" height="67" viewBox="0 0 67 67" fill="none" xmlns="http://www.w3.org/2000/svg">
<path d="M61.6035 4.23157H6.62218C5.29994 4.23157 4.23169 5.29982 4.23169 6.62206V61.6034C4.23169 62.9257 5.29994 63.9939 6.62218 63.9939H61.6035C62.9258 63.9939 63.994 62.9257 63.994 61.6034V6.62206C63.994 5.29982 62.9258 4.23157 61.6035 4.23157ZM59.213 59.2129H45.4602V40.8509H53.2293L54.3947 31.8343H45.4602V26.0747C45.4602 23.4601 46.1849 21.6822 49.9275 21.6822H54.701V13.6143C53.8718 13.5022 51.0406 13.2557 47.7387 13.2557C40.8511 13.2557 36.1373 17.4615 36.1373 25.1783V31.8268H28.3533V40.8435H36.1448V59.2129H9.01268V9.01256H59.213V59.2129Z" fill="#713D11"/>
</svg>
