<svg width="54" height="66" viewBox="0 0 54 66" fill="none" xmlns="http://www.w3.org/2000/svg">
<path d="M27.1458 65.0834L13.4375 38.8334C9.98611 38.9792 7.00868 37.9827 4.50521 35.8438C2.00174 33.7049 0.75 30.8125 0.75 27.1667C0.75 24.6875 1.46701 22.4514 2.90104 20.4584C4.33507 18.4653 6.14583 17.0556 8.33333 16.2292C9.20833 11.8056 11.3837 8.14759 14.8594 5.25523C18.3351 2.36287 22.3819 0.916687 27 0.916687C31.6181 0.916687 35.6649 2.36287 39.1406 5.25523C42.6163 8.14759 44.7917 11.8056 45.6667 16.2292C47.8542 17.0556 49.6649 18.4653 51.099 20.4584C52.533 22.4514 53.25 24.6875 53.25 27.1667C53.25 30.8125 51.9618 33.7049 49.3854 35.8438C46.809 37.9827 43.9167 38.9792 40.7083 38.8334L27.1458 65.0834ZM12.4167 33C13.1458 33 13.8628 32.8785 14.5677 32.6354C15.2726 32.3924 15.9167 31.9792 16.5 31.3959L18.1042 29.7917L20 30.9584C21.0208 31.6389 22.1267 32.1493 23.3177 32.4896C24.5087 32.8299 25.7361 33 27 33C28.2639 33 29.4913 32.8299 30.6823 32.4896C31.8733 32.1493 32.9792 31.6389 34 30.9584L35.8958 29.7917L37.5 31.3959C38.0833 31.9792 38.7274 32.3924 39.4323 32.6354C40.1371 32.8785 40.8542 33 41.5833 33C43.1875 33 44.5608 32.4288 45.7031 31.2865C46.8455 30.1441 47.4167 28.7709 47.4167 27.1667C47.4167 25.7084 46.9549 24.4323 46.0312 23.3386C45.1076 22.2448 43.9167 21.5764 42.4583 21.3334L40.2708 21.0417L40.125 18.7084C39.8819 15.3542 38.4965 12.5226 35.9688 10.2136C33.441 7.90453 30.4514 6.75002 27 6.75002C23.5486 6.75002 20.559 7.90453 18.0312 10.2136C15.5035 12.5226 14.1181 15.3542 13.875 18.7084L13.7292 21.0417L11.5417 21.4792C10.0833 21.7709 8.89236 22.4271 7.96875 23.4479C7.04514 24.4688 6.58333 25.7084 6.58333 27.1667C6.58333 28.7709 7.15451 30.1441 8.29687 31.2865C9.43924 32.4288 10.8125 33 12.4167 33ZM27.1458 52.3959L35.0208 37.0834C33.8542 37.6667 32.5903 38.1042 31.2292 38.3959C29.8681 38.6875 28.4583 38.8334 27 38.8334C25.6875 38.8334 24.3628 38.6875 23.026 38.3959C21.6892 38.1042 20.3889 37.6667 19.125 37.0834L27.1458 52.3959Z" fill="white"/>
</svg>
