<svg width="71" height="71" viewBox="0 0 71 71" fill="none" xmlns="http://www.w3.org/2000/svg">
<path d="M23.0751 5.91663H47.9251C57.3918 5.91663 65.0834 13.6083 65.0834 23.075V47.925C65.0834 52.4756 63.2757 56.8399 60.0579 60.0577C56.84 63.2756 52.4758 65.0833 47.9251 65.0833H23.0751C13.6084 65.0833 5.91675 57.3916 5.91675 47.925V23.075C5.91675 18.5243 7.7245 14.16 10.9423 10.9422C14.1601 7.72437 18.5244 5.91663 23.0751 5.91663ZM22.4834 11.8333C19.6589 11.8333 16.95 12.9553 14.9527 14.9526C12.9555 16.9499 11.8334 19.6587 11.8334 22.4833V48.5166C11.8334 54.4037 16.5963 59.1666 22.4834 59.1666H48.5168C51.3413 59.1666 54.0502 58.0446 56.0474 56.0473C58.0447 54.0501 59.1668 51.3412 59.1668 48.5166V22.4833C59.1668 16.5962 54.4038 11.8333 48.5168 11.8333H22.4834ZM51.0313 16.2708C52.0121 16.2708 52.9527 16.6604 53.6462 17.3539C54.3397 18.0474 54.7293 18.988 54.7293 19.9687C54.7293 20.9495 54.3397 21.89 53.6462 22.5835C52.9527 23.277 52.0121 23.6666 51.0313 23.6666C50.0506 23.6666 49.11 23.277 48.4165 22.5835C47.723 21.89 47.3334 20.9495 47.3334 19.9687C47.3334 18.988 47.723 18.0474 48.4165 17.3539C49.11 16.6604 50.0506 16.2708 51.0313 16.2708ZM35.5001 20.7083C39.4231 20.7083 43.1854 22.2667 45.9594 25.0407C48.7333 27.8146 50.2918 31.577 50.2918 35.5C50.2918 39.423 48.7333 43.1853 45.9594 45.9592C43.1854 48.7332 39.4231 50.2916 35.5001 50.2916C31.5771 50.2916 27.8148 48.7332 25.0408 45.9592C22.2668 43.1853 20.7084 39.423 20.7084 35.5C20.7084 31.577 22.2668 27.8146 25.0408 25.0407C27.8148 22.2667 31.5771 20.7083 35.5001 20.7083ZM35.5001 26.625C33.1463 26.625 30.8889 27.56 29.2245 29.2244C27.5601 30.8888 26.6251 33.1462 26.6251 35.5C26.6251 37.8538 27.5601 40.1111 29.2245 41.7755C30.8889 43.4399 33.1463 44.375 35.5001 44.375C37.8539 44.375 40.1113 43.4399 41.7757 41.7755C43.44 40.1111 44.3751 37.8538 44.3751 35.5C44.3751 33.1462 43.44 30.8888 41.7757 29.2244C40.1113 27.56 37.8539 26.625 35.5001 26.625Z" fill="#713D11"/>
</svg>
