<svg
  width="60"
  height="57"
  viewBox="0 0 60 57"
  fill="none"
  xmlns="http://www.w3.org/2000/svg"
>
  <path
    d="M29.9999 56.1667L0.833252 12.4167C4.9652 8.91667 9.49818 6.09722 14.4322 3.95833C19.3662 1.81944 24.5555 0.75 29.9999 0.75C35.4444 0.75 40.6336 1.80729 45.5676 3.92188C50.5016 6.03646 55.0346 8.86806 59.1666 12.4167L29.9999 56.1667ZM29.9999 45.6667L51.2916 13.7292C48.1319 11.5417 44.7534 9.80382 41.1562 8.51562C37.5589 7.22743 33.8402 6.58333 29.9999 6.58333C26.1596 6.58333 22.453 7.22743 18.8801 8.51562C15.3072 9.80382 11.9166 11.5417 8.70825 13.7292L29.9999 45.6667ZM22.7082 21.1667C23.9235 21.1667 24.9565 20.7413 25.8072 19.8906C26.6579 19.0399 27.0832 18.0069 27.0832 16.7917C27.0832 15.5764 26.6579 14.5434 25.8072 13.6927C24.9565 12.842 23.9235 12.4167 22.7082 12.4167C21.493 12.4167 20.46 12.842 19.6093 13.6927C18.7586 14.5434 18.3333 15.5764 18.3333 16.7917C18.3333 18.0069 18.7586 19.0399 19.6093 19.8906C20.46 20.7413 21.493 21.1667 22.7082 21.1667ZM29.9999 35.75C31.2152 35.75 32.2482 35.3246 33.0989 34.474C33.9496 33.6233 34.3749 32.5903 34.3749 31.375C34.3749 30.1597 33.9496 29.1267 33.0989 28.276C32.2482 27.4253 31.2152 27 29.9999 27C28.7846 27 27.7517 27.4253 26.901 28.276C26.0503 29.1267 25.6249 30.1597 25.6249 31.375C25.6249 32.5903 26.0503 33.6233 26.901 34.474C27.7517 35.3246 28.7846 35.75 29.9999 35.75Z"
    fill="white"
  />
</svg>
