<svg width="36" height="54" viewBox="0 0 36 54" fill="none" xmlns="http://www.w3.org/2000/svg">
<path d="M6.33333 53.25V47.4167H15.0833V35.4583C10.9028 34.7778 7.42708 32.8333 4.65625 29.625C1.88542 26.4167 0.5 22.625 0.5 18.25V0.75H35.5V18.25C35.5 22.625 34.1146 26.4167 31.3437 29.625C28.5729 32.8333 25.0972 34.7778 20.9167 35.4583V47.4167H29.6667V53.25H6.33333ZM18 29.9167C20.7222 29.9167 23.1042 29.0903 25.1458 27.4375C27.1875 25.7847 28.5486 23.6944 29.2292 21.1667H6.77083C7.45139 23.6944 8.8125 25.7847 10.8542 27.4375C12.8958 29.0903 15.2778 29.9167 18 29.9167ZM6.33333 15.3333H29.6667V6.58333H6.33333V15.3333Z" fill="white"/>
</svg>
